<svg width="134" height="134" viewBox="0 0 134 134" fill="none" xmlns="http://www.w3.org/2000/svg">
<path d="M58.6248 8.37574C51.414 8.36697 44.2858 9.91018 37.7244 12.9006C31.1629 15.8909 25.3219 20.2584 20.5981 25.7064C15.8742 31.1544 12.3782 37.5552 10.3475 44.4741C8.31676 51.393 7.79889 58.6679 8.82906 65.8047C9.85923 72.9415 12.4133 79.773 16.3178 85.8352C20.2223 91.8973 25.3857 97.0482 31.4574 100.938C37.5291 104.828 44.3668 107.365 51.5061 108.378C58.6454 109.39 65.919 108.855 72.8329 106.807L89.2647 73.9352C90.3035 71.846 91.9064 70.0891 93.892 68.8636C95.8775 67.6381 98.1665 66.9928 100.5 67.0007L108.121 67.0007C109.387 59.7928 109.055 52.3948 107.148 45.3293C105.241 38.2639 101.806 31.7035 97.0846 26.1116C92.3635 20.5198 86.472 16.033 79.8263 12.9683C73.1806 9.90366 65.9429 8.33587 58.6248 8.37574ZM50.2498 77.8464L33.4998 61.0964L40.1579 54.4382L50.2498 64.5301L72.9041 41.8757L79.5623 48.5339L50.2498 77.8464Z" fill="white"/>
<path d="M114.653 117.25L86.3376 117.25L100.5 88.9258L114.653 117.25ZM100.5 75.375C99.7216 75.3746 98.9587 75.5911 98.2967 76.0002C97.6347 76.4092 97.0998 76.9946 96.7519 77.6907L75.8144 119.566C75.4953 120.204 75.3448 120.914 75.3771 121.627C75.4094 122.34 75.6235 123.033 75.999 123.64C76.3745 124.247 76.899 124.748 77.5226 125.096C78.1463 125.443 78.8484 125.625 79.5623 125.625L121.437 125.625C122.129 125.625 122.81 125.454 123.419 125.127C124.028 124.8 124.547 124.327 124.929 123.75C125.311 123.174 125.544 122.512 125.608 121.823C125.671 121.135 125.564 120.441 125.294 119.804L104.248 77.6907C103.9 76.9946 103.365 76.4092 102.703 76.0002C102.041 75.5911 101.278 75.3746 100.5 75.375Z" fill="white"/>
</svg>
