<svg width="26" height="26" viewBox="0 0 26 26" fill="none" xmlns="http://www.w3.org/2000/svg">
<path d="M11.2636 3.83005L5.09405 3.80496C4.82134 3.80385 4.55936 3.91112 4.36574 4.10318C4.17212 4.29523 4.06272 4.55633 4.06162 4.82904L4.03653 10.9986C4.03542 11.2713 4.14269 11.5333 4.33474 11.7269C4.5268 11.9205 4.7879 12.0299 5.06061 12.031L11.2301 12.0561C11.5029 12.0572 11.7648 11.9499 11.9585 11.7579C12.1521 11.5658 12.2615 11.3047 12.2626 11.032L12.2877 4.86248C12.2888 4.58977 12.1815 4.32779 11.9895 4.13417C11.7974 3.94055 11.5363 3.83115 11.2636 3.83005V3.83005ZM10.2103 9.99541L6.09723 9.97868L6.11395 5.86566L10.227 5.88238L10.2103 9.99541ZM21.5462 3.87185L15.3766 3.84677C15.1039 3.84566 14.8419 3.95293 14.6483 4.14498C14.4547 4.33703 14.3453 4.59813 14.3442 4.87084L14.3191 11.0404C14.318 11.3131 14.4253 11.5751 14.6173 11.7687C14.8094 11.9623 15.0705 12.0717 15.3432 12.0728L21.5127 12.0979C21.7854 12.099 22.0474 11.9917 22.241 11.7997C22.4347 11.6076 22.544 11.3465 22.5452 11.0738L22.5702 4.90429C22.5713 4.63158 22.4641 4.3696 22.272 4.17598C22.08 3.98236 21.8189 3.87296 21.5462 3.87185V3.87185ZM20.4928 10.0372L16.3798 10.0205L16.3965 5.90746L20.5095 5.92419L20.4928 10.0372ZM11.2218 14.1126L5.05225 14.0875C4.77954 14.0864 4.51755 14.1937 4.32393 14.3857C4.13031 14.5778 4.02092 14.8389 4.01981 15.1116L3.99472 21.2811C3.99362 21.5539 4.10089 21.8158 4.29294 22.0095C4.48499 22.2031 4.74609 22.3125 5.0188 22.3136L11.1883 22.3387C11.4611 22.3398 11.723 22.2325 11.9167 22.0405C12.1103 21.8484 12.2197 21.5873 12.2208 21.3146L12.2459 15.1451C12.247 14.8723 12.1397 14.6104 11.9477 14.4167C11.7556 14.2231 11.4945 14.1137 11.2218 14.1126ZM10.1684 20.278L6.05542 20.2613L6.07214 16.1482L10.1852 16.1649L10.1684 20.278ZM18.4196 14.1419C16.1513 14.1327 14.2991 15.9699 14.2898 18.2382C14.2806 20.5065 16.1178 22.3587 18.3861 22.3679C20.6545 22.3772 22.5067 20.54 22.5159 18.2716C22.5251 16.0033 20.6879 14.1511 18.4196 14.1419ZM18.3945 20.3114C17.2603 20.3068 16.3417 19.3807 16.3464 18.2465C16.351 17.1124 17.2771 16.1938 18.4112 16.1984C19.5454 16.203 20.464 17.1291 20.4594 18.2633C20.4548 19.3974 19.5287 20.316 18.3945 20.3114Z" fill="white"/>
</svg>
