<svg width="125" height="125" viewBox="0 0 125 125" fill="none" xmlns="http://www.w3.org/2000/svg">
<path fill-rule="evenodd" clip-rule="evenodd" d="M62.5 124.5C78.9434 124.5 94.7134 117.968 106.341 106.341C117.968 94.7134 124.5 78.9434 124.5 62.5C124.5 46.0566 117.968 30.2866 106.341 18.6594C94.7134 7.03212 78.9434 0.5 62.5 0.5C46.0566 0.5 30.2866 7.03212 18.6594 18.6594C7.03212 30.2866 0.5 46.0566 0.5 62.5C0.5 78.9434 7.03212 94.7134 18.6594 106.341C30.2866 117.968 46.0566 124.5 62.5 124.5ZM91.2292 52.4792C92.641 51.0176 93.4221 49.0599 93.4045 47.0279C93.3868 44.9959 92.5718 43.0521 91.1348 41.6152C89.6979 40.1782 87.7541 39.3632 85.7221 39.3455C83.6901 39.3279 81.7324 40.109 80.2708 41.5208L54.75 67.0415L44.7292 57.0208C43.2676 55.609 41.3099 54.8279 39.2779 54.8455C37.2459 54.8632 35.3021 55.6782 33.8652 57.1152C32.4282 58.5521 31.6132 60.4959 31.5955 62.5279C31.5779 64.5599 32.359 66.5176 33.7708 67.9792L49.2708 83.4792C50.7241 84.9322 52.695 85.7483 54.75 85.7483C56.805 85.7483 58.7759 84.9322 60.2292 83.4792L91.2292 52.4792Z" fill="white"/>
</svg>
