<svg width="15" height="16" viewBox="0 0 15 16" fill="none" xmlns="http://www.w3.org/2000/svg">
<path d="M13.0392 3.37001L8.79146 0.918494C8.3838 0.682731 7.92119 0.558594 7.45026 0.558594C6.97933 0.558594 6.51672 0.682731 6.10906 0.918494L1.86135 3.37001C1.45348 3.60549 1.1148 3.94421 0.879369 4.35209C0.643934 4.75998 0.520039 5.22267 0.520142 5.69363L0.520142 10.5978C0.519924 11.0688 0.64377 11.5315 0.879217 11.9394C1.11466 12.3473 1.4534 12.686 1.86135 12.9214L6.10906 15.3741C6.51691 15.6093 6.97944 15.7331 7.45026 15.7331C7.92107 15.7331 8.38361 15.6093 8.79146 15.3741L13.0392 12.9214C13.447 12.6859 13.7856 12.3471 14.021 11.9392C14.2564 11.5314 14.3804 11.0687 14.3804 10.5978L14.3804 5.69363C14.3803 5.22272 14.2563 4.76012 14.0208 4.35227C13.7854 3.94442 13.4469 3.60567 13.0392 3.37001Z" fill="url(#paint0_linear_1486_3676)"/>
<path opacity="0.21" d="M12.995 3.38702L8.74727 0.933243C8.33942 0.698034 7.87688 0.574219 7.40607 0.574219C6.93526 0.574219 6.47272 0.698034 6.06487 0.933243L1.81716 3.38702C1.40962 3.62231 1.07116 3.96067 0.835745 4.36813C0.60033 4.77559 0.476246 5.2378 0.475952 5.70838L0.475952 10.6137C0.475933 11.0845 0.599874 11.547 0.835311 11.9547C1.07075 12.3624 1.40938 12.7009 1.81716 12.9362L6.06487 15.3843C6.47253 15.6201 6.93514 15.7442 7.40607 15.7442C7.877 15.7442 8.33961 15.6201 8.74727 15.3843L12.995 12.9316C13.4028 12.6963 13.7414 12.3578 13.9768 11.9501C14.2123 11.5424 14.3362 11.0799 14.3362 10.6091L14.3362 5.70838C14.3359 5.2378 14.2118 4.77559 13.9764 4.36813C13.741 3.96067 13.4025 3.62231 12.995 3.38702Z" fill="#FEC556"/>
<path d="M13.6731 10.5923L13.6731 6.69881C13.6731 6.20647 13.7342 5.64735 13.6108 5.1652C13.5458 4.91375 13.4318 4.67757 13.2755 4.47017C13.1192 4.26276 12.9235 4.08819 12.6997 3.95642C12.5616 3.87493 12.4213 3.7957 12.2821 3.71647L8.56065 1.56602C8.28071 1.39036 7.96527 1.27903 7.63709 1.24005C7.21387 1.20828 6.79138 1.31043 6.42944 1.53206L4.8449 2.44544L2.77254 3.6429C2.59937 3.7425 2.4262 3.84097 2.25417 3.9417C1.86975 4.15969 1.56874 4.49933 1.39851 4.90714C1.19252 5.4108 1.25024 5.99369 1.25024 6.52225L1.25024 8.98508C1.25024 9.51703 1.25024 10.0479 1.25024 10.5798C1.2492 11.0497 1.41302 11.5051 1.71316 11.8667C1.89831 12.0736 2.11865 12.246 2.36395 12.376L6.09895 14.5344C6.22911 14.6091 6.35814 14.686 6.48943 14.7607C6.75763 14.9132 7.05802 15.0002 7.36619 15.0148C7.67435 15.0293 7.9816 14.971 8.26298 14.8445C8.70892 14.6396 9.12882 14.3544 9.55326 14.1088L11.7162 12.8638L12.4801 12.4224C12.6797 12.3181 12.8669 12.1917 13.0381 12.0455C13.2362 11.8594 13.3943 11.6348 13.5027 11.3855C13.6111 11.1362 13.6675 10.8675 13.6685 10.5957C13.6685 10.547 13.6335 10.547 13.6323 10.5957C13.6281 10.9246 13.539 11.2469 13.3736 11.5312C13.2083 11.8156 12.9722 12.0524 12.6884 12.2187C12.5752 12.2889 12.4518 12.3556 12.3341 12.4235L10.4429 13.5146L8.65459 14.5468C8.47525 14.6596 8.2858 14.7555 8.08869 14.8332C7.82507 14.9229 7.54528 14.955 7.26821 14.9272C6.99114 14.8995 6.72324 14.8126 6.48264 14.6725C5.3429 14.016 4.19863 13.3505 3.05549 12.6895C2.60277 12.4292 2.05044 12.1859 1.71429 11.775C1.42909 11.4201 1.27766 10.9762 1.28646 10.521L1.28646 5.7594C1.28646 4.97845 1.67015 4.36387 2.33905 3.97679L3.94623 3.05096L5.94729 1.89651L6.47471 1.59318C6.89463 1.34556 7.39148 1.26248 7.86911 1.36003C8.38069 1.47321 8.86964 1.83313 9.31671 2.09118L11.4004 3.2943C11.8282 3.54104 12.2583 3.78325 12.6827 4.03451C12.9395 4.18252 13.1583 4.38819 13.322 4.6353C13.4856 4.8824 13.5895 5.16417 13.6255 5.45834C13.6389 5.6323 13.6427 5.80686 13.6369 5.98124L13.6369 10.5923C13.6369 10.6409 13.6731 10.6421 13.6731 10.5923Z" fill="#696129"/>
<path d="M13.7242 10.5923L13.7242 6.69886C13.7242 6.20652 13.7865 5.6474 13.662 5.16525C13.5965 4.91337 13.4819 4.67692 13.3248 4.46948C13.1677 4.26203 12.9711 4.08769 12.7463 3.95647C12.6083 3.87497 12.4679 3.79575 12.3287 3.71652L8.60841 1.56607C8.33056 1.39121 8.01751 1.27991 7.69164 1.2401C7.26841 1.20817 6.84587 1.31034 6.48399 1.53211L4.89945 2.44549L2.82822 3.64295C2.65619 3.74255 2.48302 3.84102 2.31098 3.94175C1.92598 4.15934 1.6245 4.49906 1.4542 4.90719C1.24934 5.41085 1.30706 5.99374 1.30706 6.52229L1.30706 8.98513C1.30706 9.51709 1.30706 10.0479 1.30706 10.5799C1.30618 11.0496 1.46953 11.5048 1.76884 11.8667C1.95441 12.0736 2.17512 12.2461 2.42077 12.3761L6.15576 14.5344C6.28592 14.6091 6.41495 14.6861 6.54624 14.7608C6.81425 14.9132 7.11445 15.0003 7.42243 15.0148C7.73041 15.0294 8.03748 14.971 8.31867 14.8445C8.7646 14.6397 9.18451 14.3545 9.60894 14.1089L11.7707 12.8639L12.5347 12.4225C12.7342 12.3182 12.9214 12.1917 13.0927 12.0456C13.2908 11.8595 13.4489 11.635 13.5571 11.3856C13.6653 11.1363 13.7214 10.8675 13.722 10.5957C13.722 10.547 13.6869 10.547 13.6857 10.5957C13.6813 10.9247 13.592 11.247 13.4264 11.5314C13.2608 11.8157 13.0246 12.0525 12.7407 12.2187C12.6275 12.2889 12.5041 12.3557 12.3864 12.4236L10.4963 13.5147L8.70801 14.5469C8.52867 14.6597 8.33922 14.7555 8.1421 14.8332C7.87868 14.9229 7.59907 14.955 7.32218 14.9272C7.0453 14.8995 6.7776 14.8126 6.53719 14.6725C5.39066 14.0183 4.25092 13.3517 3.10778 12.6918C2.65505 12.4315 2.10386 12.1882 1.76658 11.7773C1.48241 11.4212 1.33257 10.9765 1.34328 10.521L1.34328 5.75945C1.34328 4.9751 1.7213 4.36392 2.40039 3.97684L4.00192 3.05101L6.00184 1.89656L6.52361 1.59436C6.94505 1.34525 7.44407 1.26174 7.92366 1.36008C8.43411 1.47326 8.92306 1.83318 9.37013 2.09123L11.4549 3.29435C11.8828 3.54109 12.3129 3.7833 12.7373 4.03456C12.9939 4.18263 13.2126 4.38834 13.376 4.63545C13.5394 4.88256 13.6431 5.16429 13.679 5.45839C13.6929 5.63232 13.6967 5.80691 13.6903 5.98129L13.6903 10.5923C13.688 10.641 13.7242 10.6421 13.7242 10.5923Z" fill="url(#paint1_linear_1486_3676)"/>
<path d="M10.8642 6.46467C10.1343 6.94745 9.3083 7.26604 8.44325 7.39842C7.58192 7.52814 6.71075 7.58079 5.84007 7.55574C5.67822 7.54895 5.51524 7.54555 5.35452 7.54216C5.24134 7.54216 5.24134 8.03902 5.36584 8.04468L5.56617 8.05147C6.19772 8.07864 6.85304 8.16466 7.37708 8.53476C7.59325 8.68756 7.90563 8.96146 7.88187 9.2546C7.8581 9.54774 7.67361 9.85559 7.51855 10.091C7.32049 10.3898 7.04206 10.6207 6.80438 10.8833C6.54567 11.1552 6.37489 11.4987 6.3143 11.8691C6.21696 12.5346 6.42748 13.2035 6.72854 13.7932C6.78061 13.8973 6.84173 13.7638 6.8587 13.7162C6.89285 13.5919 6.88691 13.46 6.84173 13.3393C6.65271 12.9217 6.389 12.3999 6.55085 11.9596C6.66969 11.6291 6.94133 11.3824 7.18127 11.1379C7.50702 10.816 7.76353 10.4308 7.93506 10.0061C8.19878 9.3474 8.132 8.57324 7.56835 8.09675C7.53327 8.06619 7.49592 8.03789 7.45517 8.01073C7.80603 7.98243 8.15577 7.93942 8.5021 7.88057C9.38379 7.72891 10.2938 7.42784 10.8789 6.72159C10.9265 6.68197 10.9208 6.42732 10.8642 6.46467Z" fill="#696129"/>
<path d="M7.19251 8.94974C7.20156 8.80034 7.21175 8.64868 7.22307 8.49702C7.15836 8.45779 7.09147 8.42227 7.02273 8.39063C6.96048 9.14668 6.90955 9.90387 6.86202 10.6543L6.85522 10.7516C6.90955 10.6939 6.96841 10.6384 7.02047 10.5818L7.09177 10.5105C7.12497 9.98988 7.15855 9.46962 7.19251 8.94974Z" fill="#696129"/>
<path d="M8.3838 5.18208C8.8635 4.70607 9.48857 4.40409 10.1596 4.32417C10.2536 4.30945 10.2434 3.93708 10.1494 3.91897C9.55184 3.80579 8.95197 4.1012 8.50264 4.48488C8.02156 4.90915 7.65854 5.45076 7.44892 6.05698C7.28432 6.519 7.17047 6.99755 7.10937 7.4842L7.33574 7.46949C7.48401 6.62175 7.76243 5.81137 8.3838 5.18208Z" fill="#696129"/>
<path d="M6.71008 12.8838C6.75762 13.0061 6.81195 13.126 6.86288 13.2381L6.89796 13.3139L6.90815 13.3422C6.95116 12.6835 6.99379 12.0252 7.03605 11.3672C6.94991 11.454 6.86903 11.5458 6.79384 11.6422C6.76667 12.0565 6.73838 12.4696 6.71008 12.8838Z" fill="#696129"/>
<path d="M10.8407 6.34357C10.1107 6.8262 9.28472 7.14477 8.41971 7.27732C7.55839 7.40705 6.68721 7.4597 5.81653 7.43464C5.65468 7.42785 5.4917 7.42446 5.32985 7.42106C5.21667 7.42106 5.21667 7.91793 5.3423 7.92359L5.54263 7.93038C6.17419 7.95754 6.82951 8.04356 7.35354 8.41367C7.56972 8.56646 7.8821 8.84036 7.8572 9.1335C7.8323 9.42664 7.65008 9.7345 7.49389 9.96992C7.29695 10.2687 7.01852 10.4996 6.78084 10.7622C6.52213 11.0341 6.35135 11.3776 6.29076 11.748C6.19343 12.4135 6.40395 13.0824 6.70388 13.6721C6.75707 13.7762 6.81706 13.6427 6.83517 13.5951C6.86871 13.4708 6.86277 13.3391 6.81819 13.2182C6.62918 12.8006 6.36546 12.2788 6.52731 11.8385C6.6405 11.5081 6.91779 11.2613 7.15774 11.0168C7.48348 10.6949 7.73999 10.3097 7.91153 9.88503C8.17524 9.22631 8.10846 8.45215 7.54482 7.97565C7.5086 7.94509 7.47238 7.9168 7.43164 7.88963C7.7825 7.86134 8.13223 7.81833 8.47857 7.75948C9.36025 7.60781 10.2702 7.30675 10.8554 6.60049C10.9029 6.56088 10.8973 6.30622 10.8407 6.34357Z" fill="url(#paint2_linear_1486_3676)"/>
<path d="M7.16733 8.83256C7.17751 8.68316 7.1877 8.53149 7.19902 8.37983C7.13392 8.3406 7.06666 8.30507 6.99755 8.27344C6.9353 9.02949 6.88437 9.78668 6.83797 10.5371L6.83118 10.6344C6.8855 10.5767 6.94436 10.5212 6.99642 10.4646L7.06659 10.3933C7.10055 9.8727 7.13413 9.35244 7.16733 8.83256Z" fill="url(#paint3_linear_1486_3676)"/>
<path d="M8.36044 5.0649C8.84014 4.58888 9.46521 4.2869 10.1363 4.20698C10.2302 4.19226 10.22 3.8199 10.1261 3.80179C9.52735 3.68861 8.92861 3.98401 8.47928 4.3677C7.99852 4.79133 7.63552 5.33212 7.42556 5.93753C7.26236 6.39961 7.15039 6.87822 7.09167 7.36475L7.31804 7.35003C7.46065 6.50457 7.73907 5.69419 8.36044 5.0649Z" fill="url(#paint4_linear_1486_3676)"/>
<path d="M6.68506 12.7744C6.73373 12.8967 6.78805 13.0167 6.83899 13.1287L6.87407 13.2045L6.88426 13.2328C6.92727 12.5741 6.9699 11.9158 7.01215 11.2578C6.92602 11.3446 6.84514 11.4364 6.76994 11.5328L6.68506 12.7744Z" fill="url(#paint5_linear_1486_3676)"/>
<defs>
<linearGradient id="paint0_linear_1486_3676" x1="1.78891" y1="11.5214" x2="13.6945" y2="4.4226" gradientUnits="userSpaceOnUse">
<stop stop-color="#FEEB90"/>
<stop offset="0.36" stop-color="#F5C583"/>
<stop offset="0.47" stop-color="#F7CC86"/>
<stop offset="0.65" stop-color="#FBDF90"/>
<stop offset="0.76" stop-color="#FFF098"/>
<stop offset="0.87" stop-color="#FAE297"/>
<stop offset="1" stop-color="#F1CB95"/>
</linearGradient>
<linearGradient id="paint1_linear_1486_3676" x1="2.81577" y1="4.23376" x2="12.3966" y2="12.1678" gradientUnits="userSpaceOnUse">
<stop stop-color="#FBF2AD"/>
<stop offset="0.05" stop-color="#F9EFA9"/>
<stop offset="0.11" stop-color="#F3E79C"/>
<stop offset="0.17" stop-color="#EAD987"/>
<stop offset="0.23" stop-color="#DCC66A"/>
<stop offset="0.29" stop-color="#CBAD44"/>
<stop offset="0.35" stop-color="#B58D13"/>
<stop offset="0.41" stop-color="#C49E2D"/>
<stop offset="0.49" stop-color="#D7B54F"/>
<stop offset="0.57" stop-color="#E6C567"/>
<stop offset="0.65" stop-color="#EECF76"/>
<stop offset="0.71" stop-color="#F1D27B"/>
<stop offset="0.77" stop-color="#EFCF77"/>
<stop offset="0.82" stop-color="#E8C86C"/>
<stop offset="0.88" stop-color="#DDBB58"/>
<stop offset="0.94" stop-color="#CDA93D"/>
<stop offset="0.99" stop-color="#B9921B"/>
<stop offset="1" stop-color="#B58D13"/>
</linearGradient>
<linearGradient id="paint2_linear_1486_3676" x1="5.25062" y1="10.0265" x2="10.8893" y2="10.0265" gradientUnits="userSpaceOnUse">
<stop stop-color="#FBF2AD"/>
<stop offset="0.09" stop-color="#F8E89D"/>
<stop offset="0.22" stop-color="#F4DC8A"/>
<stop offset="0.36" stop-color="#F2D47F"/>
<stop offset="0.52" stop-color="#F1D27B"/>
<stop offset="1" stop-color="#A4842C"/>
</linearGradient>
<linearGradient id="paint3_linear_1486_3676" x1="6.83118" y1="9.45732" x2="7.19902" y2="9.45732" gradientUnits="userSpaceOnUse">
<stop stop-color="#FBF2AD"/>
<stop offset="0.09" stop-color="#F8E89D"/>
<stop offset="0.22" stop-color="#F4DC8A"/>
<stop offset="0.36" stop-color="#F2D47F"/>
<stop offset="0.52" stop-color="#F1D27B"/>
<stop offset="1" stop-color="#A4842C"/>
</linearGradient>
<linearGradient id="paint4_linear_1486_3676" x1="7.09167" y1="5.57195" x2="10.2019" y2="5.57195" gradientUnits="userSpaceOnUse">
<stop stop-color="#FBF2AD"/>
<stop offset="0.09" stop-color="#F8E89D"/>
<stop offset="0.22" stop-color="#F4DC8A"/>
<stop offset="0.36" stop-color="#F2D47F"/>
<stop offset="0.52" stop-color="#F1D27B"/>
<stop offset="1" stop-color="#A4842C"/>
</linearGradient>
<linearGradient id="paint5_linear_1486_3676" x1="6.68506" y1="12.2448" x2="7.01215" y2="12.2448" gradientUnits="userSpaceOnUse">
<stop stop-color="#FBF2AD"/>
<stop offset="0.09" stop-color="#F8E89D"/>
<stop offset="0.22" stop-color="#F4DC8A"/>
<stop offset="0.36" stop-color="#F2D47F"/>
<stop offset="0.52" stop-color="#F1D27B"/>
<stop offset="1" stop-color="#A4842C"/>
</linearGradient>
</defs>
</svg>
