<svg width="21" height="21" viewBox="0 0 21 21" fill="none" xmlns="http://www.w3.org/2000/svg">
<path d="M17.5 7.875L15.7544 17.8028C15.6832 18.2082 15.4713 18.5756 15.156 18.8403C14.8408 19.1049 14.4423 19.25 14.0306 19.25H6.96938C6.55772 19.25 6.15924 19.1049 5.84397 18.8403C5.52871 18.5756 5.31684 18.2082 5.24562 17.8028L3.5 7.875M18.375 5.25H13.4531M13.4531 5.25V3.5C13.4531 3.03587 13.2688 2.59075 12.9406 2.26256C12.6124 1.93437 12.1673 1.75 11.7031 1.75H9.29688C8.83275 1.75 8.38763 1.93437 8.05944 2.26256C7.73125 2.59075 7.54688 3.03587 7.54688 3.5V5.25M13.4531 5.25H7.54688M2.625 5.25H7.54688" stroke="#F8F8F8" stroke-linecap="round" stroke-linejoin="round"/>
</svg>
