<svg width="23" height="23" viewBox="0 0 23 23" fill="none" xmlns="http://www.w3.org/2000/svg">
<g clip-path="url(#clip0_625_162)">
<path d="M8.6251 10.3501H7.4751V19.5501H8.6251V10.3501Z" fill="white"/>
<path d="M12.0748 10.3501H10.9248V19.5501H12.0748V10.3501Z" fill="white"/>
<path d="M15.525 10.3501H14.375V19.5501H15.525V10.3501Z" fill="white"/>
<path d="M18.975 2.3H14.375V1.15C14.375 0.514805 13.8602 0 13.225 0H9.775C9.1398 0 8.625 0.514805 8.625 1.15V2.3H4.025C3.3898 2.3 2.875 2.8148 2.875 3.45V5.75C2.875 6.3852 3.3898 6.9 4.025 6.9V21.85C4.025 22.4852 4.5398 23 5.175 23H17.825C18.4602 23 18.975 22.4852 18.975 21.85V6.9C19.6102 6.9 20.125 6.3852 20.125 5.75V3.45C20.125 2.8148 19.6102 2.3 18.975 2.3ZM9.775 1.15H13.225V2.3H9.775V1.15ZM17.825 21.85H5.175V6.9H17.825V21.85ZM18.975 5.75H4.025V3.45H18.975V5.75Z" fill="white"/>
</g>
<defs>
<clipPath id="clip0_625_162">
<rect width="23" height="23" fill="white"/>
</clipPath>
</defs>
</svg>
