<svg width="39" height="31" viewBox="0 0 39 31" fill="none" xmlns="http://www.w3.org/2000/svg">
<path d="M32.5478 3.21786C30.1229 2.04539 27.5302 1.19328 24.8196 0.708084C24.4867 1.33009 24.0978 2.1667 23.8296 2.83222C20.9482 2.38438 18.0932 2.38438 15.2647 2.83222C14.9966 2.1667 14.5989 1.33009 14.263 0.708084C11.5494 1.19328 8.95373 2.04852 6.52891 3.22407C1.63803 10.8621 0.312193 18.3105 0.975113 25.6531C4.219 28.1566 7.36272 29.6774 10.4534 30.6726C11.2165 29.5872 11.8971 28.4334 12.4834 27.2174C11.3667 26.7789 10.2972 26.2378 9.28668 25.6096C9.55477 25.4043 9.81701 25.1897 10.0704 24.9689C16.234 27.9482 22.931 27.9482 29.021 24.9689C29.2774 25.1897 29.5396 25.4043 29.8047 25.6096C28.7912 26.2409 27.7188 26.782 26.6021 27.2205C27.1884 28.4334 27.8661 29.5903 28.6321 30.6757C31.7258 29.6805 34.8724 28.1597 38.1163 25.6531C38.8941 17.1411 36.7875 9.7612 32.5478 3.21786ZM13.3231 21.1374C11.4728 21.1374 9.95545 19.3523 9.95545 17.1784C9.95545 15.0046 11.4404 13.2164 13.3231 13.2164C15.2058 13.2164 16.7231 15.0015 16.6907 17.1784C16.6937 19.3523 15.2058 21.1374 13.3231 21.1374ZM25.7683 21.1374C23.918 21.1374 22.4007 19.3523 22.4007 17.1784C22.4007 15.0046 23.8856 13.2164 25.7683 13.2164C27.651 13.2164 29.1684 15.0015 29.136 17.1784C29.136 19.3523 27.651 21.1374 25.7683 21.1374Z" fill="white"/>
</svg>
