<svg width="24" height="24" viewBox="0 0 24 24" fill="none" xmlns="http://www.w3.org/2000/svg">
<path d="M12 0.625C5.71836 0.625 0.625 5.71836 0.625 12C0.625 18.2816 5.71836 23.375 12 23.375C18.2816 23.375 23.375 18.2816 23.375 12C23.375 5.71836 18.2816 0.625 12 0.625ZM12.5662 17.5148L12.5713 18.3197C12.5713 18.4314 12.4799 18.5254 12.3682 18.5254H11.6471C11.5354 18.5254 11.4439 18.434 11.4439 18.3223V17.525C9.18926 17.3574 8.12793 16.0727 8.01367 14.6762C8.00352 14.5568 8.09746 14.4553 8.2168 14.4553H9.38984C9.48887 14.4553 9.5752 14.5264 9.59043 14.6229C9.71992 15.4277 10.3471 16.0295 11.4719 16.1793V12.5561L10.8447 12.3961C9.5168 12.0787 8.25234 11.251 8.25234 9.53457C8.25234 7.68359 9.65898 6.68828 11.4566 6.51309V5.6752C11.4566 5.56348 11.548 5.47207 11.6598 5.47207H12.3732C12.485 5.47207 12.5764 5.56348 12.5764 5.6752V6.50547C14.3156 6.68066 15.6207 7.69629 15.773 9.27812C15.7857 9.39746 15.6918 9.50156 15.5699 9.50156H14.4299C14.3283 9.50156 14.242 9.42539 14.2293 9.32637C14.1277 8.58496 13.5336 7.98066 12.5662 7.84863V11.2586L13.2111 11.4084C14.8564 11.8146 15.9762 12.6018 15.9762 14.3639C15.9762 16.2758 14.5543 17.3422 12.5662 17.5148ZM9.83164 9.41777C9.83164 10.0627 10.2303 10.5629 11.0885 10.8727C11.2078 10.9209 11.3271 10.959 11.4693 10.9996V7.85117C10.5324 7.97051 9.83164 8.49609 9.83164 9.41777ZM12.7896 12.8506C12.7186 12.8354 12.6475 12.8176 12.5662 12.7947V16.1895C13.6479 16.093 14.3943 15.4988 14.3943 14.5035C14.3943 13.724 13.9906 13.2162 12.7896 12.8506Z" fill="white"/>
</svg>
