<svg width="52" height="50" viewBox="0 0 52 50" fill="none" xmlns="http://www.w3.org/2000/svg">
<path d="M30.1662 17.1642C30.3977 16.9308 30.6746 16.7445 30.9808 16.6164C31.287 16.4883 31.6163 16.4209 31.9495 16.4181C32.2827 16.4152 32.6132 16.4771 32.9216 16.6C33.23 16.7229 33.5102 16.9044 33.7459 17.1339C33.9815 17.3634 34.1679 17.6364 34.294 17.9368C34.4202 18.2372 34.4837 18.5591 34.4808 18.8837C34.4779 19.2082 34.4087 19.529 34.2772 19.8272C34.1457 20.1255 33.9545 20.3952 33.7148 20.6207L32.7197 21.5899L29.1711 18.1335L30.1662 17.1642ZM27.3968 19.8617L16.8828 30.1027V33.5591H20.4314L30.9467 23.3181L27.3956 19.8617H27.3968Z" fill="white"/>
</svg>
