<svg width="19" height="22" viewBox="0 0 19 22" fill="none" xmlns="http://www.w3.org/2000/svg">
<path d="M15.4701 6.53098e-10C13.9891 2.94187e-10 12.7751 1.18822 12.7751 2.63866C12.7751 3.20047 12.9577 3.72276 13.2673 4.15195L15.1415 7.33277C15.4039 7.6693 15.5784 7.60536 15.7966 7.31505L17.8635 3.86122C17.9053 3.78713 17.9381 3.70829 17.9665 3.6275C18.0977 3.31374 18.1652 2.97783 18.1651 2.63866C18.1651 1.188 16.9516 1.01212e-09 15.4701 6.53098e-10ZM15.4701 1.23638C16.2679 1.23638 16.9023 1.8576 16.9023 2.63866C16.9023 3.4195 16.2679 4.0405 15.4701 4.0405C14.6726 4.0405 14.0379 3.4195 14.0379 2.63866C14.0379 1.8576 14.6726 1.23638 15.4701 1.23638V1.23638Z" fill="white"/>
<path fill-rule="evenodd" clip-rule="evenodd" d="M15.5683 8.07813C15.074 8.08893 14.5783 8.10945 14.0818 8.14552L14.1584 9.34043C14.6353 9.30651 15.1131 9.28469 15.5912 9.27498L15.5683 8.07813ZM12.9338 8.25524C12.1704 8.34834 11.4004 8.48097 10.6392 8.69416L10.9259 9.85213C11.6176 9.6586 12.3343 9.53353 13.0623 9.44476L12.9338 8.25524ZM9.49942 9.09505C9.27134 9.1939 9.05052 9.30815 8.83854 9.43698L8.83766 9.43806L8.83634 9.43849C8.53384 9.62555 8.21506 9.86293 7.9548 10.2079C7.76626 10.4578 7.61204 10.7738 7.57596 11.1475L8.69686 11.2695C8.70522 11.1818 8.75098 11.0661 8.83326 10.9572L8.8337 10.9572L8.8337 10.9568C8.96636 10.7805 9.16524 10.6204 9.40174 10.474L9.40262 10.4736C9.5712 10.3714 9.74673 10.2808 9.92798 10.2023L9.49942 9.09505ZM8.92236 11.8026L8.1957 12.7174C8.36796 12.872 8.54858 12.9908 8.72304 13.0902L8.72524 13.0913L8.72744 13.0926C9.30648 13.4159 9.90356 13.5984 10.4571 13.7717L10.7752 12.623C10.2219 12.4497 9.70028 12.2826 9.25324 12.0333C9.1252 11.9603 9.013 11.884 8.92236 11.8026V11.8026ZM11.8561 12.9461L11.5454 14.0967L11.6924 14.1417L11.8728 14.1983C12.4699 14.389 13.0419 14.5927 13.5531 14.8746L14.0719 13.8118C13.4537 13.4708 12.812 13.2479 12.1935 13.0504L12.1918 13.05L12.0065 12.9919L11.8561 12.9461ZM15.1268 14.6093L14.3297 15.456C14.5181 15.6563 14.6591 15.8971 14.7277 16.1459L14.7282 16.1472L14.7286 16.1492C14.8104 16.4397 14.8107 16.7814 14.7466 17.1266L15.8519 17.3581C15.9421 16.8708 15.9566 16.3358 15.8084 15.8077C15.6792 15.3407 15.4328 14.935 15.1268 14.6093V14.6093ZM14.3608 17.848C14.239 17.9743 14.1044 18.0881 13.959 18.1876L13.9586 18.1876C13.5626 18.461 13.1032 18.6671 12.6153 18.8442L12.9792 19.9769C13.5129 19.7832 14.0609 19.5456 14.5731 19.1918L14.5744 19.1907L14.575 19.1902C14.7854 19.0456 14.9799 18.8801 15.1556 18.6963L14.3608 17.848ZM11.58 19.1632C10.8731 19.3499 10.1506 19.492 9.41934 19.6125L9.59182 20.796C10.3444 20.6718 11.1001 20.5234 11.8512 20.3251L11.58 19.1632ZM8.31912 19.7758C7.583 19.8745 6.84292 19.9551 6.10064 20.0238L6.19788 21.2165C6.9516 21.147 7.70664 21.0651 8.46058 20.9638L8.31912 19.7758ZM4.98502 20.1177C4.2412 20.1756 3.49562 20.2227 2.74938 20.2625L2.8057 21.4582C3.5592 21.4183 4.31336 21.3705 5.0673 21.3118L4.98502 20.1177ZM1.62804 20.3165C1.18078 20.337 0.732419 20.3538 0.282959 20.3694L0.319919 21.5662C0.772188 21.551 1.22437 21.5333 1.67644 21.5131L1.62804 20.3165Z" fill="white"/>
</svg>
