<svg width="108" height="108" viewBox="0 0 108 108" fill="none" xmlns="http://www.w3.org/2000/svg">
<path d="M54.0003 0.667969C83.4563 0.667969 107.334 24.5506 107.334 54.0013C107.334 83.452 83.4563 107.335 54.0003 107.335C24.5443 107.335 0.666992 83.452 0.666992 54.0013C0.666992 24.5506 24.5443 0.667969 54.0003 0.667969ZM54.011 70.0226C53.2975 70 52.5867 70.1211 51.9209 70.3785C51.255 70.636 50.6478 71.0246 50.135 71.5214C49.6223 72.0181 49.2147 72.6128 48.9363 73.2701C48.6579 73.9275 48.5144 74.6341 48.5144 75.348C48.5144 76.0618 48.6579 76.7684 48.9363 77.4258C49.2147 78.0831 49.6223 78.6778 50.135 79.1746C50.6478 79.6713 51.255 80.0599 51.9209 80.3174C52.5867 80.5749 53.2975 80.6959 54.011 80.6733C55.3942 80.6295 56.7061 80.0493 57.669 79.0554C58.632 78.0614 59.1704 76.7319 59.1704 75.348C59.1704 73.9641 58.632 72.6345 57.669 71.6406C56.7061 70.6467 55.3942 70.0664 54.011 70.0226ZM54.0003 27.3346C52.6932 27.335 51.4317 27.8153 50.4554 28.6844C49.4791 29.5536 48.8559 30.751 48.7043 32.0493L48.667 32.668L48.6777 59.34L48.715 59.964C48.8692 61.2602 49.4934 62.4549 50.4695 63.3218C51.4455 64.1886 52.7056 64.6674 54.011 64.6674C55.3164 64.6674 56.5765 64.1886 57.5525 63.3218C58.5286 62.4549 59.1528 61.2602 59.307 59.964L59.3443 59.34L59.3337 32.668L59.2963 32.044C59.1435 30.7466 58.5198 29.5505 57.5436 28.6824C56.5675 27.8144 55.3066 27.3348 54.0003 27.3346Z" fill="white"/>
</svg>
