<svg width="227" height="29" viewBox="0 0 227 29" fill="none" xmlns="http://www.w3.org/2000/svg">
<path d="M49.5592 2.00806H37.3389C36.9567 1.97669 36.5773 2.09545 36.2812 2.33915C36.0184 2.6237 35.8659 2.99271 35.8512 3.37972L33.3529 26.9603C33.3013 27.7084 33.9291 28.0782 35.2406 28.0782H36.2038C37.4937 28.0782 38.2118 27.717 38.2806 26.999L39.2997 17.5392H47.6629C48.4068 17.5392 48.8282 16.9071 48.9228 15.6817L48.9572 15.2001L48.9959 14.6798C48.9959 13.8198 48.6992 13.3898 48.1058 13.3898H39.7082L40.4907 6.18754H49.0905C49.8358 6.18754 50.2543 5.55832 50.3461 4.29989L50.3848 3.8699L50.4235 3.34962C50.445 2.44234 50.1526 2.00806 49.5592 2.00806Z" fill="#504B64"/>
<path d="M60.3305 8.32032C56.8906 8.32032 54.3953 9.40962 52.8445 11.5882C51.2936 13.7668 50.5196 16.5517 50.5225 19.9429C50.5225 22.5945 51.2392 24.6441 52.6725 26.0917C54.1057 27.5393 56.1296 28.2632 58.7439 28.2632C61.8398 28.2632 64.2348 27.2728 65.929 25.2919C67.6231 23.3111 68.4716 20.4345 68.4745 16.6621C68.4745 14.0134 67.7693 11.9594 66.359 10.5004C64.9486 9.04126 62.9391 8.31458 60.3305 8.32032ZM59.0707 24.5094C58.5391 24.5392 58.0082 24.4402 57.5231 24.2209C57.038 24.0015 56.6131 23.6683 56.2844 23.2495C55.6422 22.4125 55.3212 21.23 55.3212 19.7021C55.3212 17.2053 55.7053 15.3062 56.4735 14.0048C56.8103 13.3931 57.3101 12.8868 57.9174 12.5422C58.5247 12.1975 59.2156 12.0281 59.9135 12.0526C60.4465 12.0199 60.9793 12.1193 61.4647 12.3421C61.95 12.5649 62.3728 12.9042 62.6955 13.3297C63.3276 14.1897 63.6414 15.3592 63.6414 16.9115C63.6386 21.9767 62.1136 24.5094 59.0664 24.5094H59.0707Z" fill="#504B64"/>
<path d="M89.0068 24.29C88.86 24.3102 88.7158 24.3463 88.5768 24.3975C88.3497 24.4747 88.1115 24.5139 87.8716 24.5136C87.0804 24.5136 86.7322 24.0277 86.8311 23.0646L88.207 9.54143C88.217 9.39096 88.181 9.241 88.1038 9.11145C88.0252 8.97464 87.9067 8.86512 87.7641 8.79755C87.3125 8.58329 86.814 8.48713 86.3151 8.51806H85.5669C84.2511 8.51806 83.5631 8.87925 83.4858 9.59303L82.2775 20.8974C81.8968 21.8972 81.2697 22.7847 80.4543 23.4773C79.8138 24.0316 79.0007 24.3463 78.1539 24.3674C76.6461 24.3674 75.8922 23.6737 75.8922 22.2863L75.9266 21.8047L77.152 9.54573C77.1778 9.39129 77.1522 9.23265 77.0789 9.09425C77.0053 8.9561 76.8871 8.84697 76.7435 8.78466C76.2926 8.56838 75.7935 8.47212 75.2945 8.50516H74.5549C73.2391 8.50516 72.5454 8.86349 72.4738 9.58013L71.1838 22.7636C71.1537 23.0851 71.1408 23.4081 71.1451 23.731C71.1451 25.2933 71.5536 26.44 72.3706 27.1709C73.1875 27.9019 74.4001 28.2688 76.0083 28.2717C77.1796 28.2605 78.329 27.9528 79.3493 27.3773C80.4257 26.7851 81.3707 25.9806 82.127 25.0124C82.2083 25.9694 82.6604 26.8566 83.3868 27.4848C84.0667 27.9146 84.8415 28.1715 85.6435 28.233C86.4455 28.2944 87.2503 28.1586 87.9877 27.8374C88.2568 27.7299 88.4958 27.5587 88.6843 27.3386C88.8726 27.1203 89.0041 26.8589 89.067 26.5776C89.1996 25.9566 89.2745 25.3247 89.2906 24.6899C89.2949 24.4233 89.196 24.29 89.0068 24.29Z" fill="#504B64"/>
<path d="M109.572 24.29C109.414 24.3085 109.258 24.3446 109.108 24.3975C108.875 24.4747 108.631 24.5139 108.386 24.5136C107.59 24.5136 107.246 24.0277 107.345 23.0646L108.235 13.8155C108.265 13.5198 108.278 13.2226 108.274 12.9255C108.274 9.85534 106.651 8.32028 103.406 8.32028C102.233 8.32769 101.08 8.62299 100.048 9.18026C98.9823 9.73489 98.0505 10.5156 97.3177 11.4678C97.3177 9.66184 96.9465 8.75887 96.2041 8.75887C95.3634 8.74232 94.5247 8.84805 93.7144 9.07276C92.9964 9.28346 92.6395 9.57155 92.6395 9.93274C92.635 10.1684 92.6479 10.4041 92.6782 10.6379C92.71 10.9967 92.7215 11.3571 92.7126 11.7172C92.6847 12.8389 92.5986 13.9583 92.4546 15.0711L91.2248 27.0205C91.2205 27.1715 91.2593 27.3206 91.3366 27.4505C91.4165 27.5815 91.5331 27.6862 91.672 27.7514C92.1047 27.9829 92.5924 28.0914 93.0824 28.0653H93.8262C95.1162 28.0653 95.8343 27.7084 95.9074 26.9861L97.0555 15.7333C97.4709 14.7435 98.1061 13.8612 98.913 13.1533C99.5426 12.574 100.358 12.2385 101.213 12.2074C102.877 12.2074 103.63 13.0673 103.484 14.7873L102.667 23.185C102.637 23.5051 102.624 23.8266 102.628 24.1481C102.628 26.8972 103.978 28.2717 106.679 28.2717C107.328 28.2727 107.971 28.1334 108.562 27.8632C108.83 27.7598 109.067 27.5896 109.25 27.3688C109.433 27.1491 109.554 26.8851 109.603 26.6034C109.735 25.9824 109.81 25.3505 109.826 24.7157C109.835 24.4233 109.744 24.29 109.572 24.29Z" fill="#504B64"/>
<path d="M130.259 24.29C130.101 24.3085 129.945 24.3446 129.795 24.3975C129.562 24.4744 129.318 24.5136 129.073 24.5136C128.277 24.5136 127.933 24.0277 128.028 23.0646L130.285 1.18677C130.312 1.02018 130.288 0.849259 130.216 0.696588C130.144 0.543746 130.025 0.41747 129.877 0.335398C129.432 0.10968 128.934 0.00723568 128.436 0.0387063H127.705C126.39 0.0387063 125.697 0.382697 125.628 1.07928L124.648 9.88973C123.462 8.84629 121.928 8.28618 120.348 8.32028C118.677 8.29281 117.044 8.82395 115.709 9.82954C114.303 10.9239 113.225 12.3829 112.591 14.0477C111.813 16.0221 111.434 18.1308 111.473 20.2524C111.422 21.8064 111.734 23.351 112.385 24.763C112.899 25.8638 113.728 26.7872 114.767 27.416C115.773 27.9926 116.914 28.2895 118.074 28.276C119.137 28.2726 120.179 27.975 121.083 27.416C122.046 26.8282 122.844 26.0075 123.405 25.0296C123.49 25.9724 123.926 26.8489 124.627 27.4848C125.303 27.9259 126.079 28.1894 126.884 28.251C127.689 28.3127 128.496 28.1704 129.232 27.8374C129.498 27.7307 129.733 27.5593 129.915 27.3386C130.097 27.1193 130.22 26.8574 130.272 26.5776C130.405 25.9566 130.48 25.3247 130.496 24.6899C130.522 24.4233 130.431 24.29 130.259 24.29ZM123.534 20.8286C123.177 21.8484 122.58 22.7672 121.793 23.5075C121.218 24.0495 120.467 24.3656 119.677 24.3975C119.193 24.4349 118.707 24.357 118.258 24.1702C117.81 23.9833 117.412 23.6928 117.097 23.3226C116.526 22.6045 116.238 21.4736 116.238 19.9386C116.238 17.4876 116.656 15.5699 117.493 14.1853C117.874 13.5212 118.431 12.9752 119.102 12.608C119.774 12.2407 120.534 12.0663 121.298 12.1042C122.394 12.0805 123.462 12.4496 124.308 13.1447L123.534 20.8286Z" fill="#504B64"/>
<path d="M146.625 9.17596C145.318 8.54907 143.876 8.25371 142.428 8.31598C139.332 8.31598 136.868 9.34222 135.037 11.3947C133.205 13.4472 132.288 16.4069 132.285 20.2739C132.285 22.9743 133.047 24.9809 134.572 26.2938C136.097 27.6067 138.22 28.2631 140.94 28.2631C142.29 28.2484 143.63 28.0369 144.918 27.6353C146.277 27.2269 147.068 26.5862 147.296 25.7219C147.383 25.3363 147.446 24.9457 147.485 24.5523C147.532 24.0707 147.554 23.6408 147.554 23.2624C147.554 22.884 147.485 22.7894 147.27 22.7894C146.997 22.85 146.74 22.9688 146.517 23.1377C145.732 23.5104 144.927 23.8391 144.105 24.1223C143.272 24.3945 142.401 24.531 141.525 24.5265C140.109 24.5265 139.026 24.204 138.274 23.5591C137.518 22.9141 137.126 21.7617 137.096 20.0934C138.302 20.2694 139.52 20.3556 140.738 20.3513C142.173 20.3648 143.6 20.1321 144.956 19.6634C146.216 19.2428 147.334 18.4806 148.186 17.4618C149.056 16.3531 149.503 14.9703 149.446 13.5618C149.439 12.6436 149.174 11.7458 148.682 10.971C148.189 10.1962 147.488 9.5756 146.659 9.18026L146.625 9.17596ZM143.185 16.2665C141.997 16.7869 140.71 17.0408 139.414 17.0103H137.333C137.547 15.6779 138.126 14.4307 139.005 13.407C139.41 12.9678 139.904 12.6203 140.455 12.388C141.005 12.1563 141.599 12.0477 142.196 12.0698C142.867 12.0379 143.53 12.2267 144.084 12.6073C144.313 12.7842 144.497 13.0125 144.621 13.2737C144.743 13.5359 144.8 13.8234 144.789 14.1122C144.789 15.0525 144.256 15.7691 143.189 16.2622L143.185 16.2665Z" fill="#504B64"/>
<path d="M162.642 8.32027C160.922 8.32027 159.424 9.27341 158.148 11.1797C158.164 10.5943 158.071 10.0111 157.873 9.45974C157.809 9.259 157.683 9.0841 157.512 8.96095C157.343 8.83609 157.137 8.77103 156.927 8.77606C156.033 8.73622 155.137 8.82896 154.27 9.05125C153.715 9.23614 153.41 9.54144 153.41 9.96282C153.417 10.1858 153.436 10.4083 153.466 10.6293C153.508 11.0119 153.527 11.3968 153.522 11.7817C153.514 12.7132 153.452 13.6436 153.337 14.568L152.047 26.9345C152.021 27.0986 152.047 27.2665 152.12 27.4157C152.193 27.5648 152.31 27.688 152.455 27.7686C152.899 28.0089 153.401 28.1177 153.904 28.0825H154.644C155.96 28.0825 156.653 27.7113 156.725 26.9689L157.959 14.6196C158.377 13.9783 158.936 13.4414 159.593 13.0501C160.129 12.7153 160.745 12.5298 161.378 12.5127C161.763 12.5004 162.147 12.5632 162.508 12.6975C162.708 12.7889 162.919 12.8512 163.136 12.8824C163.386 12.8824 163.661 12.5299 163.996 11.8247C164.281 11.224 164.439 10.5712 164.461 9.90693C164.461 9.49507 164.308 9.09786 164.031 8.79326C163.852 8.62039 163.638 8.48836 163.403 8.40627C163.159 8.31958 162.899 8.29015 162.642 8.32027Z" fill="#504B64"/>
<path d="M173.52 16.5631L172.45 16.1331C171.92 15.9192 171.421 15.6389 170.962 15.299C170.74 15.1275 170.563 14.9042 170.446 14.6487C170.33 14.3931 170.278 14.1129 170.295 13.8327C170.282 13.5746 170.339 13.3176 170.459 13.0888C170.58 12.8614 170.76 12.67 170.979 12.5341C171.575 12.209 172.25 12.0599 172.927 12.1041C173.415 12.0951 173.903 12.1515 174.376 12.2718C174.741 12.374 175.098 12.5048 175.442 12.6631C175.64 12.7699 175.853 12.8454 176.074 12.8867C176.361 12.8867 176.727 12.5642 177.171 11.9192C177.52 11.4921 177.744 10.9775 177.82 10.4315C177.82 9.71341 177.266 9.18882 176.169 8.86203C175.018 8.51916 173.823 8.34961 172.622 8.35895C170.523 8.35895 168.803 8.89787 167.462 9.9757C166.12 11.0535 165.458 12.5943 165.475 14.5981C165.451 15.6994 165.818 16.7736 166.512 17.6295C167.307 18.5407 168.299 19.2584 169.414 19.7278C170.274 20.0976 170.88 20.3699 171.233 20.5448C171.592 20.7277 171.912 20.9789 172.174 21.2844C172.467 21.6257 172.621 22.0648 172.604 22.5142C172.618 22.813 172.551 23.1099 172.411 23.3741C172.273 23.64 172.063 23.8619 171.805 24.0148C171.135 24.3788 170.377 24.5499 169.616 24.5093C169.014 24.522 168.413 24.4408 167.836 24.2685C167.288 24.0799 166.755 23.8469 166.245 23.5719C165.99 23.4223 165.715 23.3094 165.428 23.2365C165.226 23.2365 165.054 23.4515 164.908 23.8858C164.739 24.4709 164.664 25.0789 164.684 25.6875C164.684 26.4557 165.257 27.0749 166.404 27.545C167.545 28.0165 168.768 28.2562 170.003 28.2502C172.233 28.2502 174.029 27.6568 175.391 26.47C176.752 25.2833 177.433 23.6608 177.433 21.6026C177.428 19.3351 176.123 17.6553 173.52 16.5631Z" fill="#504B64"/>
<path fill-rule="evenodd" clip-rule="evenodd" d="M189.529 24.3631C189.357 23.989 189.159 23.8041 188.936 23.8041C188.767 23.8127 188.6 23.8387 188.437 23.8815C188.273 23.9251 188.104 23.9496 187.934 23.9546C187.746 23.9725 187.557 23.949 187.379 23.8858C187.204 23.8203 187.045 23.716 186.915 23.5805C186.677 23.2203 186.571 22.789 186.614 22.3594V1.18677C186.614 0.395589 185.866 0 184.369 0H183.333C181.845 0 181.106 0.395589 181.106 1.18677V22.282C181.106 26.2952 182.912 28.3018 186.524 28.3018C188.897 28.3018 190.085 27.6955 190.088 26.483C190.066 26.1808 190.016 25.8814 189.938 25.5886C189.847 25.1662 189.71 24.7552 189.529 24.3631ZM207.228 24.0793C207.167 23.486 207.133 22.6174 207.133 21.4994V14.4863C207.133 12.5514 206.505 11.0349 205.25 9.93703C203.994 8.83912 201.962 8.2873 199.152 8.28157C197.941 8.27315 196.733 8.39715 195.549 8.65136C194.641 8.82546 193.768 9.1526 192.969 9.61883C192.337 10.0144 192.032 10.4229 192.04 10.8443C192.073 11.2403 192.188 11.6252 192.376 11.9752C192.579 12.4368 192.84 12.8704 193.154 13.2651C193.451 13.6349 193.722 13.8198 193.971 13.8198C194.269 13.7394 194.557 13.6269 194.831 13.4844C195.384 13.2483 195.953 13.0528 196.534 12.8996C197.251 12.7159 197.99 12.6277 198.731 12.6374C199.746 12.6374 200.485 12.8136 200.933 13.1576C201.168 13.3484 201.354 13.5933 201.474 13.8714C201.592 14.1421 201.642 14.4371 201.621 14.7314V15.9612C197.412 15.9612 194.583 16.6162 193.133 17.9262C192.432 18.5414 191.875 19.3025 191.5 20.156C191.125 21.0095 190.941 21.9347 190.961 22.8668C190.891 24.2981 191.361 25.7036 192.277 26.8055C193.157 27.7944 194.556 28.2875 196.474 28.2846C197.408 28.3029 198.335 28.1119 199.187 27.7256C199.867 27.4272 200.494 27.0206 201.044 26.5217C201.389 26.209 201.688 25.8501 201.934 25.4553C201.96 25.6015 202.016 25.8853 202.102 26.3153C202.179 26.7226 202.308 27.1185 202.485 27.4934C202.563 27.6752 202.699 27.8262 202.872 27.9234C203.039 28.0207 203.234 28.0629 203.426 28.0438C204.32 28.0255 205.21 27.9204 206.084 27.7299C207.086 27.5364 207.589 27.2354 207.589 26.8399C207.58 26.5641 207.541 26.2901 207.473 26.0229C207.369 25.3177 207.288 24.6598 207.228 24.0793ZM201.638 21.6284C201.34 22.2984 200.866 22.875 200.266 23.2968C199.699 23.727 199.008 23.9623 198.297 23.9675C197.8 24.0046 197.308 23.8508 196.921 23.5375C196.761 23.3868 196.635 23.2035 196.551 23.0001C196.467 22.7958 196.429 22.5757 196.439 22.3551C196.439 20.5233 198.172 19.6075 201.638 19.6075V21.6284ZM219.138 8.29877C221.615 8.29877 223.54 9.19601 224.913 10.9905C226.286 12.785 226.973 15.2216 226.973 18.3003C227.018 20.1489 226.716 21.9896 226.083 23.7267C225.602 25.0841 224.746 26.277 223.614 27.1666C222.58 27.939 221.32 28.35 220.028 28.3362C218.979 28.3409 217.949 28.0584 217.048 27.5192C216.214 27.0471 215.527 26.3536 215.062 25.5155C214.951 26.0667 214.773 26.6024 214.533 27.1108C214.399 27.4419 214.148 27.7126 213.828 27.8718C213.417 28.0289 212.978 28.0991 212.538 28.0782H212.108C210.623 28.0782 209.881 27.6812 209.881 26.8872V1.18677C209.849 0.395589 210.583 0 212.082 0H213.123C214.608 0 215.35 0.395589 215.35 1.18677V9.43394C216.455 8.65123 217.784 8.24699 219.138 8.28157V8.29877ZM215.35 21.6284C216.193 23.0932 217.208 23.8271 218.394 23.8299C220.401 23.8299 221.404 21.991 221.404 18.3132C221.404 14.5379 220.258 12.6517 217.964 12.6546C217.049 12.648 216.148 12.8807 215.35 13.3296V21.6284Z" fill="url(#paint0_radial_30_13)"/>
<path fill-rule="evenodd" clip-rule="evenodd" d="M24.8523 15.2345C25.8395 13.9286 26.7032 12.5337 27.4322 11.0679C29.1866 7.4603 29.2511 4.50198 27.6085 2.73903C25.966 0.976081 23.0334 0.825585 19.3269 2.30904C19.7088 2.63011 20.0156 3.03096 20.2258 3.48338C20.4361 3.9358 20.5446 4.42879 20.5438 4.92767C20.543 5.09164 20.5316 5.25539 20.5094 5.41786C23.0549 4.41169 24.6846 4.48478 25.1619 5.01367C25.6392 5.54255 25.6177 7.16361 24.4266 9.61884C23.9295 10.635 23.3545 11.6111 22.7066 12.5385C21.7442 11.4385 20.7252 10.3893 19.6537 9.39525C19.1936 8.96526 18.7336 8.56107 18.2649 8.15688C17.7472 8.34345 17.192 8.40179 16.6468 8.3269C16.1017 8.25202 15.5828 8.04614 15.1346 7.72689C14.6856 7.412 14.3197 6.99298 14.0682 6.50573C13.8144 6.01687 13.6816 5.4742 13.6812 4.92337V4.77288C12.3609 3.93305 10.9679 3.21351 9.51891 2.62294C5.77801 1.12228 2.82829 1.28997 1.18574 3.03572C-0.456815 4.78148 -0.388017 7.73979 1.36203 11.3689C2.03646 12.7233 2.82474 14.0179 3.71837 15.2388C2.93447 16.3396 2.23997 17.5014 1.64153 18.7131C-0.112825 22.325 -0.177323 25.279 1.46523 27.042C1.95902 27.5312 2.54946 27.9119 3.19878 28.16C3.84811 28.408 4.54204 28.5178 5.23623 28.4824C6.80549 28.4312 8.35135 28.0871 9.7941 27.4676C11.3184 26.8446 12.781 26.0802 14.1628 25.1844C15.6852 26.206 17.3074 27.0704 19.0044 27.7643C20.4519 28.3878 22.0042 28.7321 23.5795 28.7791C24.2744 28.8149 24.9691 28.7052 25.6191 28.4572C26.2692 28.2091 26.8604 27.8282 27.3548 27.3387C28.9931 25.5757 28.9243 22.6088 27.1785 19.0098C26.512 17.6874 25.7338 16.4244 24.8523 15.2345ZM3.61947 5.30606C3.99361 5.00938 4.46881 4.87052 4.94383 4.91907C6.09153 4.97563 7.21931 5.24082 8.27194 5.70165C9.3123 6.12718 10.3185 6.63174 11.2819 7.21091C10.5552 7.80429 9.8285 8.42777 9.13192 9.09856C7.97684 10.1683 6.88158 11.3009 5.85111 12.4912C5.29299 11.6662 4.79162 10.8042 4.35045 9.91123C3.16368 7.4646 3.14218 5.83065 3.61947 5.30606ZM11.8623 24.5738C11.0953 24.5777 10.3496 24.3216 9.7468 23.8471C9.31681 24.0449 8.93412 24.2212 8.54284 24.3803C6.02741 25.3908 4.38055 25.3091 3.89036 24.7759C3.40018 24.2427 3.46038 22.626 4.63424 20.1707C5.00878 19.4071 5.42803 18.6663 5.88981 17.952C6.69389 18.8636 7.54526 19.7537 8.46974 20.6222C8.56026 20.0435 8.79581 19.4971 9.15445 19.034C9.51309 18.5708 9.98313 18.206 10.5208 17.9735C9.61491 17.0958 8.75384 16.173 7.94085 15.2087C9.01875 13.9044 10.1823 12.6734 11.4238 11.5237C12.3396 10.6637 13.277 9.87683 14.2144 9.15445C15.3241 9.98776 16.3891 10.8791 17.4049 11.8247C18.5488 12.8861 19.6285 14.0147 20.6384 15.2044C19.7079 16.2731 18.7219 17.2921 17.6844 18.2573C16.876 19.0055 16.0576 19.7064 15.2291 20.3599C15.3455 20.8637 15.3468 21.3871 15.2329 21.8914C15.1191 22.3957 14.893 22.8678 14.5716 23.2727C14.2502 23.6776 13.8416 24.0049 13.3763 24.2301C12.9109 24.4554 12.4008 24.5729 11.8838 24.5738H11.8623ZM24.8867 25.0769C24.3965 25.6058 22.7668 25.6918 20.2342 24.677C19.1465 24.2381 18.0954 23.7133 17.091 23.1076C18.0327 22.3594 18.9958 21.5553 19.9203 20.6996C20.8448 19.844 21.808 18.8593 22.6507 17.9133C23.2067 18.7381 23.7052 19.6001 24.1428 20.4932C25.3425 22.9184 25.3683 24.548 24.8867 25.0769ZM17.0996 6.69492C17.4513 6.69316 17.7946 6.58726 18.0861 6.39058C18.3777 6.19391 18.6045 5.91528 18.7379 5.58985C18.8711 5.26576 18.9054 4.90949 18.8366 4.56591C18.7678 4.22233 18.5988 3.90679 18.3511 3.65902C18.1033 3.41124 17.7877 3.24231 17.4442 3.17348C17.1006 3.10465 16.7443 3.139 16.4202 3.27222C16.0975 3.40871 15.8212 3.63571 15.6247 3.9258C15.4316 4.21791 15.3284 4.56028 15.328 4.91047C15.328 5.38071 15.5146 5.83176 15.8467 6.16467C16.1788 6.49758 16.6294 6.68518 17.0996 6.68632V6.69492ZM10.9035 19.6462C11.1956 19.453 11.538 19.3498 11.8881 19.3495C12.3584 19.3495 12.8094 19.536 13.1423 19.8681C13.4753 20.2002 13.6629 20.6508 13.664 21.121C13.6631 21.3831 13.6044 21.6417 13.492 21.8785C13.3796 22.1152 13.2163 22.3242 13.0138 22.4906C12.8113 22.6569 12.5746 22.7765 12.3206 22.8408C12.0665 22.9051 11.8014 22.9125 11.5442 22.8625C11.2876 22.8106 11.0457 22.7026 10.8357 22.5462C10.6258 22.3899 10.453 22.1891 10.3297 21.9582C10.2065 21.7273 10.1358 21.4719 10.1227 21.2105C10.1097 20.9491 10.1546 20.688 10.2542 20.4459C10.3897 20.1227 10.615 19.8452 10.9035 19.6462Z" fill="url(#paint1_radial_30_13)"/>
<defs>
<radialGradient id="paint0_radial_30_13" cx="0" cy="0" r="1" gradientUnits="userSpaceOnUse" gradientTransform="translate(182.948 31.8729) rotate(-30.3791) scale(46.615)">
<stop offset="0.03" stop-color="#FCEA8E"/>
<stop offset="0.33" stop-color="#F6C17A"/>
<stop offset="0.56" stop-color="#F5B3A3"/>
<stop offset="0.71" stop-color="#F6AEB7"/>
<stop offset="0.8" stop-color="#EFAFBE"/>
<stop offset="0.93" stop-color="#DCB3CC"/>
<stop offset="1" stop-color="#CEB5D7"/>
</radialGradient>
<radialGradient id="paint1_radial_30_13" cx="0" cy="0" r="1" gradientUnits="userSpaceOnUse" gradientTransform="translate(0.0993323 11.2284) rotate(46.8263) scale(31.7926)">
<stop stop-color="#FCEA8E"/>
<stop offset="0.36" stop-color="#F6C17A"/>
<stop offset="0.58" stop-color="#F5B3A3"/>
<stop offset="0.72" stop-color="#F6AEB7"/>
<stop offset="0.81" stop-color="#EFAFBE"/>
<stop offset="0.94" stop-color="#DCB3CC"/>
<stop offset="1" stop-color="#CEB5D7"/>
</radialGradient>
</defs>
</svg>
