<svg width="292" height="39" viewBox="0 0 292 39" fill="none" xmlns="http://www.w3.org/2000/svg">
<path d="M63.757 2.67847H48.0359C47.5442 2.63664 47.0561 2.79502 46.6752 3.12002C46.3372 3.49951 46.141 3.99164 46.122 4.50777L42.9081 35.9556C42.8417 36.9534 43.6493 37.4466 45.3365 37.4466H46.5756C48.2351 37.4466 49.1589 36.9649 49.2474 36.0073L50.5584 23.3914H61.3175C62.2745 23.3914 62.8166 22.5484 62.9383 20.9141L62.9826 20.2718L63.0323 19.578C63.0323 18.4311 62.6507 17.8576 61.8873 17.8576H51.0839L52.0907 8.25238H63.154C64.1129 8.25238 64.6513 7.41323 64.7693 5.73494L64.8191 5.1615L64.8689 4.46762C64.8965 3.25765 64.5204 2.67847 63.757 2.67847Z" fill="white"/>
<path d="M77.6136 11.0967C73.1883 11.0967 69.9781 12.5495 67.983 15.4549C65.9879 18.3604 64.9922 22.0744 64.9959 26.597C64.9959 30.1333 65.9178 32.8667 67.7617 34.7973C69.6056 36.7279 72.2092 37.6932 75.5724 37.6932C79.5553 37.6932 82.6364 36.3724 84.8159 33.7307C86.9954 31.089 88.087 27.2527 88.0907 22.2216C88.0907 18.6892 87.1835 15.95 85.3691 14.0041C83.5547 12.0582 80.9695 11.0891 77.6136 11.0967ZM75.9929 32.687C75.309 32.7268 74.626 32.5948 74.002 32.3023C73.3779 32.0098 72.8312 31.5653 72.4083 31.0068C71.5823 29.8905 71.1692 28.3135 71.1692 26.2759C71.1692 22.9461 71.6634 20.4133 72.6517 18.6777C73.085 17.8619 73.7279 17.1867 74.5092 16.7271C75.2904 16.2675 76.1793 16.0415 77.0771 16.0742C77.7628 16.0306 78.4483 16.1632 79.0727 16.4604C79.697 16.7575 80.241 17.2099 80.6561 17.7774C81.4692 18.9243 81.873 20.4841 81.873 22.5542C81.8693 29.3094 79.9074 32.687 75.9873 32.687H75.9929Z" fill="white"/>
<path d="M114.505 32.3937C114.316 32.4207 114.13 32.4687 113.951 32.5371C113.659 32.64 113.353 32.6923 113.044 32.6919C112.026 32.6919 111.578 32.0439 111.706 30.7594L113.476 12.7245C113.488 12.5238 113.442 12.3238 113.343 12.151C113.242 11.9686 113.089 11.8225 112.906 11.7324C112.325 11.4467 111.684 11.3184 111.042 11.3597H110.079C108.387 11.3597 107.501 11.8414 107.402 12.7933L105.847 27.8692C105.358 29.2026 104.551 30.3861 103.502 31.3099C102.678 32.0491 101.632 32.4687 100.543 32.4969C98.6028 32.4969 97.6329 31.5718 97.6329 29.7215L97.6772 29.0792L99.2537 12.7302C99.2869 12.5242 99.2539 12.3127 99.1596 12.1281C99.065 11.9438 98.9129 11.7983 98.7282 11.7152C98.1481 11.4268 97.506 11.2984 96.864 11.3425H95.9126C94.2199 11.3425 93.3274 11.8203 93.2352 12.7761L91.5757 30.358C91.537 30.7868 91.5204 31.2175 91.5259 31.6482C91.5259 33.7318 92.0514 35.261 93.1025 36.2358C94.1535 37.2107 95.7134 37.7 97.7823 37.7038C99.2891 37.6889 100.768 37.2785 102.08 36.5111C103.465 35.7213 104.681 34.6483 105.654 33.3571C105.758 34.6333 106.34 35.8166 107.275 36.6544C108.149 37.2276 109.146 37.5702 110.178 37.6521C111.209 37.7341 112.245 37.553 113.194 37.1247C113.54 36.9813 113.847 36.753 114.09 36.4595C114.332 36.1683 114.501 35.8197 114.582 35.4445C114.753 34.6163 114.849 33.7736 114.87 32.927C114.875 32.5715 114.748 32.3937 114.505 32.3937Z" fill="white"/>
<path d="M140.963 32.3945C140.759 32.4192 140.558 32.4673 140.365 32.5379C140.065 32.6408 139.752 32.6931 139.436 32.6927C138.412 32.6927 137.97 32.0447 138.097 30.7602L139.242 18.4253C139.281 18.031 139.297 17.6346 139.292 17.2383C139.292 13.1439 137.205 11.0967 133.03 11.0967C131.521 11.1066 130.038 11.5004 128.71 12.2436C127.339 12.9832 126.14 14.0244 125.197 15.2943C125.197 12.8858 124.72 11.6816 123.765 11.6816C122.683 11.6595 121.604 11.8005 120.562 12.1002C119.638 12.3812 119.179 12.7654 119.179 13.2471C119.173 13.5614 119.19 13.8758 119.229 14.1876C119.269 14.6661 119.284 15.1466 119.273 15.6269C119.237 17.1228 119.126 18.6158 118.941 20.0998L117.359 36.0359C117.353 36.2373 117.403 36.4362 117.503 36.6094C117.605 36.7841 117.755 36.9237 117.934 37.0108C118.491 37.3194 119.118 37.4642 119.749 37.4294H120.705C122.365 37.4294 123.289 36.9534 123.383 35.99L124.86 20.9829C125.394 19.6629 126.211 18.4863 127.249 17.5422C128.059 16.7696 129.109 16.3222 130.209 16.2806C132.35 16.2806 133.318 17.4275 133.13 19.7213L132.079 30.9208C132.04 31.3477 132.023 31.7765 132.029 32.2053C132.029 35.8715 133.766 37.7046 137.24 37.7046C138.076 37.7059 138.902 37.5201 139.663 37.1599C140.007 37.022 140.312 36.7949 140.548 36.5004C140.783 36.2074 140.939 35.8553 141.001 35.4797C141.172 34.6515 141.268 33.8088 141.289 32.9622C141.3 32.5723 141.184 32.3945 140.963 32.3945Z" fill="white"/>
<path d="M167.576 32.3938C167.372 32.4185 167.172 32.4666 166.978 32.5372C166.678 32.6396 166.365 32.6919 166.049 32.692C165.026 32.692 164.583 32.044 164.705 30.7595L167.609 1.58247C167.644 1.3603 167.613 1.13235 167.52 0.92874C167.427 0.724904 167.274 0.556499 167.083 0.447045C166.511 0.146019 165.871 0.0093956 165.23 0.0513659H164.29C162.597 0.0513659 161.707 0.510124 161.618 1.43911L160.357 13.189C158.831 11.7975 156.857 11.0505 154.825 11.096C152.675 11.0593 150.574 11.7677 148.856 13.1088C147.048 14.5683 145.661 16.5141 144.846 18.7343C143.845 21.3674 143.357 24.1796 143.408 27.0091C143.341 29.0816 143.743 31.1415 144.58 33.0246C145.241 34.4926 146.308 35.7241 147.645 36.5628C148.939 37.3316 150.408 37.7276 151.899 37.7097C153.267 37.7051 154.607 37.3082 155.771 36.5628C157.009 35.7788 158.036 34.6842 158.758 33.3801C158.866 34.6374 159.427 35.8064 160.329 36.6545C161.199 37.2427 162.198 37.5941 163.233 37.6763C164.269 37.7585 165.307 37.5688 166.254 37.1247C166.596 36.9824 166.898 36.7538 167.133 36.4595C167.367 36.167 167.525 35.8177 167.592 35.4445C167.763 34.6164 167.859 33.7737 167.88 32.9271C167.913 32.5716 167.797 32.3938 167.576 32.3938ZM158.924 27.7775C158.465 29.1375 157.696 30.3628 156.684 31.3501C155.944 32.073 154.978 32.4946 153.962 32.5372C153.339 32.587 152.713 32.4831 152.136 32.2339C151.559 31.9847 151.048 31.5974 150.643 31.1035C149.907 30.1459 149.537 28.6377 149.537 26.5905C149.537 23.3219 150.075 20.7643 151.152 18.9178C151.642 18.0321 152.358 17.304 153.222 16.8142C154.086 16.3243 155.064 16.0918 156.048 16.1423C157.457 16.1107 158.83 16.603 159.92 17.53L158.924 27.7775Z" fill="white"/>
<path d="M188.629 12.2378C186.948 11.4018 185.094 11.0079 183.23 11.0909C179.248 11.0909 176.078 12.4596 173.721 15.1968C171.365 17.9341 170.185 21.8813 170.181 27.0385C170.181 30.6398 171.162 33.3159 173.124 35.0668C175.086 36.8177 177.817 37.6932 181.316 37.6932C183.052 37.6736 184.776 37.3915 186.433 36.856C188.181 36.3112 189.199 35.4567 189.492 34.3041C189.604 33.7899 189.686 33.269 189.736 32.7443C189.797 32.1021 189.824 31.5286 189.824 31.024C189.824 30.5194 189.736 30.3932 189.459 30.3932C189.108 30.474 188.778 30.6325 188.491 30.8577C187.481 31.3547 186.445 31.7931 185.388 32.1709C184.316 32.5339 183.196 32.7159 182.069 32.7099C180.247 32.7099 178.853 32.2798 177.887 31.4197C176.913 30.5595 176.41 29.0227 176.371 26.7977C177.923 27.0324 179.489 27.1475 181.056 27.1418C182.903 27.1597 184.738 26.8493 186.483 26.2242C188.103 25.6634 189.542 24.6469 190.637 23.2882C191.757 21.8095 192.332 19.9654 192.258 18.087C192.25 16.8625 191.909 15.6651 191.275 14.6318C190.641 13.5984 189.74 12.7708 188.674 12.2436L188.629 12.2378ZM184.204 21.694C182.676 22.3881 181.02 22.7267 179.353 22.6861H176.675C176.951 20.909 177.696 19.2458 178.827 17.8806C179.348 17.2948 179.984 16.8314 180.691 16.5215C181.399 16.2125 182.164 16.0677 182.932 16.0971C183.795 16.0546 184.648 16.3064 185.36 16.814C185.655 17.0499 185.892 17.3544 186.052 17.7028C186.208 18.0525 186.282 18.4358 186.267 18.821C186.267 20.075 185.581 21.0307 184.21 21.6883L184.204 21.694Z" fill="white"/>
<path d="M209.235 11.0963C207.022 11.0963 205.095 12.3675 203.454 14.9098C203.474 14.129 203.354 13.3513 203.1 12.616C203.018 12.3483 202.855 12.115 202.635 11.9508C202.418 11.7843 202.153 11.6975 201.883 11.7042C200.732 11.6511 199.58 11.7747 198.464 12.0712C197.751 12.3178 197.358 12.7249 197.358 13.2869C197.367 13.5843 197.391 13.881 197.43 14.1758C197.484 14.686 197.508 15.1993 197.502 15.7126C197.492 16.955 197.412 18.1957 197.264 19.4285L195.604 35.9209C195.572 36.1398 195.605 36.3637 195.699 36.5626C195.793 36.7615 195.943 36.9258 196.13 37.0334C196.7 37.3537 197.347 37.499 197.994 37.452H198.946C200.638 37.452 201.531 36.9569 201.623 35.9668L203.211 19.4973C203.748 18.6421 204.467 17.9261 205.313 17.4043C206.003 16.9578 206.795 16.7103 207.608 16.6875C208.104 16.6712 208.598 16.7549 209.063 16.934C209.32 17.0559 209.591 17.1389 209.871 17.1806C210.192 17.1806 210.546 16.7104 210.977 15.7699C211.343 14.9688 211.546 14.0983 211.574 13.2124C211.575 12.6631 211.378 12.1334 211.021 11.7271C210.791 11.4966 210.516 11.3205 210.214 11.211C209.9 11.0954 209.565 11.0562 209.235 11.0963Z" fill="white"/>
<path d="M223.23 22.0893L221.852 21.5159C221.171 21.2306 220.528 20.8568 219.938 20.4034C219.652 20.1748 219.425 19.877 219.275 19.5361C219.126 19.1953 219.059 18.8217 219.081 18.4479C219.064 18.1037 219.136 17.761 219.291 17.4559C219.448 17.1526 219.679 16.8974 219.96 16.7161C220.726 16.2826 221.596 16.0837 222.466 16.1427C223.095 16.1307 223.722 16.2059 224.331 16.3663C224.8 16.5025 225.259 16.677 225.702 16.8882C225.957 17.0306 226.231 17.1312 226.516 17.1864C226.884 17.1864 227.355 16.7563 227.926 15.8961C228.375 15.3265 228.663 14.6402 228.761 13.912C228.761 12.9543 228.048 12.2547 226.637 11.8189C225.157 11.3616 223.618 11.1355 222.074 11.1479C219.374 11.1479 217.161 11.8667 215.436 13.3041C213.71 14.7416 212.858 16.7964 212.88 19.4687C212.849 20.9374 213.321 22.37 214.213 23.5115C215.236 24.7267 216.513 25.6838 217.947 26.3099C219.053 26.8031 219.833 27.1663 220.287 27.3995C220.749 27.6434 221.16 27.9784 221.498 28.3858C221.875 28.841 222.073 29.4265 222.051 30.0258C222.069 30.4243 221.983 30.8204 221.803 31.1727C221.624 31.5273 221.354 31.8233 221.023 32.0272C220.161 32.5126 219.186 32.7408 218.207 32.6866C217.432 32.7036 216.659 32.5953 215.917 32.3655C215.211 32.114 214.527 31.8033 213.87 31.4365C213.542 31.237 213.188 31.0864 212.819 30.9892C212.559 30.9892 212.338 31.276 212.15 31.8551C211.933 32.6355 211.836 33.4463 211.862 34.2579C211.862 35.2825 212.6 36.1082 214.075 36.7352C215.543 37.364 217.117 37.6837 218.705 37.6756C221.574 37.6756 223.884 36.8843 225.636 35.3016C227.388 33.7189 228.264 31.555 228.264 28.8101C228.256 25.7862 226.578 23.5459 223.23 22.0893Z" fill="white"/>
<path fill-rule="evenodd" clip-rule="evenodd" d="M243.824 32.4915C243.603 31.9926 243.349 31.7461 243.061 31.7461C242.844 31.7575 242.629 31.7921 242.419 31.8493C242.208 31.9073 241.991 31.94 241.772 31.9468C241.531 31.9706 241.287 31.9393 241.059 31.855C240.832 31.7676 240.628 31.6284 240.461 31.4479C240.155 30.9674 240.018 30.3922 240.074 29.8193V1.58272C240.074 0.527572 239.111 0 237.186 0H235.853C233.939 0 232.988 0.527572 232.988 1.58272V29.7161C232.988 35.0682 235.311 37.7443 239.958 37.7443C243.011 37.7443 244.54 36.9358 244.543 35.3186C244.515 34.9157 244.45 34.5163 244.35 34.1259C244.234 33.5626 244.057 33.0144 243.824 32.4915ZM266.593 32.1131C266.515 31.3217 266.471 30.1633 266.471 28.6724V19.3194C266.471 16.7389 265.663 14.7166 264.048 13.2524C262.433 11.7882 259.818 11.0522 256.204 11.0446C254.646 11.0334 253.092 11.1987 251.569 11.5378C250.4 11.77 249.278 12.2062 248.25 12.828C247.437 13.3556 247.044 13.9004 247.055 14.4623C247.097 14.9904 247.244 15.5038 247.486 15.9705C247.747 16.5862 248.084 17.1645 248.488 17.6909C248.869 18.184 249.218 18.4306 249.539 18.4306C249.922 18.3233 250.293 18.1734 250.645 17.9833C251.356 17.6684 252.088 17.4077 252.835 17.2034C253.759 16.9584 254.709 16.8408 255.662 16.8536C256.968 16.8536 257.919 17.0887 258.494 17.5475C258.797 17.8019 259.037 18.1285 259.191 18.4994C259.342 18.8604 259.407 19.2539 259.379 19.6463V21.2864C253.966 21.2864 250.326 22.1599 248.46 23.907C247.559 24.7275 246.842 25.7425 246.359 26.8807C245.877 28.019 245.64 29.2529 245.666 30.4959C245.576 32.4048 246.18 34.2792 247.359 35.7487C248.491 37.0677 250.291 37.7252 252.758 37.7214C253.961 37.7458 255.153 37.4911 256.249 36.9759C257.123 36.5779 257.93 36.0357 258.638 35.3702C259.081 34.9533 259.467 34.4747 259.783 33.9481C259.816 34.1431 259.888 34.5215 259.999 35.095C260.098 35.6382 260.264 36.1662 260.491 36.6662C260.592 36.9086 260.767 37.11 260.989 37.2397C261.205 37.3695 261.455 37.4256 261.703 37.4003C262.853 37.3758 263.998 37.2356 265.121 36.9816C266.41 36.7236 267.057 36.3222 267.057 35.7946C267.047 35.4268 266.996 35.0614 266.908 34.705C266.775 33.7646 266.67 32.8872 266.593 32.1131ZM259.402 28.8444C259.018 29.738 258.409 30.507 257.637 31.0694C256.908 31.6431 256.019 31.9569 255.103 31.964C254.465 32.0134 253.831 31.8083 253.333 31.3905C253.127 31.1894 252.965 30.9451 252.858 30.6737C252.75 30.4013 252.701 30.1077 252.714 29.8135C252.714 27.3707 254.943 26.1492 259.402 26.1492V28.8444ZM281.916 11.0675C285.102 11.0675 287.578 12.2641 289.345 14.6573C291.111 17.0505 291.994 20.3 291.994 24.4059C292.053 26.8713 291.665 29.3261 290.849 31.6428C290.231 33.453 289.13 35.044 287.674 36.2304C286.343 37.2605 284.722 37.8085 283.061 37.7902C281.711 37.7965 280.385 37.4197 279.227 36.7006C278.154 36.0709 277.27 35.1462 276.672 34.0284C276.529 34.7635 276.3 35.4779 275.991 36.1559C275.818 36.5975 275.496 36.9585 275.084 37.1709C274.555 37.3803 273.99 37.474 273.424 37.4461H272.871C270.961 37.4461 270.006 36.9166 270.006 35.8577V1.58272C269.965 0.527572 270.909 0 272.838 0H274.177C276.087 0 277.042 0.527572 277.042 1.58272V12.5814C278.464 11.5376 280.174 10.9985 281.916 11.0446V11.0675ZM277.042 28.8444C278.126 30.798 279.432 31.7766 280.959 31.7805C283.54 31.7805 284.831 29.328 284.831 24.4231C284.831 19.3883 283.356 16.8727 280.405 16.8766C279.228 16.8678 278.068 17.1782 277.042 17.7769V28.8444Z" fill="url(#paint0_radial_275_4876)"/>
<path fill-rule="evenodd" clip-rule="evenodd" d="M31.9718 20.3172C33.2418 18.5755 34.353 16.7153 35.2908 14.7604C37.5478 9.94922 37.6307 6.0039 35.5176 3.65276C33.4045 1.30163 29.6319 1.10092 24.8636 3.07932C25.3548 3.5075 25.7496 4.04209 26.02 4.64545C26.2905 5.24881 26.4301 5.90629 26.4291 6.57161C26.4281 6.79029 26.4133 7.00867 26.3848 7.22534C29.6596 5.88348 31.7561 5.98096 32.3701 6.6863C32.9841 7.39164 32.9565 9.55354 31.4242 12.8279C30.7847 14.1831 30.045 15.4849 29.2115 16.7216C27.9734 15.2547 26.6624 13.8555 25.284 12.5297C24.6921 11.9563 24.1002 11.4172 23.4973 10.8782C22.8313 11.127 22.117 11.2048 21.4157 11.105C20.7144 11.0051 20.0468 10.7305 19.4702 10.3048C18.8927 9.8848 18.422 9.32598 18.0984 8.67617C17.7718 8.0242 17.6011 7.30048 17.6005 6.56588V6.36517C15.902 5.24515 14.1099 4.28555 12.2458 3.49793C7.43326 1.4966 3.63853 1.72025 1.52542 4.04844C-0.587681 6.37664 -0.499174 10.322 1.75222 15.1619C2.61985 16.9681 3.63395 18.6946 4.78359 20.3229C3.77512 21.791 2.88167 23.3404 2.11178 24.9563C-0.145146 29.7733 -0.228121 33.7129 1.88498 36.064C2.52023 36.7164 3.27981 37.2243 4.11515 37.555C4.95049 37.8858 5.84322 38.0323 6.73627 37.9851C8.75509 37.9168 10.7438 37.4578 12.5999 36.6317C14.5609 35.8009 16.4425 34.7814 18.22 33.5867C20.1786 34.9492 22.2655 36.102 24.4487 37.0274C26.3109 37.8589 28.3078 38.3181 30.3344 38.3808C31.2284 38.4284 32.1221 38.2822 32.9584 37.9514C33.7947 37.6206 34.5552 37.1126 35.1913 36.4597C37.2988 34.1086 37.2103 30.1518 34.9645 25.352C34.107 23.5885 33.1059 21.904 31.9718 20.3172ZM4.65636 7.07625C5.13768 6.68058 5.74901 6.4954 6.36012 6.56014C7.83659 6.63557 9.28746 6.98924 10.6416 7.60382C11.98 8.17132 13.2745 8.84422 14.5138 9.61662C13.579 10.408 12.6441 11.2395 11.748 12.1341C10.262 13.5607 8.85298 15.0712 7.5273 16.6586C6.8093 15.5583 6.16429 14.4088 5.59674 13.2179C4.07 9.95495 4.04234 7.77585 4.65636 7.07625ZM15.2606 32.7724C14.2738 32.7776 13.3144 32.436 12.539 31.8033C11.9858 32.0671 11.4935 32.3022 10.9901 32.5144C7.7541 33.862 5.63547 33.753 5.00485 33.042C4.37424 32.3309 4.45168 30.1747 5.96183 26.9003C6.44366 25.8819 6.98301 24.8939 7.57709 23.9413C8.61151 25.1571 9.70679 26.3441 10.8961 27.5025C11.0126 26.7306 11.3156 26.0019 11.777 25.3843C12.2383 24.7666 12.843 24.2801 13.5347 23.97C12.3693 22.7995 11.2616 21.5688 10.2157 20.2827C11.6024 18.5433 13.0992 16.9015 14.6964 15.3683C15.8746 14.2214 17.0805 13.172 18.2864 12.2086C19.7141 13.3199 21.0842 14.5086 22.3909 15.7697C23.8625 17.1853 25.2516 18.6904 26.5508 20.277C25.3537 21.7023 24.0852 23.0613 22.7505 24.3485C21.7105 25.3463 20.6577 26.281 19.5919 27.1526C19.7416 27.8244 19.7432 28.5225 19.5968 29.1951C19.4503 29.8676 19.1595 30.4973 18.746 31.0373C18.3325 31.5773 17.8068 32.0137 17.2082 32.3141C16.6096 32.6145 15.9533 32.7712 15.2883 32.7724H15.2606ZM32.0161 33.4434C31.3855 34.1487 29.289 34.2634 26.0308 32.9101C24.6314 32.3248 23.2793 31.6248 21.9871 30.817C23.1986 29.8192 24.4377 28.7468 25.627 27.6057C26.8163 26.4645 28.0554 25.1513 29.1396 23.8897C29.8548 24.9897 30.4961 26.1393 31.0591 27.3304C32.6024 30.5647 32.6356 32.738 32.0161 33.4434ZM21.9982 8.92848C22.4506 8.92613 22.8923 8.7849 23.2674 8.52261C23.6424 8.26032 23.9342 7.88872 24.1058 7.45472C24.2771 7.02249 24.3213 6.54737 24.2328 6.08916C24.1442 5.63095 23.9269 5.21013 23.6082 4.87969C23.2894 4.54925 22.8835 4.32395 22.4415 4.23216C21.9995 4.14037 21.5411 4.18618 21.1242 4.36384C20.709 4.54587 20.3536 4.8486 20.1008 5.23548C19.8523 5.62504 19.7196 6.08165 19.7191 6.54868C19.7191 7.17581 19.9591 7.77733 20.3863 8.22132C20.8136 8.6653 21.3932 8.9155 21.9982 8.91701V8.92848ZM14.027 26.2007C14.4028 25.9431 14.8433 25.8056 15.2938 25.805C15.8987 25.805 16.479 26.0538 16.9073 26.4967C17.3356 26.9396 17.5769 27.5405 17.5784 28.1677C17.5772 28.5171 17.5017 28.8621 17.3571 29.1778C17.2125 29.4935 17.0025 29.7723 16.742 29.9941C16.4815 30.216 16.1769 30.3755 15.8501 30.4612C15.5233 30.5469 15.1822 30.5568 14.8513 30.4901C14.5212 30.4209 14.21 30.2769 13.9399 30.0684C13.6698 29.8599 13.4475 29.5921 13.2889 29.2841C13.1304 28.9761 13.0394 28.6357 13.0226 28.287C13.0058 27.9383 13.0636 27.5901 13.1917 27.2673C13.366 26.8363 13.6559 26.4661 14.027 26.2007Z" fill="url(#paint1_radial_275_4876)"/>
<defs>
<radialGradient id="paint0_radial_275_4876" cx="0" cy="0" r="1" gradientUnits="userSpaceOnUse" gradientTransform="translate(235.358 42.5068) rotate(-31.2869) scale(60.5388 61.5822)">
<stop offset="0.03" stop-color="#FCEA8E"/>
<stop offset="0.33" stop-color="#F6C17A"/>
<stop offset="0.56" stop-color="#F5B3A3"/>
<stop offset="0.71" stop-color="#F6AEB7"/>
<stop offset="0.8" stop-color="#EFAFBE"/>
<stop offset="0.93" stop-color="#DCB3CC"/>
<stop offset="1" stop-color="#CEB5D7"/>
</radialGradient>
<radialGradient id="paint1_radial_275_4876" cx="0" cy="0" r="1" gradientUnits="userSpaceOnUse" gradientTransform="translate(0.127788 14.9745) rotate(47.8543) scale(41.7045 41.5822)">
<stop stop-color="#FCEA8E"/>
<stop offset="0.36" stop-color="#F6C17A"/>
<stop offset="0.58" stop-color="#F5B3A3"/>
<stop offset="0.72" stop-color="#F6AEB7"/>
<stop offset="0.81" stop-color="#EFAFBE"/>
<stop offset="0.94" stop-color="#DCB3CC"/>
<stop offset="1" stop-color="#CEB5D7"/>
</radialGradient>
</defs>
</svg>
