<svg width="28" height="28" viewBox="0 0 28 28" fill="none" xmlns="http://www.w3.org/2000/svg">
<path fill-rule="evenodd" clip-rule="evenodd" d="M21.7149 14.127C22.4292 13.1822 23.0541 12.1729 23.5815 11.1124C24.8509 8.50215 24.8975 6.36171 23.7091 5.08615C22.5207 3.8106 20.3989 3.70171 17.7171 4.77504C17.9934 5.00734 18.2154 5.29737 18.3675 5.62471C18.5196 5.95205 18.5981 6.30875 18.5975 6.66971C18.597 6.78835 18.5887 6.90682 18.5727 7.02438C20.4144 6.29638 21.5935 6.34926 21.9389 6.73193C22.2842 7.1146 22.2687 8.28749 21.4069 10.0639C21.0472 10.7992 20.6312 11.5054 20.1624 12.1764C19.4661 11.3805 18.7288 10.6214 17.9535 9.90215C17.6207 9.59104 17.2878 9.2986 16.9487 9.00615C16.5741 9.14114 16.1724 9.18335 15.7779 9.12917C15.3835 9.07499 15.0081 8.92603 14.6838 8.69504C14.359 8.46721 14.0942 8.16403 13.9122 7.81149C13.7286 7.45778 13.6325 7.06514 13.6322 6.6666V6.55771C12.677 5.95007 11.6691 5.42946 10.6207 5.00215C7.91399 3.91637 5.77977 4.03771 4.59132 5.30082C3.40288 6.56393 3.45265 8.70438 4.71888 11.3302C5.20685 12.3101 5.77719 13.2468 6.42377 14.1302C5.85659 14.9266 5.3541 15.7672 4.9211 16.6439C3.65177 19.2573 3.6051 21.3946 4.79354 22.6702C5.15082 23.0241 5.57802 23.2996 6.04783 23.4791C6.51764 23.6585 7.01972 23.738 7.52199 23.7124C8.6574 23.6753 9.77588 23.4263 10.8198 22.9782C11.9227 22.5274 12.9809 21.9743 13.9807 21.3262C15.0822 22.0653 16.2559 22.6907 17.4838 23.1928C18.5311 23.6439 19.6542 23.893 20.794 23.927C21.2967 23.9529 21.7994 23.8736 22.2697 23.6941C22.7401 23.5147 23.1678 23.239 23.5255 22.8848C24.7109 21.6093 24.6611 19.4626 23.398 16.8586C22.9158 15.9018 22.3527 14.988 21.7149 14.127ZM6.35221 6.94349C6.62291 6.72883 6.96674 6.62836 7.31043 6.66349C8.14083 6.70441 8.95682 6.89628 9.71843 7.22971C10.4712 7.53759 11.1992 7.90266 11.8962 8.32171C11.3704 8.75104 10.8447 9.20215 10.3407 9.68749C9.50492 10.4615 8.71246 11.281 7.96688 12.1422C7.56306 11.5453 7.2003 10.9216 6.8811 10.2755C6.02243 8.50526 6.00688 7.32304 6.35221 6.94349ZM12.3162 20.8844C11.7612 20.8872 11.2217 20.7019 10.7855 20.3586C10.4744 20.5017 10.1975 20.6293 9.91443 20.7444C8.09443 21.4755 6.90288 21.4164 6.54821 21.0306C6.19354 20.6448 6.2371 19.475 7.08643 17.6986C7.35742 17.1461 7.66076 16.61 7.99488 16.0933C8.57665 16.7528 9.19265 17.3968 9.86154 18.0253C9.92704 17.6065 10.0975 17.2112 10.357 16.8761C10.6164 16.541 10.9565 16.277 11.3455 16.1088C10.6901 15.4738 10.0671 14.8061 9.47888 14.1084C10.2588 13.1647 11.1006 12.274 11.9989 11.4422C12.6615 10.8199 13.3398 10.2506 14.018 9.72793C14.8209 10.3309 15.5915 10.9758 16.3264 11.6599C17.1541 12.4279 17.9353 13.2445 18.666 14.1053C17.9928 14.8785 17.2793 15.6158 16.5287 16.3142C15.9438 16.8555 15.3516 17.3626 14.7522 17.8355C14.8364 18.1999 14.8373 18.5787 14.7549 18.9436C14.6726 19.3084 14.509 19.65 14.2764 19.943C14.0439 20.236 13.7483 20.4727 13.4116 20.6357C13.0749 20.7987 12.7058 20.8837 12.3318 20.8844H12.3162ZM21.7398 21.2484C21.3851 21.631 20.206 21.6933 18.3735 20.959C17.5865 20.6415 16.826 20.2618 16.0993 19.8235C16.7807 19.2822 17.4775 18.7004 18.1464 18.0813C18.8153 17.4622 19.5122 16.7497 20.122 16.0653C20.5242 16.662 20.8849 17.2857 21.2015 17.9319C22.0695 19.6866 22.0882 20.8657 21.7398 21.2484ZM16.1055 7.94837C16.36 7.9471 16.6084 7.87048 16.8193 7.72818C17.0303 7.58588 17.1944 7.38428 17.2909 7.14882C17.3873 6.91432 17.4121 6.65655 17.3623 6.40796C17.3125 6.15937 17.1903 5.93107 17.011 5.75179C16.8317 5.57252 16.6034 5.45029 16.3548 5.40049C16.1063 5.35069 15.8485 5.37555 15.614 5.47193C15.3805 5.57069 15.1806 5.73493 15.0384 5.94482C14.8987 6.15617 14.824 6.40389 14.8238 6.65726C14.8238 6.9975 14.9587 7.32385 15.199 7.56472C15.4393 7.80559 15.7653 7.94133 16.1055 7.94215V7.94837ZM11.6224 17.319C11.8338 17.1793 12.0815 17.1046 12.3349 17.1044C12.6751 17.1044 13.0015 17.2393 13.2423 17.4796C13.4832 17.7199 13.6189 18.0459 13.6198 18.3862C13.6191 18.5758 13.5766 18.7629 13.4953 18.9342C13.414 19.1055 13.2959 19.2567 13.1494 19.3771C13.0028 19.4974 12.8316 19.5839 12.6478 19.6305C12.4639 19.677 12.2721 19.6823 12.086 19.6462C11.9004 19.6086 11.7253 19.5305 11.5734 19.4173C11.4215 19.3042 11.2965 19.1589 11.2073 18.9919C11.1181 18.8248 11.067 18.6401 11.0575 18.4509C11.0481 18.2617 11.0806 18.0728 11.1527 17.8977C11.2507 17.6639 11.4137 17.463 11.6224 17.319Z" fill="url(#paint0_radial_275_3944)"/>
<defs>
<radialGradient id="paint0_radial_275_3944" cx="0" cy="0" r="1" gradientUnits="userSpaceOnUse" gradientTransform="translate(3.80527 11.2285) rotate(46.8263) scale(23.003)">
<stop stop-color="#FCEA8E"/>
<stop offset="0.583333" stop-color="#FEAABE"/>
<stop offset="1" stop-color="#E3AFF5"/>
</radialGradient>
</defs>
</svg>
