<svg width="21" height="11" viewBox="0 0 21 11" fill="none" xmlns="http://www.w3.org/2000/svg">
<path d="M20.5568 1.82126C20.5568 2.80845 19.7491 3.61615 18.7619 3.61615C18.607 3.61856 18.4527 3.59738 18.3042 3.55333L15.1093 6.73925C15.1542 6.88285 15.1721 7.04439 15.1721 7.20593C15.1721 8.19312 14.3644 9.00082 13.3772 9.00082C12.39 9.00082 11.5823 8.19312 11.5823 7.20593C11.5823 7.04439 11.6003 6.88285 11.6451 6.73925L9.35666 4.45077C9.21307 4.49564 9.05153 4.51359 8.88999 4.51359C8.72845 4.51359 8.56691 4.49564 8.42332 4.45077L4.33995 8.54312C4.38482 8.68671 4.40277 8.83928 4.40277 9.00082C4.40277 9.98801 3.59507 10.7957 2.60788 10.7957C1.62069 10.7957 0.812988 9.98801 0.812988 9.00082C0.812988 8.01363 1.62069 7.20593 2.60788 7.20593C2.76942 7.20593 2.92198 7.22388 3.06557 7.26875L7.15792 3.18537C7.11305 3.04178 7.0951 2.88024 7.0951 2.7187C7.0951 1.73151 7.9028 0.923812 8.88999 0.923812C9.87718 0.923812 10.6849 1.73151 10.6849 2.7187C10.6849 2.88024 10.6669 3.04178 10.6221 3.18537L12.9105 5.47386C13.0541 5.42899 13.2157 5.41104 13.3772 5.41104C13.5388 5.41104 13.7003 5.42899 13.8439 5.47386L17.0298 2.27895C16.9858 2.13046 16.9646 1.97613 16.967 1.82126C16.967 0.834068 17.7747 0.0263672 18.7619 0.0263672C19.7491 0.0263672 20.5568 0.834068 20.5568 1.82126Z" fill="white"/>
</svg>
