<svg width="14" height="14" viewBox="0 0 14 14" fill="none" xmlns="http://www.w3.org/2000/svg">
<path d="M12.8414 1.85005C11.7083 0.716872 9.86438 0.716638 8.73105 1.84942L6.93819 3.64306L7.76587 4.47058L9.55927 2.67679C10.2364 2.0008 11.3371 2.00104 12.0138 2.67773C12.6905 3.35442 12.6904 4.45576 12.0138 5.13268L9.32276 7.82352C8.99495 8.15141 8.55907 8.33198 8.0954 8.33198C7.63174 8.33198 7.19577 8.15141 6.86796 7.82352L6.04028 8.65112C6.58924 9.20008 7.31914 9.50245 8.09548 9.50245C8.87182 9.50245 9.60172 9.20008 10.1504 8.65112L12.8415 5.96028C13.9745 4.82687 13.9745 2.98299 12.8414 1.85005Z" fill="white" fill-opacity="0.4" stroke="white" stroke-opacity="0.4" stroke-width="0.390533"/>
<path d="M5.13261 12.0192C4.45568 12.6958 3.35442 12.6956 2.67766 12.0188C2.00089 11.3419 2.00089 10.2404 2.67758 9.56357L5.36826 6.87288C6.04519 6.19604 7.14652 6.19604 7.82329 6.87288L8.65105 6.04528C7.51772 4.91203 5.67383 4.91195 4.54066 6.04528L1.84982 8.73597C0.716877 9.86922 0.716877 11.7132 1.8499 12.8465C2.41664 13.4132 3.16091 13.6965 3.90533 13.6964C4.64944 13.6964 5.3937 13.4133 5.96013 12.8469L5.96029 12.8468L7.75377 11.0529L6.92601 10.2253L5.13261 12.0192Z" fill="white" fill-opacity="0.4" stroke="white" stroke-opacity="0.4" stroke-width="0.390533"/>
</svg>
