<svg width="37" height="58" viewBox="0 0 37 58" fill="none" xmlns="http://www.w3.org/2000/svg">
<path d="M18.6568 32.0002H17.8954V30.572C17.8954 28.6004 16.1903 27 14.0894 27C11.9885 27 10.2841 28.6004 10.2841 30.572V32.0002H9.5227C8.68136 32.0002 8 32.6392 8 33.4285V40.5717C8 41.361 8.68136 42 9.5227 42H18.6568C19.4981 42 20.1795 41.361 20.1795 40.5717V33.4285C20.1795 32.6392 19.4981 32.0002 18.6568 32.0002ZM14.0894 28.3577C15.3911 28.3577 16.4492 29.3501 16.4492 30.572V32.0002H11.806V30.572H11.7303C11.7303 29.3501 12.7877 28.3577 14.0894 28.3577ZM18.6568 40.5717H9.5227V33.4285H18.6568V40.5717ZM14.0894 38.4287C14.9307 38.4287 15.6121 37.7897 15.6121 37.0004C15.6121 36.2111 14.9307 35.5715 14.0894 35.5715C13.2488 35.5715 12.5674 36.2111 12.5674 37.0004C12.5674 37.7897 13.2488 38.4287 14.0894 38.4287Z" fill="#FDFCFC"/>
</svg>
