<svg width="39" height="35" viewBox="0 0 39 35" fill="none" xmlns="http://www.w3.org/2000/svg">
<path fill-rule="evenodd" clip-rule="evenodd" d="M11.5826 31.7562L16.4529 33.0607V31.3549L16.8505 30.9535H19.6334V32.9603V34.365H16.6517L12.9741 32.7596L11.5826 31.7562Z" fill="#CDBDB2"/>
<path fill-rule="evenodd" clip-rule="evenodd" d="M27.4852 31.7562L22.7144 33.0607V31.3549L22.3169 30.9535H19.5339V32.9603V34.365H22.5157L26.1931 32.7596L27.4852 31.7562Z" fill="#CDBDB2"/>
<path fill-rule="evenodd" clip-rule="evenodd" d="M16.8504 28.0439L16.4529 31.355L16.9497 30.9536H22.1181L22.7144 31.355L22.3169 28.0439L21.5217 27.5422L17.5461 27.6426L16.8504 28.0439Z" fill="#393939"/>
<path fill-rule="evenodd" clip-rule="evenodd" d="M14.1665 5.6684L16.5519 11.2873L17.6453 27.6425H21.5215L22.7141 11.2873L24.9008 5.6684H14.1665Z" fill="#F89C35"/>
<path fill-rule="evenodd" clip-rule="evenodd" d="M3.73071 18.0102L0.947754 26.1374L7.90514 25.7361H12.3777V22.2244L12.1789 15L11.185 15.8027L3.73071 18.0102Z" fill="#F89D35"/>
<path fill-rule="evenodd" clip-rule="evenodd" d="M8.99817 18.913L17.1483 19.1137L16.2538 23.3279L12.3775 22.3245L8.99817 18.913Z" fill="#D87C30"/>
<path fill-rule="evenodd" clip-rule="evenodd" d="M8.99817 19.0135L12.3775 22.2243V25.4351L8.99817 19.0135Z" fill="#EA8D3A"/>
<path fill-rule="evenodd" clip-rule="evenodd" d="M12.3777 22.3246L16.3533 23.3279L17.6455 27.6426L16.7509 28.1442L12.3777 25.5354V22.3246Z" fill="#F89D35"/>
<path fill-rule="evenodd" clip-rule="evenodd" d="M12.3778 25.5354L11.5826 31.7563L16.8505 28.0439L12.3778 25.5354Z" fill="#EB8F35"/>
<path fill-rule="evenodd" clip-rule="evenodd" d="M17.1486 19.1138L17.6456 27.6426L16.1547 23.2778L17.1486 19.1138Z" fill="#EA8E3A"/>
<path fill-rule="evenodd" clip-rule="evenodd" d="M7.80554 25.6358L12.3775 25.5354L11.5824 31.7563L7.80554 25.6358Z" fill="#D87C30"/>
<path fill-rule="evenodd" clip-rule="evenodd" d="M3.13436 34.4655L11.5825 31.7563L7.80566 25.6358L0.947754 26.1374L3.13436 34.4655Z" fill="#EB8F35"/>
<path fill-rule="evenodd" clip-rule="evenodd" d="M16.5519 11.2873L12.2782 14.8995L8.99817 18.913L17.1483 19.2141L16.5519 11.2873Z" fill="#E8821E"/>
<path fill-rule="evenodd" clip-rule="evenodd" d="M11.5826 31.7563L16.8505 28.0439L16.4529 31.2547V33.0608L12.8748 32.3584L11.5826 31.7563Z" fill="#DFCEC3"/>
<path fill-rule="evenodd" clip-rule="evenodd" d="M27.4852 31.7563L22.3169 28.0439L22.7144 31.2547V33.0608L26.2925 32.3584L27.4852 31.7563Z" fill="#DFCEC3"/>
<path fill-rule="evenodd" clip-rule="evenodd" d="M14.9619 20.9198L16.0553 23.2277L12.1789 22.2243L14.9619 20.9198Z" fill="#393939"/>
<path fill-rule="evenodd" clip-rule="evenodd" d="M3.03467 0.952736L16.5519 11.2874L14.266 5.66852L3.03467 0.952736Z" fill="#E88F35"/>
<path fill-rule="evenodd" clip-rule="evenodd" d="M3.03489 0.952583L1.24585 6.47116L2.23976 12.4914L1.54402 12.8928L2.53794 13.7958L1.74281 14.4982L2.83611 15.5016L2.14037 16.1036L3.73063 18.1104L11.185 15.8026C14.8293 12.8593 16.6184 11.3543 16.5521 11.2874C16.4858 11.2205 11.9801 7.77556 3.03489 0.952583Z" fill="#8E5A30"/>
<path fill-rule="evenodd" clip-rule="evenodd" d="M35.3373 18.0102L38.1202 26.1375L31.1628 25.7361H26.6903V22.2244L26.8891 15L27.883 15.8027L35.3373 18.0102Z" fill="#F89D35"/>
<path fill-rule="evenodd" clip-rule="evenodd" d="M30.0698 18.913L21.9198 19.1137L22.8142 23.3279L26.6905 22.3245L30.0698 18.913Z" fill="#D87C30"/>
<path fill-rule="evenodd" clip-rule="evenodd" d="M30.0698 19.0135L26.6905 22.2243V25.4351L30.0698 19.0135Z" fill="#EA8D3A"/>
<path fill-rule="evenodd" clip-rule="evenodd" d="M26.6903 22.3246L22.7147 23.328L21.4225 27.6426L22.3171 28.1442L26.6903 25.5354V22.3246Z" fill="#F89D35"/>
<path fill-rule="evenodd" clip-rule="evenodd" d="M26.6902 25.5354L27.4854 31.7563L22.317 28.1442L26.6902 25.5354Z" fill="#EB8F35"/>
<path fill-rule="evenodd" clip-rule="evenodd" d="M21.9194 19.1138L21.4224 27.6426L22.9133 23.2778L21.9194 19.1138Z" fill="#EA8E3A"/>
<path fill-rule="evenodd" clip-rule="evenodd" d="M31.2625 25.6358L26.6905 25.5354L27.4856 31.7563L31.2625 25.6358Z" fill="#D87C30"/>
<path fill-rule="evenodd" clip-rule="evenodd" d="M35.9336 34.4655L27.4855 31.7563L31.2623 25.6358L38.1202 26.1374L35.9336 34.4655Z" fill="#EB8F35"/>
<path fill-rule="evenodd" clip-rule="evenodd" d="M22.5161 11.2873L26.7898 14.8995L30.0698 18.913L21.9198 19.2141L22.5161 11.2873Z" fill="#E8821E"/>
<path fill-rule="evenodd" clip-rule="evenodd" d="M24.1061 20.9198L23.0127 23.2277L26.889 22.2243L24.1061 20.9198Z" fill="#393939"/>
<path fill-rule="evenodd" clip-rule="evenodd" d="M36.0333 0.952747L22.5161 11.2875L24.802 5.66854L36.0333 0.952747Z" fill="#E88F35"/>
<path fill-rule="evenodd" clip-rule="evenodd" d="M36.0331 0.952595L37.8221 6.47118L36.8282 12.4914L37.524 12.8928L36.5301 13.7958L37.3252 14.4982L36.2319 15.5016L36.9276 16.1036L35.3374 18.1104L27.883 15.8026C24.2387 12.8594 22.4496 11.3543 22.5159 11.2874C22.5822 11.2205 27.0879 7.77557 36.0331 0.952595Z" fill="#8E5A30"/>
</svg>
