<svg width="20" height="19" viewBox="0 0 20 19" fill="none" xmlns="http://www.w3.org/2000/svg">
<path d="M9.68538 0.0800781C4.4816 0.0800781 0.262207 4.29947 0.262207 9.50325C0.262207 14.707 4.4816 18.9264 9.68538 18.9264C14.8892 18.9264 19.1085 14.707 19.1085 9.50325C19.1085 4.29947 14.8892 0.0800781 9.68538 0.0800781ZM10.1544 14.0718L10.1586 14.7386C10.1586 14.8311 10.0829 14.909 9.99037 14.909H9.39301C9.30046 14.909 9.22474 14.8332 9.22474 14.7407V14.0802C7.35693 13.9414 6.47771 12.8771 6.38306 11.7202C6.37465 11.6214 6.45247 11.5372 6.55133 11.5372H7.5231C7.60513 11.5372 7.67664 11.5961 7.68926 11.676C7.79654 12.3428 8.31607 12.8413 9.24787 12.9654V9.96389L8.72834 9.83138C7.62827 9.56845 6.58078 8.88275 6.58078 7.46086C6.58078 5.92749 7.74606 5.10296 9.23525 4.95783V4.26371C9.23525 4.17116 9.31098 4.09544 9.40352 4.09544H9.99458C10.0871 4.09544 10.1628 4.17116 10.1628 4.26371V4.95152C11.6037 5.09665 12.6848 5.93801 12.811 7.24842C12.8215 7.34728 12.7437 7.43352 12.6427 7.43352H11.6983C11.6142 7.43352 11.5427 7.37042 11.5322 7.28838C11.448 6.67419 10.9558 6.17359 10.1544 6.06421V8.88906L10.6887 9.01316C12.0517 9.3497 12.9793 10.0018 12.9793 11.4615C12.9793 13.0454 11.8014 13.9288 10.1544 14.0718ZM7.88909 7.36411C7.88909 7.89837 8.21932 8.31273 8.93026 8.56935C9.02912 8.60931 9.12798 8.64086 9.24577 8.67452V6.06632C8.46962 6.16518 7.88909 6.60058 7.88909 7.36411ZM10.3395 10.2079C10.2806 10.1953 10.2217 10.1805 10.1544 10.1616V12.9738C11.0505 12.8939 11.6689 12.4017 11.6689 11.5772C11.6689 10.9314 11.3344 10.5108 10.3395 10.2079Z" fill="white"/>
</svg>
