<svg width="17" height="17" viewBox="0 0 17 17" fill="none" xmlns="http://www.w3.org/2000/svg">
<g clip-path="url(#clip0_3105_2136)">
<path d="M16.1524 1.27675C16.1524 0.998775 15.9271 0.773438 15.6491 0.773438L14.6426 0.773438C13.6531 0.773438 12.7956 1.34774 12.3848 2.18029C11.5593 1.31407 10.3949 0.773438 9.1067 0.773438C6.60982 0.773438 4.57732 2.80536 4.57732 5.30282C4.57732 6.69388 5.2124 7.98425 6.28045 8.83945C5.89221 8.87348 5.52187 8.97067 5.17972 9.12076L3.98066 7.92167C3.98063 7.92167 3.98063 7.92164 3.98063 7.92164L3.98056 7.92161L3.29467 7.23571C2.70602 6.64706 1.74821 6.64706 1.15953 7.23571C0.570848 7.82439 0.570848 8.7822 1.15953 9.37088L3.19555 11.4069C3.11229 11.7068 3.06758 12.0225 3.06758 12.3485V15.3681C3.06758 15.646 3.29292 15.8713 3.57086 15.8713L14.6427 15.8713C14.9206 15.8713 15.1459 15.646 15.1459 15.3681V12.3486C15.1459 10.5105 13.7309 8.99699 11.933 8.83948C12.9933 7.99046 13.6362 6.70355 13.6362 5.30285C13.6362 4.9216 13.5886 4.55129 13.4995 4.19729C13.4928 4.16374 13.4388 3.9671 13.3771 3.79304L13.6362 3.79304C15.0236 3.79307 16.1524 2.66425 16.1524 1.27675ZM9.1067 1.77996C10.5092 1.77996 11.7228 2.60387 12.2892 3.79301L5.92422 3.79301C6.49062 2.60387 7.70416 1.77996 9.1067 1.77996ZM1.87114 8.65921C1.67492 8.46296 1.67492 8.14369 1.87114 7.9475C2.06742 7.75126 2.38669 7.75126 2.5829 7.94747L2.91297 8.27754L2.2012 8.9893L1.87114 8.65921ZM2.91294 9.701L3.6247 8.98924L4.30517 9.66971C4.04878 9.88872 3.82414 10.1438 3.63908 10.4271L2.91294 9.701ZM4.07405 14.8649V12.3485C4.07405 11.7364 4.25549 11.5006 4.27756 11.3579C4.64777 10.4969 5.33994 10.1776 5.39444 10.1351C5.55684 10.047 5.7302 9.97686 5.91153 9.92601L8.37203 12.3865L5.89365 14.8649L4.07405 14.8649ZM7.24115 9.83219L10.9262 9.83219L9.0837 11.6747L7.24115 9.83219ZM12.2661 9.91582C13.343 10.2008 14.1393 11.1833 14.1393 12.3485V14.8649L7.31709 14.8649L12.2661 9.91582ZM9.1067 8.82567C7.70422 8.82567 6.49062 8.00176 5.92422 6.81262L12.2892 6.81262C11.7227 8.00176 10.5092 8.82567 9.1067 8.82567ZM12.5934 5.80609L10.1132 5.80609L8.10018 5.80609L5.61996 5.80609C5.59633 5.64165 5.58385 5.47371 5.58385 5.30282C5.58385 5.13195 5.59633 4.96398 5.61996 4.79954L7.59693 4.79954V5.30282C7.59693 5.58076 7.82227 5.80609 8.10021 5.80609C8.37815 5.80609 8.60348 5.58076 8.60348 5.30282V4.79954L9.61001 4.79954V5.30282C9.61001 5.58076 9.83532 5.80609 10.1133 5.80609C10.3913 5.80609 10.6166 5.58076 10.6166 5.30282V4.79954L12.5935 4.79954C12.6172 4.96398 12.6296 5.13192 12.6296 5.30282C12.6296 5.47371 12.6171 5.64165 12.5934 5.80609ZM13.219 2.78652C13.4267 2.20067 13.9865 1.77999 14.6426 1.77999L15.0596 1.77999C14.8519 2.36584 14.2922 2.78652 13.636 2.78652L13.219 2.78652Z" fill="white"/>
</g>
<defs>
<clipPath id="clip0_3105_2136">
<rect width="15.4345" height="15.4345" fill="white" transform="translate(0.719482 0.609375)"/>
</clipPath>
</defs>
</svg>
