<svg width="16" height="15" viewBox="0 0 16 15" fill="none" xmlns="http://www.w3.org/2000/svg">
<path d="M11.9427 0.762877C12.1418 0.562094 12.38 0.401942 12.6433 0.291766C12.9066 0.181591 13.1898 0.123599 13.4764 0.121173C13.763 0.118748 14.0472 0.171937 14.3124 0.277639C14.5777 0.383341 14.8186 0.539437 15.0213 0.73682C15.2239 0.934204 15.3842 1.16892 15.4927 1.42728C15.6012 1.68563 15.6558 1.96245 15.6533 2.24158C15.6509 2.52072 15.5913 2.79657 15.4782 3.05305C15.3651 3.30953 15.2007 3.5415 14.9945 3.73542L14.1388 4.56895L11.087 1.59641L11.9427 0.762877ZM9.5611 3.08268L0.519043 11.8899V14.8625H3.57083L12.614 6.05522L9.56002 3.08268H9.5611Z" fill="white"/>
</svg>
