<svg width="19" height="19" viewBox="0 0 19 19" fill="none" xmlns="http://www.w3.org/2000/svg">
<path d="M9.50093 12.3469C7.75293 12.3469 7.60093 11.5299 7.60093 11.3969H5.70093C5.70093 12.2709 6.32793 13.8194 8.55093 14.1709V15.1969H10.4509V14.1709C12.3509 13.8479 13.3009 12.6224 13.3009 11.3969C13.3009 10.3329 12.8069 8.54688 9.50093 8.54688C7.60093 8.54688 7.60093 7.94837 7.60093 7.59687C7.60093 7.24537 8.26593 6.64687 9.50093 6.64687C10.7359 6.64687 10.8214 7.25487 10.8309 7.59687H12.7309C12.7181 6.94969 12.4853 6.32616 12.0709 5.82888C11.6565 5.3316 11.0852 4.99021 10.4509 4.86087V3.79688H8.55093V4.83238C6.65093 5.14588 5.70093 6.37138 5.70093 7.59687C5.70093 8.66087 6.19493 10.4469 9.50093 10.4469C11.4009 10.4469 11.4009 11.0929 11.4009 11.3969C11.4009 11.7009 10.8119 12.3469 9.50093 12.3469Z" fill="white"/>
<path d="M2.85 0H0V1.9H1.9V18.05C1.9 18.302 2.00009 18.5436 2.17825 18.7218C2.35641 18.8999 2.59804 19 2.85 19H16.15C16.402 19 16.6436 18.8999 16.8218 18.7218C16.9999 18.5436 17.1 18.302 17.1 18.05V1.9H19V0H2.85ZM15.2 17.1H3.8V1.9H15.2V17.1Z" fill="white"/>
</svg>
