<svg width="19" height="19" viewBox="0 0 19 19" fill="none" xmlns="http://www.w3.org/2000/svg">
<path d="M9.5 1.1875C4.90957 1.1875 1.1875 4.90957 1.1875 9.5C1.1875 14.0904 4.90957 17.8125 9.5 17.8125C14.0904 17.8125 17.8125 14.0904 17.8125 9.5C17.8125 4.90957 14.0904 1.1875 9.5 1.1875ZM12.7749 12.055L12.2442 12.7786C12.2327 12.7944 12.2182 12.8077 12.2014 12.8178C12.1847 12.8279 12.1662 12.8346 12.1469 12.8376C12.1276 12.8405 12.1079 12.8396 12.0889 12.8349C12.07 12.8302 12.0521 12.8218 12.0364 12.8102L8.96748 10.5725C8.94836 10.5587 8.93282 10.5406 8.92217 10.5196C8.91151 10.4986 8.90605 10.4754 8.90625 10.4519V5.34375C8.90625 5.26211 8.97305 5.19531 9.05469 5.19531H9.94717C10.0288 5.19531 10.0956 5.26211 10.0956 5.34375V9.93604L12.7415 11.849C12.8083 11.8954 12.8231 11.9882 12.7749 12.055Z" fill="white"/>
</svg>
