<svg width="17" height="22" viewBox="0 0 17 22" fill="none" xmlns="http://www.w3.org/2000/svg">
<path d="M0 0V22H17V5.58462L16.745 5.33077L11.645 0.253846L11.39 0H0ZM1.7 1.69231H10.2V6.76923H15.3V20.3077H1.7V1.69231ZM11.9 2.87692L14.11 5.07692H11.9V2.87692ZM3.4 5.07692V6.76923H8.5V5.07692H3.4ZM3.4 8.46154V10.1538H13.6V8.46154H3.4ZM6.375 11C5.61 11 5.015 11.5077 4.675 12.1C4.335 12.6923 4.25 13.4538 4.25 14.3C4.25 14.8077 4.42 15.3154 4.505 15.8231C4.165 15.9077 3.825 16.1615 3.4 16.1615V17.8538C3.995 17.8538 4.59 17.7692 5.1 17.6C5.185 17.7692 5.185 17.8538 5.355 18.0231C5.695 18.3615 6.205 18.6154 6.8 18.6154C8.16 18.6154 9.01 17.6846 9.605 17.0077C9.69 16.8385 9.775 16.7538 9.86 16.6692C9.86 16.7538 9.86 16.8385 9.945 16.9231C10.03 17.0923 10.115 17.2615 10.285 17.4308C10.455 17.6 10.795 17.7692 11.05 17.7692C11.56 17.7692 11.9 17.4308 12.07 17.2615C12.24 17.0923 12.41 16.8385 12.58 16.6692C12.92 16.3308 13.175 16.0769 13.515 16.0769V14.3846C12.495 14.3846 11.73 14.9769 11.305 15.4846C11.305 15.4 11.305 15.3154 11.22 15.2308C11.135 15.0615 11.05 14.8923 10.88 14.6385C10.71 14.3846 10.455 14.3846 10.2 14.3846C9.52 14.3846 9.265 14.8077 9.01 15.0615C8.755 15.3154 8.5 15.6538 8.33 15.9923C7.82 16.5846 7.48 16.9231 6.8 16.9231C6.715 16.9231 6.715 16.8385 6.63 16.8385C6.715 16.8385 6.715 16.7538 6.8 16.7538C7.735 15.9923 8.5 14.9769 8.5 13.6231C8.5 12.9462 8.33 12.3538 7.99 11.8462C7.65 11.3385 7.055 11 6.375 11ZM6.29 12.6923C6.545 12.6923 6.545 12.6923 6.63 12.8615C6.715 13.0308 6.8 13.2846 6.8 13.7077C6.8 14.2154 6.545 14.7231 6.12 15.1462C6.12 14.8923 5.95 14.5538 5.95 14.3846C5.95 13.7077 6.035 13.2 6.205 12.9462C6.29 12.7769 6.29 12.6923 6.29 12.6923Z" fill="white"/>
</svg>
