<svg width="25" height="26" viewBox="0 0 25 26" fill="none" xmlns="http://www.w3.org/2000/svg">
<g clip-path="url(#clip0_1486_3652)">
<path d="M7.66168 14.6825C7.73608 14.7575 7.85899 14.758 7.93401 14.6836L10.3973 12.2403L12.4639 14.3261C12.5383 14.4011 12.6612 14.4016 12.7362 14.3272L18.2122 8.89077C18.2872 8.81637 18.2877 8.69346 18.2133 8.61844L17.33 7.72797C17.2556 7.65295 17.1327 7.65245 17.0577 7.72686L12.6101 12.1432L10.5436 10.0574C10.4692 9.98236 10.3463 9.98186 10.2713 10.0563L6.77952 13.5197C6.70451 13.5941 6.70401 13.717 6.77841 13.792L7.66168 14.6825V14.6825Z" fill="white"/>
<path d="M21.9688 4.33858L13.3893 4.30369L13.3955 2.76131C13.396 2.65527 13.3096 2.56816 13.2035 2.56773L11.8539 2.56224C11.7479 2.56181 11.6608 2.64821 11.6604 2.75425L11.6541 4.29664L3.07456 4.26176C2.648 4.26002 2.30197 4.60325 2.30023 5.02981L2.24928 17.5617C2.24755 17.9883 2.59077 18.3343 3.01734 18.336L11.6065 18.3709L11.6034 19.1421L7.62113 21.7312C7.53172 21.7887 7.50714 21.9066 7.56462 21.996L8.29022 23.1365L8.29021 23.1389C8.34769 23.2283 8.46809 23.2529 8.55749 23.1955L12.4552 20.6615L16.3321 23.2271C16.421 23.2853 16.5416 23.2617 16.5998 23.1727L16.5998 23.1703L17.3347 22.0358C17.3929 21.9468 17.3668 21.8286 17.2803 21.7704L13.3289 19.1564L13.332 18.378L21.9116 18.4128C22.3381 18.4146 22.6842 18.0714 22.6859 17.6448L22.7368 5.1129C22.7386 4.68634 22.3954 4.34031 21.9688 4.33858ZM20.9546 16.6737L3.98839 16.6048L4.0315 6.00086L20.9977 6.06984L20.9546 16.6737Z" fill="white"/>
</g>
<defs>
<clipPath id="clip0_1486_3652">
<rect width="24.6784" height="24.6784" fill="white" transform="translate(0.198364 0.390625) rotate(0.23295)"/>
</clipPath>
</defs>
</svg>
