<svg width="20" height="17" viewBox="0 0 20 17" fill="none" xmlns="http://www.w3.org/2000/svg">
<path d="M2.5 0V5H0.833334V0H2.5ZM0.833334 16.6667V11.6667H2.5V16.6667H0.833334ZM3.33333 8.33333C3.33333 9.25833 2.59167 10 1.66667 10C1.33703 10 1.0148 9.90225 0.740717 9.71912C0.466635 9.53598 0.253014 9.27568 0.126868 8.97114C0.000722135 8.6666 -0.0322834 8.33148 0.0320253 8.00818C0.096334 7.68488 0.255069 7.38791 0.488156 7.15482C0.721244 6.92173 1.01822 6.763 1.34152 6.69869C1.66482 6.63438 1.99993 6.66739 2.30447 6.79353C2.60902 6.91968 2.86931 7.1333 3.05245 7.40738C3.23559 7.68146 3.33333 8.0037 3.33333 8.33333ZM12.5 1.66667C16.1833 1.66667 19.1667 4.65 19.1667 8.33333C19.1667 12.0167 16.1833 15 12.5 15C9.5 15 6.96667 13.0167 6.125 10.2917L4.16667 8.33333L6.125 6.375C6.96667 3.65 9.5 1.66667 12.5 1.66667ZM11.6667 9.16667L15.4417 11.4917L16.1083 10.4167L12.9167 8.5V4.16667H11.6667V9.16667Z" fill="white"/>
</svg>
