<svg width="16" height="20" viewBox="0 0 16 20" fill="none" xmlns="http://www.w3.org/2000/svg">
<path d="M12.8092 13.7162C12.1893 13.7162 11.6119 13.8964 11.125 14.2063L6.21105 10.7756C6.28994 10.5002 6.33307 10.2098 6.33307 9.90908C6.33307 9.60835 6.28994 9.31787 6.21105 9.04253L10.9923 5.70441C11.5053 6.06881 12.1319 6.2838 12.8091 6.2838C14.5443 6.2838 15.951 4.87711 15.951 3.14192C15.951 1.40673 14.5444 0 12.8092 0C11.074 0 9.6673 1.40669 9.6673 3.14188C9.6673 3.37104 9.69251 3.59423 9.73908 3.80944L4.83642 7.23233C4.35786 6.93758 3.79452 6.7672 3.19119 6.7672C1.456 6.7672 0.0493164 8.17389 0.0493164 9.90908C0.0493164 11.6443 1.45596 13.051 3.19119 13.051C3.79448 13.051 4.35786 12.8806 4.83642 12.5858L9.77694 16.0351C9.7059 16.2975 9.6673 16.5733 9.6673 16.8581C9.6673 18.5933 11.074 20 12.8092 20C14.5444 20 15.9511 18.5933 15.9511 16.8581C15.9511 15.1229 14.5444 13.7162 12.8092 13.7162Z" fill="white"/>
</svg>
