<svg width="23" height="16" viewBox="0 0 23 16" fill="none" xmlns="http://www.w3.org/2000/svg">
<path d="M5.28174 1.21169e-09C2.53388 5.45778e-10 0.281738 2.35749 0.281738 5.23498C0.281738 6.34998 0.620786 7.38622 1.19483 8.23797L4.67174 14.5489C5.15864 15.2169 5.48245 15.0902 5.88745 14.5139L9.72221 7.66147C9.7996 7.51397 9.86031 7.35747 9.9134 7.19747C10.1568 6.57475 10.2819 5.90809 10.2817 5.23498C10.2817 2.35749 8.03031 1.87777e-09 5.28174 1.21169e-09ZM5.28174 2.45299C6.76174 2.45299 7.93888 3.68574 7.93888 5.23523C7.93888 6.78473 6.76174 8.01697 5.28174 8.01697C3.80198 8.01697 2.6246 6.78448 2.6246 5.23523C2.6246 3.68574 3.80198 2.45299 5.28174 2.45299Z" fill="white"/>
<path fill-rule="evenodd" clip-rule="evenodd" d="M21.8995 1C21.3621 1.01201 20.8232 1.03483 20.2834 1.07495L20.3666 2.4038C20.8852 2.36608 21.4046 2.34181 21.9244 2.33101L21.8995 1ZM19.0354 1.19697C18.2054 1.3005 17.3683 1.44799 16.5408 1.68508L16.8524 2.97286C17.6044 2.75763 18.3836 2.61854 19.1751 2.51982L19.0354 1.19697ZM15.3016 2.13092C15.0536 2.24084 14.8136 2.3679 14.5831 2.51117L14.5821 2.51237L14.5807 2.51285C14.2518 2.72087 13.9053 2.98487 13.6223 3.36848C13.4173 3.64641 13.2497 3.99784 13.2105 4.4134L14.4291 4.54912C14.4382 4.4516 14.4879 4.32284 14.5774 4.20178L14.5778 4.20178L14.5778 4.2013C14.7221 4.00528 14.9383 3.82729 15.1954 3.66443L15.1963 3.66394C15.3796 3.55034 15.5705 3.44954 15.7675 3.36224L15.3016 2.13092ZM14.6742 5.14196L13.8842 6.15926C14.0715 6.33125 14.2679 6.46337 14.4575 6.57386L14.4599 6.57507L14.4623 6.57651C15.0918 6.9361 15.741 7.13908 16.3427 7.33173L16.6886 6.05429C16.087 5.86164 15.52 5.67571 15.0339 5.39851C14.8947 5.31732 14.7728 5.23252 14.6742 5.14196ZM17.8637 6.41364L17.5259 7.69325L17.6857 7.74321L17.8818 7.80615C18.531 8.01826 19.1528 8.24477 19.7087 8.55825L20.2726 7.37641C19.6006 6.99712 18.9029 6.74922 18.2306 6.52967L18.2286 6.52919L18.0272 6.46457L17.8637 6.41364ZM21.4195 8.26327L20.553 9.2049C20.7577 9.42758 20.911 9.69541 20.9856 9.97214L20.9861 9.97358L20.9866 9.97574C21.0756 10.2988 21.0758 10.6788 21.0062 11.0627L22.2078 11.3202C22.3059 10.7783 22.3217 10.1833 22.1605 9.59596C22.0201 9.07663 21.7522 8.62551 21.4195 8.26327ZM20.5867 11.865C20.4543 12.0055 20.3079 12.132 20.1499 12.2426L20.1495 12.2426C19.719 12.5467 19.2195 12.7759 18.6891 12.9729L19.0847 14.2325C19.6649 14.0171 20.2607 13.7528 20.8175 13.3594L20.8189 13.3582L20.8196 13.3577C21.0483 13.1969 21.2598 13.0128 21.4508 12.8083L20.5867 11.865ZM17.5635 13.3276C16.795 13.5352 16.0096 13.6932 15.2145 13.8273L15.402 15.1434C16.2203 15.0053 17.0418 14.8403 17.8584 14.6197L17.5635 13.3276ZM14.0184 14.0089C13.2181 14.1187 12.4135 14.2083 11.6065 14.2847L11.7123 15.6111C12.5317 15.5337 13.3525 15.4427 14.1722 15.33L14.0184 14.0089ZM10.3937 14.3891C9.58501 14.4535 8.77444 14.5059 7.96315 14.5501L8.02438 15.8799C8.84356 15.8355 9.66346 15.7824 10.4831 15.717L10.3937 14.3891ZM6.74407 14.6101C6.25782 14.633 5.77038 14.6517 5.28174 14.669L5.32192 16C5.81361 15.983 6.30521 15.9633 6.79669 15.9409L6.74407 14.6101Z" fill="white"/>
</svg>
