<svg width="30" height="30" viewBox="0 0 30 30" fill="none" xmlns="http://www.w3.org/2000/svg">
<path fill-rule="evenodd" clip-rule="evenodd" d="M24.9034 2.28704C24.5344 2.28704 24.1691 2.35971 23.8282 2.50091C23.4873 2.6421 23.1776 2.84906 22.9167 3.10995L4.26333 21.7633L2.77332 27.2267L8.23669 25.7367L26.89 7.08331C27.1509 6.82242 27.3579 6.51269 27.4991 6.17182C27.6403 5.83095 27.713 5.4656 27.713 5.09663C27.713 4.72767 27.6403 4.36232 27.4991 4.02145C27.3579 3.68058 27.1509 3.37085 26.89 3.10995C26.6292 2.84906 26.3194 2.6421 25.9786 2.50091C25.6377 2.35971 25.2723 2.28704 24.9034 2.28704ZM22.953 0.387958C23.5713 0.131828 24.2341 0 24.9034 0C25.5727 0 26.2354 0.131828 26.8538 0.387958C27.4721 0.644088 28.034 1.0195 28.5072 1.49277C28.9805 1.96603 29.3559 2.52788 29.612 3.14624C29.8682 3.76459 30 4.42734 30 5.09663C30 5.76593 29.8682 6.42867 29.612 7.04703C29.3559 7.66538 28.9805 8.22723 28.5072 8.7005L9.63914 27.5686C9.49842 27.7093 9.32342 27.8109 9.13143 27.8632L1.44443 29.9597C1.04853 30.0677 0.625124 29.9552 0.334956 29.665C0.0447874 29.3749 -0.0676532 28.9515 0.0403198 28.5556L2.13677 20.8686C2.18914 20.6766 2.29069 20.5016 2.43141 20.3609L21.2995 1.49277C21.7728 1.0195 22.3346 0.644088 22.953 0.387958Z" fill="white"/>
</svg>
