<svg width="102" height="102" viewBox="0 0 102 102" fill="none" xmlns="http://www.w3.org/2000/svg">
<path d="M36.3258 20.782C35.6536 20.0873 34.8137 19.5777 33.8871 19.3022C32.9605 19.0267 31.9785 18.9947 31.036 19.2094C30.1012 19.4275 29.2342 19.8718 28.5113 20.5033C27.7884 21.1348 27.2316 21.9342 26.8899 22.8313L1.25084 93.4102C0.878016 94.4342 0.805541 95.5434 1.04194 96.6072C1.27835 97.671 1.81379 98.6451 2.58521 99.4148C3.10885 99.944 3.73234 100.364 4.41952 100.65C5.1067 100.937 5.84389 101.084 6.58834 101.083C7.26985 101.089 7.94718 100.976 8.5899 100.749L79.1688 75.1102C80.0659 74.7685 80.8652 74.2117 81.4968 73.4888C82.1283 72.7658 82.5726 71.8989 82.7907 70.9641C83.0101 70.0217 82.9804 69.0384 82.7047 68.1109C82.429 67.1835 81.9166 66.3437 81.218 65.6742L36.3258 20.782ZM34.2766 87.3578L14.6422 67.7234L22.3626 46.5164L55.4836 79.6375L34.2766 87.3578ZM7.25553 97.175C6.91658 97.2941 6.55088 97.315 6.20056 97.2353C5.85025 97.1556 5.52959 96.9785 5.27555 96.7245C5.02151 96.4705 4.84443 96.1498 4.76473 95.7995C4.68502 95.4492 4.70594 95.0835 4.82506 94.7445L13.2126 71.6789L30.3211 88.7875L7.25553 97.175ZM79.0735 70.1063C79.0109 70.427 78.8626 70.7248 78.6445 70.9681C78.4264 71.2114 78.1464 71.3911 77.8344 71.4883L59.4391 78.2078L23.7922 42.5609L30.5118 24.1656C30.6089 23.8536 30.7887 23.5737 31.032 23.3556C31.2753 23.1374 31.5731 22.9892 31.8938 22.9266C32.2081 22.8581 32.5346 22.8702 32.8429 22.9619C33.1512 23.0536 33.4313 23.2217 33.6571 23.4508L78.5493 68.343C78.7783 68.5688 78.9465 68.8489 79.0382 69.1572C79.1298 69.4655 79.142 69.792 79.0735 70.1063ZM89.8438 6.4375C89.8438 11.0602 87.0321 19.7812 76.5001 19.7812C72.5446 19.7812 69.7329 21.3539 68.2079 24.4516C67.4715 25.9718 67.05 27.6252 66.9688 29.3125C66.9688 29.8181 66.768 30.3029 66.4105 30.6604C66.053 31.0179 65.5681 31.2188 65.0626 31.2188C64.557 31.2188 64.0721 31.0179 63.7146 30.6604C63.3571 30.3029 63.1563 29.8181 63.1563 29.3125C63.2198 27.0297 63.7724 24.787 64.7766 22.7359C66.3493 19.6383 69.6376 15.9688 76.5001 15.9688C85.6977 15.9688 86.0313 7.39062 86.0313 6.4375C86.0313 5.93193 86.2321 5.44707 86.5896 5.08958C86.9471 4.73209 87.432 4.53125 87.9376 4.53125C88.4431 4.53125 88.928 4.73209 89.2855 5.08958C89.643 5.44707 89.8438 5.93193 89.8438 6.4375ZM51.7188 14.0625V2.625C51.7188 2.11943 51.9196 1.63457 52.2771 1.27708C52.6346 0.919586 53.1195 0.71875 53.6251 0.71875C54.1306 0.71875 54.6155 0.919586 54.973 1.27708C55.3305 1.63457 55.5313 2.11943 55.5313 2.625V14.0625C55.5313 14.5681 55.3305 15.0529 54.973 15.4104C54.6155 15.7679 54.1306 15.9688 53.6251 15.9688C53.1195 15.9688 52.6346 15.7679 52.2771 15.4104C51.9196 15.0529 51.7188 14.5681 51.7188 14.0625ZM96.8969 54.6656C97.0756 54.8389 97.2177 55.0463 97.3147 55.2755C97.4118 55.5047 97.4618 55.7511 97.4618 56C97.4618 56.2489 97.4118 56.4953 97.3147 56.7245C97.2177 56.9537 97.0756 57.1611 96.8969 57.3344C96.7237 57.5131 96.5163 57.6552 96.2871 57.7522C96.0578 57.8492 95.8115 57.8992 95.5626 57.8992C95.3137 57.8992 95.0673 57.8492 94.8381 57.7522C94.6088 57.6552 94.4014 57.5131 94.2282 57.3344L86.6032 49.7094C86.3279 49.3423 86.1942 48.8882 86.2267 48.4305C86.2593 47.9728 86.4558 47.5422 86.7803 47.2177C87.1047 46.8932 87.5353 46.6967 87.993 46.6642C88.4508 46.6316 88.9048 46.7653 89.2719 47.0406L96.8969 54.6656ZM99.9946 31.1234L88.5571 34.9359L87.9376 35.0312C87.5407 35.0261 87.1549 34.9002 86.8314 34.6703C86.5079 34.4404 86.2621 34.1175 86.1266 33.7445C86.0442 33.5068 86.0097 33.2551 86.025 33.0039C86.0404 32.7527 86.1053 32.5071 86.2161 32.2811C86.3268 32.0552 86.4812 31.8534 86.6703 31.6874C86.8595 31.5214 87.0796 31.3945 87.318 31.3141L98.7555 27.5016C99.2358 27.3373 99.7617 27.3705 100.218 27.5939C100.673 27.8173 101.022 28.2127 101.186 28.693C101.35 29.1733 101.317 29.6992 101.094 30.155C100.87 30.6108 100.475 30.9591 99.9946 31.1234Z" fill="white"/>
</svg>
