<svg width="20" height="20" viewBox="0 0 20 20" fill="none" xmlns="http://www.w3.org/2000/svg">
<path d="M9.68538 0.236328C4.4816 0.236328 0.262207 4.45572 0.262207 9.6595C0.262207 14.8633 4.4816 19.0827 9.68538 19.0827C14.8892 19.0827 19.1085 14.8633 19.1085 9.6595C19.1085 4.45572 14.8892 0.236328 9.68538 0.236328ZM13.3979 12.5559L12.7963 13.3762C12.7832 13.394 12.7667 13.4091 12.7478 13.4206C12.7288 13.4321 12.7078 13.4397 12.6859 13.443C12.664 13.4464 12.6417 13.4453 12.6202 13.44C12.5987 13.4346 12.5785 13.4251 12.5607 13.4119L9.08171 10.8753C9.06003 10.8597 9.04242 10.8391 9.03034 10.8154C9.01826 10.7916 9.01207 10.7652 9.01229 10.7385V4.94791C9.01229 4.85536 9.08802 4.77964 9.18057 4.77964H10.1923C10.2848 4.77964 10.3606 4.85536 10.3606 4.94791V10.1538L13.36 12.3224C13.4357 12.375 13.4525 12.4801 13.3979 12.5559Z" fill="white"/>
</svg>
