<svg width="24" height="14" viewBox="0 0 24 14" fill="none" xmlns="http://www.w3.org/2000/svg">
<path d="M23.9166 2.66667C23.9166 3.85833 22.9416 4.83333 21.7499 4.83333C21.563 4.83625 21.3767 4.81068 21.1974 4.7575L17.3408 8.60333C17.3949 8.77667 17.4166 8.97167 17.4166 9.16667C17.4166 10.3583 16.4416 11.3333 15.2499 11.3333C14.0583 11.3333 13.0833 10.3583 13.0833 9.16667C13.0833 8.97167 13.1049 8.77667 13.1591 8.60333L10.3966 5.84083C10.2233 5.895 10.0283 5.91667 9.83325 5.91667C9.63825 5.91667 9.44325 5.895 9.26992 5.84083L4.34075 10.7808C4.39492 10.9542 4.41659 11.1383 4.41659 11.3333C4.41659 12.525 3.44159 13.5 2.24992 13.5C1.05825 13.5 0.083252 12.525 0.083252 11.3333C0.083252 10.1417 1.05825 9.16667 2.24992 9.16667C2.44492 9.16667 2.62909 9.18833 2.80242 9.2425L7.74242 4.31333C7.68825 4.14 7.66659 3.945 7.66659 3.75C7.66659 2.55833 8.64159 1.58333 9.83325 1.58333C11.0249 1.58333 11.9999 2.55833 11.9999 3.75C11.9999 3.945 11.9783 4.14 11.9241 4.31333L14.6866 7.07583C14.8599 7.02167 15.0549 7 15.2499 7C15.4449 7 15.6399 7.02167 15.8133 7.07583L19.6591 3.21917C19.6059 3.03992 19.5803 2.85362 19.5833 2.66667C19.5833 1.475 20.5583 0.5 21.7499 0.5C22.9416 0.5 23.9166 1.475 23.9166 2.66667Z" fill="white"/>
</svg>
