<svg width="24" height="24" viewBox="0 0 24 24" fill="none" xmlns="http://www.w3.org/2000/svg">
<path d="M12 0.625C5.71836 0.625 0.625 5.71836 0.625 12C0.625 18.2816 5.71836 23.375 12 23.375C18.2816 23.375 23.375 18.2816 23.375 12C23.375 5.71836 18.2816 0.625 12 0.625ZM16.4814 15.4963L15.7553 16.4865C15.7395 16.5081 15.7196 16.5263 15.6967 16.5402C15.6739 16.554 15.6485 16.5632 15.6221 16.5672C15.5956 16.5712 15.5687 16.57 15.5427 16.5635C15.5168 16.5571 15.4924 16.5456 15.4709 16.5297L11.2713 13.4676C11.2451 13.4488 11.2239 13.424 11.2093 13.3953C11.1947 13.3666 11.1872 13.3347 11.1875 13.3025V6.3125C11.1875 6.20078 11.2789 6.10938 11.3906 6.10938H12.6119C12.7236 6.10938 12.815 6.20078 12.815 6.3125V12.5967L16.4357 15.2145C16.5271 15.2779 16.5475 15.4049 16.4814 15.4963Z" fill="white"/>
</svg>
