<svg width="40" height="40" viewBox="0 0 40 40" fill="none" xmlns="http://www.w3.org/2000/svg">
<g clip-path="url(#clip0_2695_3228)">
<path d="M19.9997 40.0005C22.9558 39.9977 25.8746 39.34 28.5463 38.0748C31.218 36.8096 33.5762 34.9683 35.4515 32.6831C37.3268 30.398 38.6726 27.7257 39.3921 24.8585C40.1117 21.9913 40.1871 19.0003 39.613 16.1005C38.8466 12.2179 36.9448 8.65017 34.1486 5.84955C31.3524 3.04894 27.7878 1.14148 23.9064 0.368914C20.025 -0.403651 16.0016 -0.00654081 12.3462 1.50992C8.6907 3.02637 5.56772 5.59391 3.37301 8.88713C1.36523 11.8993 0.212056 15.3997 0.036301 19.0155C-0.139454 22.6312 0.668793 26.227 2.37496 29.4197C4.08113 32.6124 6.62133 35.2826 9.72502 37.1459C12.8287 39.0091 16.3797 39.9957 19.9997 40.0005Z" fill="#BCDDF8"/>
<path d="M20 40C25.3043 40 30.3914 37.8929 34.1421 34.1421C37.8929 30.3914 40 25.3043 40 20C40 14.6957 37.8929 9.60859 34.1421 5.85786C30.3914 2.10714 25.3043 0 20 0C14.6957 0 9.60859 2.10714 5.85786 5.85786C2.10714 9.60859 0 14.6957 0 20C0 25.3043 2.10714 30.3914 5.85786 34.1421C9.60859 37.8929 14.6957 40 20 40Z" fill="url(#paint0_radial_2695_3228)" fill-opacity="0.3"/>
<path d="M25.2062 22.7744C25.2062 20.0544 23.5529 19.1411 20.3529 18.6944C17.9862 18.3611 17.5329 17.7944 17.5329 16.6944C17.5329 15.5878 18.3329 14.9078 19.8662 14.9078C21.2595 14.9078 22.0662 15.3944 22.3929 16.5078C22.4254 16.6338 22.5008 16.7446 22.6062 16.8211C22.7078 16.8985 22.8318 16.9406 22.9595 16.9411H24.1795C24.2662 16.9411 24.3395 16.9344 24.4129 16.8944C24.5218 16.8459 24.6116 16.7627 24.6683 16.6578C24.725 16.5529 24.7453 16.4321 24.7262 16.3144C24.3329 14.5344 23.1329 13.4678 21.2595 13.1344V11.2678C21.2604 11.191 21.2461 11.1149 21.2173 11.0438C21.1886 10.9726 21.146 10.9079 21.092 10.8533C21.0381 10.7988 20.9738 10.7554 20.903 10.7259C20.8322 10.6963 20.7563 10.6811 20.6795 10.6811H19.5129C19.359 10.6811 19.2115 10.7422 19.1027 10.851C18.994 10.9598 18.9329 11.1073 18.9329 11.2611V13.0678C16.5995 13.3944 15.1329 14.9344 15.1329 16.9078C15.1329 19.4611 16.6795 20.4544 19.9329 20.8944C22.1462 21.2544 22.7729 21.7344 22.7729 22.9878C22.7729 24.2411 21.7062 25.0878 20.1995 25.0878C18.1662 25.0878 17.4795 24.2011 17.2462 23.0478C17.2184 22.9175 17.148 22.8003 17.0462 22.7144C16.9433 22.6285 16.8136 22.5813 16.6795 22.5811H15.3462C15.2729 22.5811 15.1862 22.5944 15.1195 22.6211C15.0462 22.6611 14.9862 22.7078 14.9262 22.7678C14.8753 22.8279 14.8382 22.8985 14.8175 22.9745C14.7967 23.0505 14.7929 23.1301 14.8062 23.2078C15.1395 25.1478 16.3862 26.5744 18.9329 26.9144V28.7544C18.932 28.8312 18.9463 28.9073 18.9751 28.9784C19.0038 29.0496 19.0464 29.1143 19.1004 29.1689C19.1543 29.2234 19.2185 29.2668 19.2894 29.2963C19.3602 29.3259 19.4361 29.3411 19.5129 29.3411H20.6795C20.7563 29.3411 20.8322 29.3259 20.903 29.2963C20.9738 29.2668 21.0381 29.2234 21.092 29.1689C21.146 29.1143 21.1886 29.0496 21.2173 28.9784C21.2461 28.9073 21.2604 28.8312 21.2595 28.7544V26.9011C23.6729 26.5278 25.2062 24.8611 25.2062 22.7744ZM16.0929 30.9611C14.4157 30.3468 12.902 29.3555 11.6684 28.0638C10.4348 26.7721 9.51425 25.2144 8.97771 23.5108C8.44118 21.8071 8.30297 20.003 8.57376 18.2375C8.84454 16.4721 9.51707 14.7923 10.5395 13.3278C11.9085 11.3689 13.8474 9.87916 16.0929 9.0611C16.235 8.99588 16.3567 8.89314 16.4448 8.76392C16.5329 8.63471 16.5841 8.48391 16.5929 8.32777V7.23444C16.6062 7.1411 16.5929 7.0411 16.5462 6.95444C16.5084 6.86543 16.446 6.78909 16.3662 6.73444C16.2882 6.67746 16.1963 6.64245 16.1001 6.63307C16.004 6.62369 15.9071 6.64028 15.8195 6.6811C13.7035 7.35311 11.7779 8.51919 10.2019 10.0829C8.62582 11.6466 7.44469 13.5631 6.75611 15.6737C6.06754 17.7844 5.89131 20.0287 6.242 22.221C6.59269 24.4132 7.46022 26.4906 8.77286 28.2811C10.5262 30.6678 12.9929 32.4478 15.8195 33.3478C15.9071 33.3886 16.004 33.4052 16.1001 33.3958C16.1963 33.3864 16.2882 33.3514 16.3662 33.2944C16.4421 33.2385 16.5038 33.1654 16.5462 33.0811C16.5862 32.9878 16.6062 32.8944 16.5929 32.7944V31.7078C16.5929 31.5478 16.5329 31.3944 16.4462 31.2678C16.3662 31.1211 16.2462 31.0211 16.0929 30.9611ZM24.3729 6.66777C24.2853 6.62695 24.1884 6.61036 24.0922 6.61974C23.9961 6.62912 23.9042 6.66412 23.8262 6.7211C23.7462 6.78777 23.6795 6.85444 23.6395 6.9411C23.598 7.02819 23.5818 7.12524 23.5929 7.2211V8.31444C23.5994 8.47116 23.6497 8.62293 23.7381 8.75253C23.8265 8.88214 23.9494 8.98441 24.0929 9.04777C25.7706 9.66139 27.285 10.6521 28.5193 11.9435C29.7536 13.2349 30.6749 14.7925 31.2121 16.4962C31.7493 18.1999 31.8881 20.0043 31.6178 21.7701C31.3474 23.536 30.6752 25.2161 29.6529 26.6811C28.2822 28.641 26.3407 30.1309 24.0929 30.9478C23.9449 31.0049 23.8173 31.1047 23.7262 31.2344C23.6384 31.3668 23.592 31.5223 23.5929 31.6811V32.7744C23.5795 32.8678 23.5995 32.9678 23.6395 33.0544C23.6791 33.1443 23.744 33.2207 23.8262 33.2744C23.9042 33.3314 23.9961 33.3664 24.0922 33.3758C24.1884 33.3852 24.2853 33.3686 24.3729 33.3278C27.2027 32.4286 29.673 30.6522 31.4261 28.2558C33.1792 25.8593 34.1242 22.967 34.1242 19.9978C34.1242 17.0285 33.1792 14.1363 31.4261 11.7398C29.673 9.34329 27.2027 7.5669 24.3729 6.66777Z" fill="#2775C9"/>
</g>
<defs>
<radialGradient id="paint0_radial_2695_3228" cx="0" cy="0" r="1" gradientUnits="userSpaceOnUse" gradientTransform="translate(13.0719 9.57534) rotate(54.2) scale(33.1388)">
<stop stop-color="#D6EDFF"/>
<stop offset="1" stop-color="#2775C9"/>
</radialGradient>
<clipPath id="clip0_2695_3228">
<rect width="40" height="40" fill="white"/>
</clipPath>
</defs>
</svg>
