<svg width="18" height="11" viewBox="0 0 18 11" fill="none" xmlns="http://www.w3.org/2000/svg">
<path d="M17.6329 5.77265C17.7252 5.60274 17.7252 5.39723 17.6329 5.22732C15.9418 2.11375 12.6433 0 8.85106 0C5.05879 0 1.76027 2.11378 0.069203 5.22732C-0.0230677 5.39723 -0.0230677 5.60274 0.069203 5.77265C1.7603 8.88622 5.05873 11 8.85103 11C12.6433 11 15.9418 8.88622 17.6329 5.77265ZM8.85103 9.71885C6.52101 9.71885 4.63218 7.82999 4.63218 5.5C4.63218 3.17001 6.52101 1.28112 8.85103 1.28112C11.1811 1.28112 13.0699 3.16998 13.0699 5.5C13.0699 7.83002 11.1811 9.71885 8.85103 9.71885Z" fill="#84898B"/>
<path d="M8.85095 3.3501C8.67347 3.3501 8.5011 3.37176 8.33614 3.41229C8.50509 3.60782 8.60755 3.86245 8.60755 4.14114C8.60755 4.75724 8.1081 5.25672 7.49197 5.25672C7.21328 5.25672 6.95865 5.15429 6.76312 4.98531C6.72259 5.15027 6.70093 5.32264 6.70093 5.50012C6.70093 6.68755 7.66352 7.65012 8.85092 7.65012C10.0383 7.65012 11.0009 6.68752 11.0009 5.50012C11.0009 4.31272 10.0384 3.3501 8.85095 3.3501Z" fill="#84898B"/>
</svg>
