<svg width="388" height="238" viewBox="0 0 388 238" fill="none" xmlns="http://www.w3.org/2000/svg">
<path d="M79.4 46.425C142.6 -15.475 245.1 -15.475 308.3 46.425L315.9 53.825C319.1 56.925 319.1 61.925 315.9 65.025L289.9 90.525C288.3 92.025 285.8 92.025 284.2 90.525L273.7 80.225C229.6 37.025 158.1 37.025 114 80.225L102.8 91.225C101.2 92.725 98.7 92.725 97.1 91.225L71 65.825C67.8 62.725 67.8 57.725 71 54.625L79.4 46.425ZM362.1 99.125L385.3 121.825C388.5 124.925 388.5 129.925 385.3 133.025L280.8 235.325C277.6 238.425 272.5 238.425 269.4 235.325L195.3 162.725C194.5 161.925 193.2 161.925 192.4 162.725L118.3 235.325C115.1 238.425 110 238.425 106.9 235.325L2.4 133.025C-0.8 129.925 -0.8 124.925 2.4 121.825L25.6 99.125C28.8 96.025 33.9 96.025 37 99.125L111.1 171.725C111.9 172.525 113.2 172.525 114 171.725L188.1 99.125C191.3 96.025 196.4 96.025 199.5 99.125L273.6 171.725C274.4 172.525 275.7 172.525 276.5 171.725L350.6 99.125C353.8 96.025 358.9 96.025 362.1 99.125Z" fill="#3B99FC"/>
</svg>
