<svg width="28" height="28" viewBox="0 0 28 28" fill="none" xmlns="http://www.w3.org/2000/svg">
<path d="M26.8297 12.1734H26.1461V7.55781C26.1461 6.475 25.293 5.62188 24.2648 5.62188H23.7508V2.5375C23.7508 1.45469 22.9523 0.601562 21.9844 0.601562C21.9844 0.601562 21.9297 0.601562 21.8695 0.601562L2.36797 5.61641C2.3625 5.61641 2.35156 5.62188 2.34609 5.62188C1.38359 5.69844 0.601562 6.52422 0.601562 7.55781V25.4625C0.601562 26.5453 1.45469 27.3984 2.48281 27.3984H24.2648C25.3477 27.3984 26.2008 26.5453 26.2008 25.4625V20.7266H26.8297C27.1742 20.7266 27.3984 20.4969 27.3984 20.1578V12.7477C27.3984 12.4031 27.1141 12.1734 26.8297 12.1734ZM22.0938 1.68437C22.3781 1.73906 22.6625 2.08359 22.6625 2.5375V5.61641H6.92891L22.0938 1.68437ZM25.0633 25.4625C25.0633 25.9164 24.7188 26.3156 24.2648 26.3156H2.48281C2.02891 26.3156 1.68437 25.9164 1.68437 25.4625V7.55781C1.68437 7.10391 2.02891 6.70469 2.48281 6.70469H24.2047C24.6586 6.70469 25.0031 7.10391 25.0031 7.55781V12.1734H19.3594C16.9641 12.1734 15.0828 14.0547 15.0828 16.45C15.0828 18.8453 17.0187 20.7266 19.3594 20.7266H25.0633V25.4625ZM26.2555 19.6438H19.3594C17.6477 19.6438 16.2258 18.2164 16.2258 16.5102C16.2258 14.8039 17.6531 13.3766 19.3594 13.3766H26.2555V19.6438Z" fill="white"/>
<path d="M18.7305 16.5648C18.7305 16.9094 19.0148 17.1336 19.2992 17.1336H19.8133C20.0977 17.1336 20.382 16.9039 20.382 16.5648C20.382 16.2203 20.0977 15.9961 19.8133 15.9961H19.3047C18.9602 15.9961 18.7305 16.2258 18.7305 16.5648Z" fill="white"/>
</svg>
