<svg width="27" height="23" viewBox="0 0 27 23" fill="none" xmlns="http://www.w3.org/2000/svg">
<path d="M1 7.33325V6.73325C0.668629 6.73325 0.4 7.00188 0.4 7.33325H1ZM1 21.9999H0.4C0.4 22.3313 0.668629 22.5999 1 22.5999L1 21.9999ZM25.4444 21.9999V22.5999C25.7758 22.5999 26.0444 22.3313 26.0444 21.9999H25.4444ZM25.4444 7.33325H26.0444C26.0444 7.00188 25.7758 6.73325 25.4444 6.73325V7.33325ZM8.33333 6.73325H1V7.93325H8.33333V6.73325ZM0.4 7.33325V21.9999H1.6V7.33325H0.4ZM1 22.5999H25.4444V21.3999H1V22.5999ZM26.0444 21.9999V7.33325H24.8444V21.9999H26.0444ZM25.4444 6.73325H18.1111V7.93325H25.4444V6.73325Z" fill="white"/>
<path d="M12.798 7.7576C13.0323 7.99191 13.4122 7.99191 13.6465 7.7576L17.4649 3.93922C17.6992 3.70491 17.6992 3.32501 17.4649 3.09069C17.2306 2.85638 16.8507 2.85638 16.6163 3.09069L13.2222 6.48481L9.82812 3.09069C9.5938 2.85638 9.2139 2.85638 8.97959 3.09069C8.74527 3.32501 8.74527 3.70491 8.97959 3.93922L12.798 7.7576ZM12.6222 0V7.33333H13.8222V0L12.6222 0Z" fill="white"/>
<circle cx="13.2222" cy="14.6667" r="3.06667" stroke="white" stroke-width="1.2"/>
<circle cx="20.5555" cy="14.6666" r="1.22222" fill="white"/>
<circle cx="5.88891" cy="14.6666" r="1.22222" fill="white"/>
</svg>
