<svg width="21" height="12" viewBox="0 0 21 12" fill="none" xmlns="http://www.w3.org/2000/svg">
<path d="M0.26071 11.6766L2.72944 11.6866L5.89103 6.53534L6.29728 6.53699L10.1663 0.34173L7.76783 0.331979L4.80244 5.26528L4.39619 5.26362L0.26071 11.6766ZM0.478832 0.302344L4.4611 6.59202L4.48454 6.59212L7.62002 11.7065L10.4325 11.7179L6.26346 5.24778L6.24002 5.24768L3.25221 0.321432L0.478832 0.302344ZM11.5809 11.7226L13.995 11.7324L14.0111 7.75586L15.9486 7.76374C17.2715 7.76912 18.2859 7.45032 18.9916 6.80735C19.7026 6.1592 20.0605 5.24658 20.0652 4.06951C20.07 2.88723 19.7196 1.97694 19.0138 1.33865C18.3081 0.695149 17.299 0.370731 15.9865 0.365394L11.6272 0.34767L11.5809 11.7226ZM14.0184 5.96681L14.0339 2.16216L15.737 2.16908C16.4609 2.17203 16.9629 2.34073 17.2428 2.67521C17.5227 3.00968 17.6614 3.47379 17.659 4.06754C17.6566 4.66128 17.514 5.12946 17.2314 5.47206C16.9488 5.80946 16.4455 5.97668 15.7215 5.97374L14.0184 5.96681Z" fill="url(#paint0_linear_2184_67584)"/>
<defs>
<linearGradient id="paint0_linear_2184_67584" x1="15.2552" y1="10.0889" x2="-0.524725" y2="0.814517" gradientUnits="userSpaceOnUse">
<stop stop-color="#FFBEDF"/>
<stop offset="0.3125" stop-color="#EAC4FF"/>
<stop offset="0.625" stop-color="#FFC9AF"/>
<stop offset="1" stop-color="#FFD9A0"/>
</linearGradient>
</defs>
</svg>
