<svg width="24" height="24" viewBox="0 0 24 24" fill="none" xmlns="http://www.w3.org/2000/svg">
<rect x="0.342857" y="0.342857" width="23.3143" height="23.3143" rx="6.51429" fill="#FCFCFC" fill-opacity="0.1" stroke="white" stroke-width="0.685714"/>
<path d="M9.16819 15.7429H11.8869C12.6619 15.7429 13.2854 15.571 13.7573 15.2273C14.2323 14.8835 14.4698 14.3992 14.4698 13.7742C14.4698 13.3367 14.3635 12.982 14.151 12.7101C13.9416 12.4382 13.6698 12.2554 13.3354 12.1617V12.1429C13.6041 12.0492 13.8291 11.8835 14.0104 11.646C14.1916 11.4085 14.2823 11.1023 14.2823 10.7273C14.2823 10.1023 14.0557 9.64448 13.6026 9.35386C13.1526 9.06323 12.5323 8.91792 11.7416 8.91792H9.16819V15.7429ZM10.5041 14.796V12.6492H11.8776C12.3088 12.6492 12.6244 12.746 12.8244 12.9398C13.0276 13.1304 13.1291 13.3914 13.1291 13.7226C13.1291 14.0539 13.0276 14.3164 12.8244 14.5101C12.6244 14.7007 12.3088 14.796 11.8776 14.796H10.5041ZM10.5041 11.7351V9.8648H11.7369C12.1651 9.8648 12.4729 9.94605 12.6604 10.1085C12.851 10.2679 12.9463 10.496 12.9463 10.7929C12.9463 11.0898 12.851 11.321 12.6604 11.4867C12.4729 11.6523 12.1651 11.7351 11.7369 11.7351H10.5041Z" fill="white"/>
</svg>
