<svg width="24" height="24" viewBox="0 0 24 24" fill="none" xmlns="http://www.w3.org/2000/svg">
<rect x="0.342857" y="0.342857" width="23.3143" height="23.3143" rx="6.51429" fill="#FCFCFC" fill-opacity="0.1" stroke="white" stroke-width="0.685714"/>
<path d="M6.14006 15.7429H7.08694V12.6164H10.6776V15.7429H11.6198V8.91792H10.6776V11.8289H7.08694V8.91792H6.14006V15.7429ZM12.8901 15.7429H17.6104V14.9414H14.0901L16.0869 12.9585C16.4619 12.5898 16.7776 12.2257 17.0338 11.8664C17.2932 11.507 17.4229 11.1039 17.4229 10.657C17.4229 10.1539 17.2213 9.7148 16.8182 9.3398C16.4151 8.9648 15.8854 8.7773 15.2291 8.7773C14.5604 8.7773 14.0026 8.98042 13.5557 9.38667C13.1119 9.79292 12.8901 10.3085 12.8901 10.9335V10.9804H13.8276V10.9335C13.8276 10.5117 13.9604 10.1789 14.226 9.93511C14.4948 9.69136 14.8291 9.56948 15.2291 9.56948C15.6229 9.56948 15.9307 9.68198 16.1526 9.90698C16.3744 10.132 16.4854 10.3976 16.4854 10.7039C16.4854 11.007 16.3963 11.2898 16.2182 11.5523C16.0401 11.8148 15.7885 12.1085 15.4635 12.4335L12.8901 15.0304V15.7429Z" fill="white"/>
</svg>
