<svg width="24" height="24" viewBox="0 0 24 24" fill="none" xmlns="http://www.w3.org/2000/svg">
<rect x="0.342857" y="0.342857" width="23.3143" height="23.3143" rx="6.51429" fill="#FCFCFC" fill-opacity="0.1" stroke="white" stroke-width="0.685714"/>
<path d="M10.5979 15.7429H11.5119L12.4026 10.6851H11.4885L10.5979 15.7429ZM11.6573 9.22261C11.6291 9.37261 11.6526 9.49917 11.7276 9.6023C11.8057 9.70542 11.9338 9.75698 12.1119 9.75698C12.2901 9.75698 12.4354 9.70542 12.5479 9.6023C12.6604 9.49917 12.7307 9.37261 12.7588 9.22261C12.7838 9.07261 12.7573 8.94761 12.6791 8.84761C12.601 8.74448 12.4744 8.69292 12.2994 8.69292C12.1213 8.69292 11.976 8.74448 11.8635 8.84761C11.751 8.94761 11.6823 9.07261 11.6573 9.22261Z" fill="white"/>
</svg>
