<svg width="24" height="24" viewBox="0 0 24 24" fill="none" xmlns="http://www.w3.org/2000/svg">
<rect x="0.342857" y="0.342857" width="23.3143" height="23.3143" rx="6.51429" fill="#FCFCFC" fill-opacity="0.1" stroke="white" stroke-width="0.685714"/>
<path d="M10.9504 9.19136H17.8254C17.9203 9.19136 17.9972 9.11449 17.9972 9.01957C17.9972 8.92466 17.9203 8.84778 17.8254 8.84778H14.3879H10.9504C10.8554 8.84778 10.7786 8.92466 10.7786 9.01957C10.7786 9.11449 10.8554 9.19136 10.9504 9.19136Z" fill="white" stroke="white" stroke-width="0.1"/>
<path d="M17.8254 12.379H10.9504C10.8554 12.379 10.7786 12.4559 10.7786 12.5508C10.7786 12.6457 10.8554 12.7226 10.9504 12.7226H17.8254C17.9203 12.7226 17.9972 12.6457 17.9972 12.5508C17.9972 12.4559 17.9203 12.379 17.8254 12.379Z" fill="white" stroke="white" stroke-width="0.1"/>
<path d="M17.8254 15.8087H10.9504C10.8554 15.8087 10.7786 15.8856 10.7786 15.9805C10.7786 16.0754 10.8554 16.1523 10.9504 16.1523H17.8254C17.9203 16.1523 17.9972 16.0754 17.9972 15.9805C17.9972 15.8856 17.9203 15.8087 17.8254 15.8087Z" fill="white" stroke="white" stroke-width="0.1"/>
<path d="M8.02851 7.99377C7.46295 7.99377 7.00281 8.45392 7.00281 9.01947C7.00281 9.58504 7.46295 10.0452 8.02851 10.0452C8.59408 10.0452 9.05422 9.58504 9.05422 9.01947C9.05422 8.45392 8.59408 7.99377 8.02851 7.99377ZM8.02851 9.71252C7.64633 9.71252 7.33547 9.40167 7.33547 9.01947C7.33547 8.63729 7.64633 8.32644 8.02851 8.32644C8.4107 8.32644 8.72156 8.63729 8.72156 9.01947C8.72156 9.40167 8.4107 9.71252 8.02851 9.71252Z" fill="white" stroke="white" stroke-width="0.1"/>
<path d="M8.02851 11.5251C7.46295 11.5251 7.00281 11.9853 7.00281 12.5508C7.00281 13.1164 7.46295 13.5766 8.02851 13.5766C8.59408 13.5766 9.05422 13.1164 9.05422 12.5508C9.05422 11.9853 8.59408 11.5251 8.02851 11.5251ZM8.02851 13.2439C7.64633 13.2439 7.33547 12.933 7.33547 12.5508C7.33547 12.1687 7.64633 11.8578 8.02851 11.8578C8.4107 11.8578 8.72156 12.1687 8.72156 12.5508C8.72156 12.933 8.4107 13.2439 8.02851 13.2439Z" fill="white"/>
<path d="M8.02851 14.9547C7.46295 14.9547 7.00281 15.4149 7.00281 15.9804C7.00281 16.546 7.46295 17.0061 8.02851 17.0061C8.59408 17.0061 9.05422 16.546 9.05422 15.9804C9.05422 15.4149 8.59408 14.9547 8.02851 14.9547ZM8.02851 16.6735C7.64633 16.6735 7.33547 16.3626 7.33547 15.9804C7.33547 15.5982 7.64633 15.2874 8.02851 15.2874C8.4107 15.2874 8.72156 15.5982 8.72156 15.9804C8.72156 16.3626 8.4107 16.6735 8.02851 16.6735Z" fill="white"/>
</svg>
