<svg width="24" height="19" viewBox="0 0 24 19" fill="none" xmlns="http://www.w3.org/2000/svg">
<path d="M9.04199 -0.375L8.38281 -0.295898C8.38281 -0.295898 5.42639 0.0271 3.26758 1.76074H3.24121L3.21484 1.78711C2.73035 2.23206 2.51941 2.77917 2.18652 3.58008C1.85364 4.38098 1.49768 5.40271 1.18457 6.5332C0.55835 8.79749 0.0507812 11.5397 0.0507812 14.0479V14.2588L0.15625 14.4697C0.937378 15.8408 2.32495 16.7142 3.61035 17.3174C4.89575 17.9205 6.00647 18.2402 6.77441 18.2666L7.27539 18.293L7.53906 17.8447L8.46191 16.21C9.4408 16.4308 10.568 16.5791 11.8633 16.5791C13.1586 16.5791 14.2858 16.4308 15.2646 16.21L16.1875 17.8447L16.4512 18.293L16.9521 18.2666C17.7201 18.2402 18.8308 17.9205 20.1162 17.3174C21.4016 16.7142 22.7892 15.8408 23.5703 14.4697L23.6758 14.2588V14.0479C23.6758 11.5397 23.1682 8.79749 22.542 6.5332C22.2289 5.40271 21.8729 4.38098 21.54 3.58008C21.2072 2.77917 20.9962 2.23206 20.5117 1.78711L20.4854 1.76074H20.459C18.3002 0.0271 15.3438 -0.295898 15.3438 -0.295898L14.6846 -0.375L14.4473 0.231445C14.4473 0.231445 14.2034 0.847779 14.0518 1.5498C13.0959 1.42126 12.3148 1.3916 11.8633 1.3916C11.4117 1.3916 10.6306 1.42126 9.6748 1.5498C9.52319 0.847779 9.2793 0.231445 9.2793 0.231445L9.04199 -0.375ZM7.88184 1.5498C7.91809 1.66846 7.95435 1.77063 7.9873 1.86621C6.89636 2.13648 5.73291 2.54846 4.66504 3.21094L5.56152 4.63477C7.75 3.27686 10.8943 3.0791 11.8633 3.0791C12.8323 3.0791 15.9766 3.27686 18.165 4.63477L19.0615 3.21094C17.9937 2.54846 16.8302 2.13648 15.7393 1.86621C15.7722 1.77063 15.8085 1.66846 15.8447 1.5498C16.6324 1.70801 18.1354 2.07056 19.3779 3.05273C19.3713 3.05603 19.6943 3.54382 19.9844 4.23926C20.281 4.95447 20.6106 5.90698 20.9072 6.98145C21.4774 9.04138 21.9257 11.5496 21.9619 13.7578C21.4313 14.5686 20.4458 15.3003 19.4043 15.7881C18.4946 16.2133 17.7761 16.3682 17.3477 16.4473L16.9258 15.7354C17.1763 15.6431 17.4235 15.5409 17.6377 15.4453C18.9363 14.8751 19.6416 14.2588 19.6416 14.2588L18.5342 12.9932C18.5342 12.9932 18.0596 13.4282 16.9521 13.916C15.8447 14.4038 14.1539 14.8916 11.8633 14.8916C9.57263 14.8916 7.88184 14.4038 6.77441 13.916C5.66699 13.4282 5.19238 12.9932 5.19238 12.9932L4.08496 14.2588C4.08496 14.2588 4.79028 14.8751 6.08887 15.4453C6.3031 15.5409 6.55029 15.6431 6.80078 15.7354L6.37891 16.4473C5.95044 16.3682 5.23193 16.2133 4.32227 15.7881C3.28076 15.3003 2.29529 14.5686 1.76465 13.7578C1.8009 11.5496 2.24915 9.04138 2.81934 6.98145C3.11597 5.90698 3.44556 4.95447 3.74219 4.23926C4.03223 3.54382 4.35523 3.05603 4.34863 3.05273C5.59119 2.07056 7.09412 1.70801 7.88184 1.5498ZM8.91016 7.29785C8.25757 7.29785 7.68079 7.67029 7.32812 8.1416C6.97546 8.61292 6.80078 9.19299 6.80078 9.8291C6.80078 10.4652 6.97546 11.0453 7.32812 11.5166C7.68079 11.9879 8.25757 12.3604 8.91016 12.3604C9.56274 12.3604 10.1395 11.9879 10.4922 11.5166C10.8448 11.0453 11.0195 10.4652 11.0195 9.8291C11.0195 9.19299 10.8448 8.61292 10.4922 8.1416C10.1395 7.67029 9.56274 7.29785 8.91016 7.29785ZM14.8164 7.29785C14.1638 7.29785 13.587 7.67029 13.2344 8.1416C12.8817 8.61292 12.707 9.19299 12.707 9.8291C12.707 10.4652 12.8817 11.0453 13.2344 11.5166C13.587 11.9879 14.1638 12.3604 14.8164 12.3604C15.469 12.3604 16.0458 11.9879 16.3984 11.5166C16.7511 11.0453 16.9258 10.4652 16.9258 9.8291C16.9258 9.19299 16.7511 8.61292 16.3984 8.1416C16.0458 7.67029 15.469 7.29785 14.8164 7.29785ZM8.91016 8.98535C8.9563 8.98535 9.01562 9.00183 9.12109 9.14355C9.22656 9.28528 9.33203 9.53247 9.33203 9.8291C9.33203 10.1257 9.22656 10.3729 9.12109 10.5146C9.01562 10.6564 8.9563 10.6729 8.91016 10.6729C8.86401 10.6729 8.80469 10.6564 8.69922 10.5146C8.59375 10.3729 8.48828 10.1257 8.48828 9.8291C8.48828 9.53247 8.59375 9.28528 8.69922 9.14355C8.80469 9.00183 8.86401 8.98535 8.91016 8.98535ZM14.8164 8.98535C14.8625 8.98535 14.9219 9.00183 15.0273 9.14355C15.1328 9.28528 15.2383 9.53247 15.2383 9.8291C15.2383 10.1257 15.1328 10.3729 15.0273 10.5146C14.9219 10.6564 14.8625 10.6729 14.8164 10.6729C14.7703 10.6729 14.7109 10.6564 14.6055 10.5146C14.5 10.3729 14.3945 10.1257 14.3945 9.8291C14.3945 9.53247 14.5 9.28528 14.6055 9.14355C14.7109 9.00183 14.7703 8.98535 14.8164 8.98535Z" fill="white"/>
</svg>
