<svg width="35" height="35" viewBox="0 0 35 35" fill="none" xmlns="http://www.w3.org/2000/svg">
<path fill-rule="evenodd" clip-rule="evenodd" d="M29.9386 4.36328L30.0589 4.68594L30.1163 4.85L30.1737 5.00859L30.2776 5.33125L30.3269 5.49258L30.4198 5.80977L30.4636 5.96836L30.5073 6.12422L30.5483 6.28008L30.5866 6.43594L30.6222 6.58906L30.6577 6.74492L30.6905 6.89531L30.7233 7.04844L30.7534 7.19883L30.7835 7.34648L30.8108 7.49414L30.8354 7.6418L30.8601 7.78672L30.9257 8.21328L30.9421 8.35273L30.9612 8.48945L30.9776 8.62617L30.9913 8.76016L31.0077 8.89141L31.0187 9.02266L31.0405 9.27969L31.0651 9.64883L31.0761 9.88398L31.0815 9.99883L31.0843 10.1109L31.087 10.2203L31.0897 10.327V10.6359L31.0843 10.8273L31.0815 10.9203L31.0761 11.0953L31.0706 11.1801L31.0597 11.3387L31.0487 11.4863L31.0405 11.5547L31.0351 11.6203L31.0269 11.6832L31.0104 11.798L31.0022 11.85L30.994 11.8992L30.9831 11.9457L31.0597 12.0277L31.1335 12.1125L31.2101 12.1973L31.2812 12.2793L31.3522 12.3641L31.4233 12.4516L31.4944 12.5363L31.6312 12.7113L31.6968 12.7988L31.7651 12.8891L31.828 12.9766L31.8937 13.0668L31.9565 13.157L32.0167 13.25L32.0769 13.3402L32.1972 13.5262L32.2546 13.6219L32.3093 13.7148L32.3667 13.8105L32.4214 13.9062L32.4733 14.002L32.5772 14.1988L32.6265 14.2973L32.6757 14.3984L32.7222 14.4969L32.7687 14.598L32.8151 14.702L32.8589 14.8031L32.9026 14.9098L32.9437 15.0137L32.9819 15.1176L33.0229 15.2242L33.0612 15.3309L33.1679 15.659L33.2007 15.7684L33.2335 15.8805L33.2636 15.9926L33.2909 16.1074L33.321 16.2223L33.3483 16.3371L33.3729 16.452L33.3976 16.5695L33.4194 16.6871L33.4413 16.8074L33.4796 17.048L33.4987 17.1711L33.5151 17.2941L33.5288 17.4172L33.5425 17.543L33.5534 17.6687L33.5753 17.9258L33.5808 18.0543L33.589 18.1855L33.5944 18.3168L33.5972 18.448L33.5999 18.5848V18.8637L33.5972 19.0113L33.5944 19.1562L33.589 19.4406L33.5835 19.5828L33.578 19.7223L33.5698 19.8617L33.5452 20.2719L33.5315 20.4059L33.5206 20.5398L33.5097 20.6711L33.496 20.8051L33.4823 20.9336L33.4659 21.0648L33.4522 21.1906L33.4358 21.3191L33.4167 21.4449L33.4003 21.5707L33.3812 21.6937L33.3593 21.8168L33.3401 21.9398L33.2964 22.1805L33.2718 22.298L33.2499 22.4156L33.2253 22.5332L33.2007 22.648L33.146 22.8777L33.0913 23.102L33.0612 23.2141L33.0011 23.4328L32.971 23.5395L32.8726 23.8594L32.837 23.9633L32.8042 24.0672L32.7331 24.2695L32.6948 24.3707L32.6565 24.4691L32.621 24.5676L32.5827 24.666L32.4597 24.9531L32.4214 25.0461L32.3776 25.1391L32.3366 25.232L32.2054 25.5027L32.1616 25.5902L32.0687 25.7652L32.0222 25.85L31.9757 25.9375L31.9292 26.0195L31.88 26.1043L31.7815 26.2684L31.7323 26.3477L31.6831 26.4297L31.6312 26.509L31.5819 26.5855L31.53 26.6648L31.478 26.7414L31.4261 26.8152L31.3714 26.8918L31.3194 26.9656L31.2647 27.0395L31.2101 27.1105L31.1554 27.1844L31.1007 27.2555L31.0433 27.3238L30.9886 27.3949L30.8737 27.5316L30.8163 27.5973L30.7589 27.6656L30.7015 27.7312L30.6413 27.7969L30.5839 27.8598L30.4034 28.0484L30.2229 28.2289L30.1601 28.2863L30.0972 28.3465L30.037 28.4039L29.9741 28.4613L29.9112 28.516L29.8483 28.5734L29.7854 28.6281L29.7198 28.6801L29.6569 28.7348L29.5913 28.7867L29.5284 28.8387L29.3972 28.9426L29.3315 28.9918L29.2687 29.041L29.203 29.0902L29.1347 29.1395L28.9378 29.2789L28.8694 29.3254L28.8038 29.3691L28.6671 29.4566L28.6015 29.5004L28.5331 29.5414L28.4647 29.5852L28.328 29.6672L28.2597 29.7055L28.1913 29.7465L27.9862 29.8613L27.9151 29.8996L27.7101 30.0062L27.639 30.0418L27.4995 30.1102L27.3601 30.1758L27.0812 30.3016L26.9417 30.3617L26.8022 30.4191L26.6628 30.4738L26.5206 30.5285L26.3812 30.5805L26.1022 30.6789L25.9628 30.7254L25.8261 30.7691L25.6866 30.8129L25.5472 30.8539L25.2737 30.9305L25.0003 31.0016L24.8663 31.0344L24.7296 31.0645L24.5983 31.0945L24.4644 31.1246L24.3331 31.152L24.1991 31.1766L23.9421 31.2258L23.6851 31.2695L23.5593 31.2887L23.4362 31.3051L23.3132 31.3242L23.1901 31.3406L22.9495 31.368L22.8319 31.3816L22.7171 31.3953L22.6022 31.4062L22.4901 31.4172L22.378 31.4254L22.2687 31.4336L22.162 31.4445L22.0554 31.45L21.9515 31.4582L21.8503 31.4637L21.6534 31.4719L21.4647 31.4801L21.2843 31.4855L21.1147 31.491L20.9534 31.4937H20.803L20.6608 31.4965H19.2636L17.4999 31.4992L15.7362 31.4965H14.339L14.1968 31.4937H14.0464L13.8851 31.491L13.7155 31.4855L13.5351 31.4801L13.3464 31.4719L13.1495 31.4637L13.0483 31.4582L12.9444 31.45L12.8378 31.4445L12.7312 31.4336L12.6218 31.4254L12.5097 31.4172L12.3976 31.4062L12.2827 31.3953L12.1679 31.3816L12.0503 31.368L11.8097 31.3406L11.6866 31.3242L11.5636 31.3051L11.4405 31.2887L11.3147 31.2695L11.0577 31.2258L10.8007 31.1766L10.6667 31.152L10.5354 31.1246L10.4015 31.0945L10.2702 31.0645L10.1335 31.0344L9.99951 31.0016L9.72607 30.9305L9.45264 30.8539L9.31318 30.8129L9.17373 30.7691L9.03701 30.7254L8.89756 30.6789L8.61865 30.5805L8.4792 30.5285L8.33701 30.4738L8.19756 30.4191L8.05811 30.3617L7.91865 30.3016L7.63975 30.1758L7.50029 30.1102L7.36084 30.0418L7.28975 30.0062L7.08467 29.8996L7.01357 29.8613L6.8085 29.7465L6.74014 29.7055L6.67178 29.6672L6.53506 29.5852L6.4667 29.5414L6.39834 29.5004L6.33271 29.4566L6.196 29.3691L6.13037 29.3254L6.06201 29.2789L5.86514 29.1395L5.79678 29.0902L5.73115 29.041L5.66826 28.9918L5.60264 28.9426L5.47139 28.8387L5.4085 28.7867L5.34287 28.7348L5.27998 28.6801L5.21436 28.6281L5.15146 28.5734L5.08857 28.516L5.02568 28.4613L4.96279 28.4039L4.90264 28.3465L4.83975 28.2863L4.77686 28.2289L4.59639 28.0484L4.41592 27.8598L4.3585 27.7969L4.29834 27.7312L4.24092 27.6656L4.1835 27.5973L4.12607 27.5316L4.01123 27.3949L3.95654 27.3238L3.89912 27.2555L3.84443 27.1844L3.78975 27.1105L3.73506 27.0395L3.68037 26.9656L3.62842 26.8918L3.57373 26.8152L3.52178 26.7414L3.46982 26.6648L3.41787 26.5855L3.36865 26.509L3.3167 26.4297L3.26748 26.3477L3.21826 26.2684L3.11982 26.1043L3.07061 26.0195L3.02412 25.9375L2.97764 25.85L2.93115 25.7652L2.83818 25.5902L2.79443 25.5027L2.66318 25.232L2.62217 25.1391L2.57842 25.0461L2.54014 24.9531L2.41709 24.666L2.37881 24.5676L2.34326 24.4691L2.30498 24.3707L2.2667 24.2695L2.19561 24.0672L2.16279 23.9633L2.12725 23.8594L2.02881 23.5395L1.99873 23.4328L1.93857 23.2141L1.9085 23.102L1.85381 22.8777L1.79912 22.648L1.77451 22.5332L1.7499 22.4156L1.72803 22.298L1.70342 22.1805L1.65967 21.9398L1.64053 21.8168L1.61865 21.6937L1.59951 21.5707L1.58311 21.4449L1.56396 21.3191L1.54756 21.1906L1.53389 21.0648L1.51748 20.9336L1.50381 20.8051L1.49014 20.6711L1.4792 20.5398L1.46826 20.4059L1.45459 20.2719L1.42998 19.8617L1.42178 19.7223L1.41631 19.5828L1.41084 19.4406L1.40537 19.1562L1.40264 19.0113L1.3999 18.8637V18.5848L1.40264 18.448L1.40537 18.3168L1.41084 18.1855L1.41904 18.0543L1.42451 17.9258L1.44639 17.6687L1.45732 17.543L1.471 17.4172L1.48467 17.2941L1.50107 17.1711L1.52021 17.048L1.5585 16.8074L1.58037 16.6871L1.60225 16.5695L1.62686 16.452L1.65146 16.3371L1.67881 16.2223L1.70889 16.1074L1.73623 15.9926L1.76631 15.8805L1.79912 15.7684L1.83193 15.659L1.93857 15.3309L1.97686 15.2242L2.01787 15.1176L2.05615 15.0137L2.09717 14.907L2.14092 14.8031L2.18467 14.702L2.23115 14.598L2.27764 14.4969L2.32412 14.3984L2.37334 14.2973L2.42256 14.1988L2.52646 14.002L2.57842 13.9062L2.63311 13.8105L2.69053 13.7148L2.74521 13.6219L2.80264 13.5262L2.92295 13.3402L2.98311 13.25L3.04326 13.157L3.10615 13.0668L3.17178 12.9766L3.23467 12.8891L3.30303 12.7988L3.36865 12.7113L3.50537 12.5363L3.57646 12.4516L3.64756 12.3641L3.71865 12.2793L3.78975 12.1973L3.86631 12.1125L3.94014 12.0277L4.0167 11.9457L4.00576 11.8965L3.99756 11.8445L3.98662 11.7871L3.97842 11.7297L3.97021 11.6668L3.96201 11.6012L3.95381 11.5328L3.94834 11.4617L3.94014 11.3879L3.93467 11.3113L3.9292 11.232L3.92373 11.15L3.91826 11.0652L3.91553 10.9777L3.91006 10.8875L3.90732 10.7945L3.90459 10.6988V10.2914L3.90732 10.1848L3.91006 10.0754L3.91279 9.96328L3.91826 9.84844L3.921 9.73359L3.9292 9.61328L3.93467 9.4957L3.94287 9.37266L3.96475 9.12109L3.97568 8.99258L3.98936 8.86406L4.00303 8.73281L4.0167 8.59883L4.03311 8.46484L4.05225 8.32813L4.09053 8.04922L4.1124 7.90977L4.13701 7.76758L4.18623 7.47773L4.21357 7.33008L4.27373 7.03477L4.30654 6.88438L4.33936 6.73125L4.3749 6.58086L4.41318 6.42773L4.45146 6.27188L4.49248 6.11602L4.57998 5.8043L4.62373 5.6457L4.72217 5.32852L4.77412 5.16992L4.8835 4.84727L4.94092 4.68594L5.06123 4.36328L5.12686 4.19922L5.1624 4.20469L5.20889 4.21016L5.27178 4.22109L5.35107 4.23477L5.44951 4.25391L5.56436 4.27578L5.69561 4.30586L5.7667 4.32227L5.84326 4.33867L5.92256 4.35781L6.00732 4.37969L6.09482 4.40156L6.18779 4.42891L6.28076 4.45352L6.38193 4.48359L6.58975 4.54375L6.70186 4.5793L6.8167 4.61758L6.93428 4.65586L7.05459 4.69688L7.18037 4.73789L7.30889 4.78438L7.44287 4.83086L7.57686 4.88281L7.71631 4.93477L7.8585 4.99219L8.00615 5.04961L8.15381 5.10977L8.30693 5.17266L8.46279 5.24102L8.62139 5.30938L8.78545 5.38047L8.94951 5.45703L9.28857 5.61563L9.46357 5.70039L9.64131 5.79063L10.0077 5.97383L10.1937 6.07227L10.3823 6.17344L10.5737 6.28008L10.7706 6.38945L10.9675 6.50156L11.1671 6.61641L11.3722 6.73672L11.5772 6.85977L11.7851 6.98828L11.9983 7.11953L12.2116 7.25352L12.3183 7.32461L12.4276 7.39297L12.537 7.46406L12.7558 7.61172L12.8679 7.68555L12.9772 7.76211L13.0894 7.83867L13.1878 7.81133L13.2862 7.78672L13.3929 7.76211L13.4995 7.74023L13.6116 7.71836L13.7265 7.69648L13.844 7.67461L13.9644 7.65547L14.2159 7.61719L14.4784 7.58438L14.7519 7.55156L14.8913 7.53789L15.0335 7.52695L15.1784 7.51328L15.3261 7.50234L15.4737 7.48867L15.6214 7.48047L15.7745 7.46953L16.0808 7.45313L16.2339 7.44766L16.3897 7.44219L16.5483 7.43672L16.7042 7.43125L17.0214 7.42578L17.1827 7.42305H17.3413L17.4999 7.42031L17.6585 7.42305H17.8171L17.9784 7.42578L18.2956 7.43125L18.4515 7.43672L18.6101 7.44219L18.7659 7.44766L18.919 7.45313L19.0749 7.46133L19.2253 7.46953L19.3784 7.48047L19.5261 7.48867L19.6737 7.50234L19.8214 7.51328L19.9663 7.52695L20.1085 7.53789L20.2479 7.55156L20.5214 7.58438L20.7839 7.61719L21.0354 7.65547L21.1558 7.67461L21.2733 7.69648L21.3882 7.71836L21.5003 7.74023L21.6069 7.76484L21.7136 7.78672L21.812 7.81133L21.9077 7.83867L22.0226 7.76211L22.1319 7.68555L22.244 7.61172L22.4628 7.46406L22.5722 7.39297L22.6815 7.32461L22.7882 7.25352L23.0015 7.11953L23.212 6.98828L23.4226 6.85977L23.6276 6.73672L23.8327 6.61641L24.0323 6.50156L24.2292 6.38945L24.4261 6.28008L24.6175 6.17344L24.8062 6.07227L24.9921 5.97383L25.3585 5.79063L25.5362 5.70039L25.7112 5.61836L25.8808 5.53633L26.0503 5.45703L26.3784 5.30938L26.537 5.24102L26.6929 5.17266L26.846 5.10977L26.9937 5.04961L27.1413 4.99219L27.2835 4.93477L27.4229 4.88281L27.5569 4.83086L27.6909 4.78438L27.8194 4.73789L27.9452 4.69688L28.0655 4.65586L28.1831 4.61758L28.2979 4.5793L28.4101 4.54375L28.5167 4.51367L28.719 4.45352L28.8147 4.42891L28.905 4.40156L28.9925 4.37969L29.0772 4.35781L29.1565 4.33867L29.2331 4.32227L29.3042 4.30586L29.4354 4.27578L29.5503 4.25391L29.6487 4.23477L29.7308 4.22109L29.7937 4.21016L29.8374 4.20469L29.8757 4.19922L29.9386 4.36328ZM11.4405 17.398L11.2847 17.4008L11.1315 17.4035L10.9784 17.409L10.828 17.4172L10.5327 17.4391L10.4589 17.4473L10.3878 17.4555L10.314 17.4637L10.1718 17.4801L10.0296 17.502L9.96123 17.5102L9.89014 17.5238L9.82178 17.5348L9.6167 17.5758L9.54834 17.5922L9.48271 17.6059L9.41436 17.625L9.28311 17.6578L9.21748 17.677L9.15459 17.6961L9.08896 17.718L9.02607 17.7371L8.96318 17.759L8.90029 17.7836L8.8374 17.8055L8.77451 17.8301L8.71436 17.8547L8.65146 17.882L8.53115 17.9367L8.47373 17.9641L8.41357 17.9941L8.35615 18.0242L8.12646 18.1555L8.07178 18.191L8.01436 18.2266L7.95967 18.2648L7.90771 18.3031L7.85303 18.3414L7.79834 18.3824L7.74639 18.4234L7.59053 18.5547L7.54131 18.6012L7.48115 18.6559L7.421 18.7133L7.36357 18.768L7.30615 18.8254L7.19678 18.9402L7.09287 19.0551L7.04092 19.1152L6.98896 19.1727L6.93975 19.2328L6.89326 19.2902L6.75381 19.4707L6.71006 19.5309L6.66904 19.5937L6.62529 19.6539L6.58428 19.7141L6.50771 19.8398L6.4667 19.9027L6.36006 20.0914L6.32725 20.1543L6.2917 20.2199L6.26162 20.2828L6.22881 20.3457L6.19873 20.4113L6.17139 20.477L6.14131 20.5426L6.11396 20.6082L6.08936 20.6738L6.06201 20.7395L6.04014 20.8051L6.01553 20.8707L5.99092 20.9391L5.96904 21.0047L5.9499 21.073L5.93076 21.1387L5.89248 21.2754L5.84326 21.4805L5.80225 21.6855L5.79131 21.7566L5.78037 21.825L5.76943 21.8961L5.7585 21.9645L5.74209 22.1066L5.73662 22.1777L5.73115 22.2461L5.72021 22.3883L5.71475 22.5305L5.71201 22.6043L5.70928 22.6754V22.7465L5.71201 22.8969L5.71475 23.0445L5.72021 23.1895L5.72568 23.3316L5.73389 23.4738L5.74482 23.6133L5.75576 23.75L5.76943 23.8867L5.78584 24.0207L5.80225 24.152L5.82139 24.2832L5.84326 24.409L5.86787 24.5375L5.88975 24.6605L5.91709 24.7836L5.94443 24.9039L5.96084 24.9641L5.97451 25.0242L5.99092 25.0816L6.00732 25.1418L6.04014 25.2566L6.05928 25.3141L6.07568 25.3687L6.09482 25.4262L6.11123 25.4809L6.13037 25.5383L6.14951 25.593L6.17139 25.6477L6.19053 25.7023L6.2124 25.7543L6.23154 25.8062L6.25342 25.8609L6.29717 25.9648L6.32178 26.0168L6.34365 26.066L6.36826 26.118L6.39014 26.1672L6.41475 26.2164L6.43936 26.2684L6.46396 26.3176L6.49131 26.3641L6.51592 26.4133L6.54326 26.4625L6.67998 26.6949L6.71006 26.7387L6.7374 26.7852L6.88779 27.0039L6.92061 27.0477L6.95068 27.0887L6.9835 27.1297L7.01631 27.1734L7.04912 27.2145L7.11475 27.2937L7.18311 27.3758L7.25146 27.4523L7.32529 27.5289L7.39639 27.6055L7.47021 27.6793L7.54404 27.7504L7.62334 27.8215L7.6999 27.8926L7.7792 27.9609L8.02529 28.1578L8.11006 28.2207L8.37256 28.4012L8.46279 28.4586L8.55576 28.516L8.7417 28.6254L8.93311 28.7293L9.12998 28.8277L9.23115 28.877L9.32959 28.9234L9.4335 28.9699L9.64131 29.0574L9.74795 29.0984L9.85459 29.1422L10.1827 29.257L10.2948 29.2953L10.4069 29.3309L10.5218 29.3664L10.7515 29.432L10.869 29.4648L10.9866 29.4949L11.1069 29.525L11.2245 29.5551L11.3476 29.5824L11.4679 29.6098L11.5909 29.6371L11.7167 29.6617L11.8397 29.6863L11.9655 29.7109L12.2226 29.7547L12.3483 29.7766L12.6108 29.8148L12.7394 29.834L12.8733 29.8531L13.0046 29.8695L13.1413 29.8859L13.2753 29.9023L13.4093 29.916L13.546 29.9324L13.6854 29.9461L13.8222 29.957L13.9616 29.9707L14.2405 29.9926L14.3827 30.0035L14.5222 30.0145L14.6671 30.0227L14.8093 30.0309L15.0991 30.0473L15.389 30.0582L15.5366 30.0664L15.6843 30.0719L15.9796 30.0801L16.2804 30.0883L16.5812 30.0937L16.8847 30.0965L17.1909 30.0992H17.9073L18.2136 30.0965L18.5171 30.0937L18.8179 30.0883L19.1159 30.0801L19.4112 30.0719L19.5589 30.0664L19.7038 30.0582L19.8515 30.0527L19.9964 30.0473L20.1386 30.0391L20.2835 30.0309L20.5679 30.0145L20.7101 30.0035L21.1284 29.9707L21.2679 29.957L21.4046 29.9461L21.5413 29.9324L21.6753 29.916L21.8093 29.9023L22.0772 29.8695L22.2085 29.8531L22.471 29.8148L22.5995 29.7957L22.7308 29.7766L22.8565 29.7547L22.9851 29.7328L23.1108 29.7109L23.2339 29.6863L23.3597 29.6617L23.4827 29.6371L23.8437 29.5551L23.964 29.525L24.1991 29.4648L24.5437 29.3664L24.7679 29.2953L25.096 29.1805L25.2026 29.1422L25.3065 29.0984L25.4132 29.0574L25.5171 29.0137L25.6183 28.9699L25.8206 28.877L26.0175 28.7785L26.1132 28.7293L26.2089 28.6773L26.3019 28.6254L26.4878 28.516L26.578 28.4586L26.6655 28.4012L26.7558 28.341L26.9253 28.2207L27.0101 28.1578L27.1741 28.0266L27.2534 27.9609L27.3327 27.8926L27.4093 27.8215L27.5569 27.6793L27.6308 27.6055L27.7729 27.4523L27.8413 27.3758L27.9069 27.2937L27.9726 27.2145L28.0382 27.1297L28.1011 27.0477L28.2515 26.8289L28.2788 26.7852L28.3089 26.7387L28.3362 26.6949L28.4729 26.4625L28.5222 26.3641L28.5468 26.3176L28.5714 26.2684L28.596 26.2164L28.6452 26.118L28.6671 26.066L28.689 26.0168L28.7136 25.9648L28.7354 25.9129L28.7546 25.8609L28.7765 25.8062L28.7983 25.7543L28.8175 25.7023L28.8366 25.6477L28.8585 25.593L28.8776 25.5383L28.894 25.4809L28.9132 25.4262L28.9296 25.3687L28.9487 25.3141L28.9979 25.1418L29.028 25.0242L29.0581 24.9039L29.0854 24.7836L29.1128 24.6605L29.1374 24.5375L29.1593 24.409L29.1784 24.2832L29.2003 24.152L29.2167 24.0207L29.2304 23.8867L29.2577 23.6133L29.2659 23.4738L29.2823 23.1895L29.2878 23.0445L29.2905 22.8969V22.6754L29.2878 22.6043V22.5305L29.2851 22.4594L29.2796 22.3883L29.2769 22.3172L29.2714 22.2461L29.2659 22.1777L29.2413 21.9645L29.2331 21.8961L29.2222 21.825L29.2112 21.7566L29.1976 21.6855L29.1866 21.6172L29.1729 21.5488L29.1565 21.4805L29.1429 21.4121L29.1265 21.3437L29.1073 21.2754L29.0909 21.207L29.0718 21.1387L29.0499 21.073L29.0308 21.0047L29.0089 20.9391L28.9843 20.8707L28.9624 20.8051L28.9132 20.6738L28.8312 20.477L28.771 20.3457L28.7409 20.2828L28.7081 20.2199L28.6753 20.1543L28.5331 19.9027L28.4565 19.777L28.4155 19.7141L28.3335 19.5937L28.2897 19.5309L28.246 19.4707L28.1995 19.4105L28.1558 19.3504L28.1065 19.2902L28.0601 19.2328L28.0108 19.1727L27.9589 19.1152L27.9097 19.0551L27.8577 18.9977L27.6937 18.8254L27.6362 18.768L27.5788 18.7133L27.5187 18.6559L27.4612 18.6012L27.4093 18.5547L27.3601 18.5109L27.3081 18.4672L27.2534 18.4234L27.1495 18.3414L26.9854 18.2266L26.9308 18.191L26.8733 18.1555L26.8187 18.1227L26.6464 18.0242L26.5862 17.9941L26.5288 17.9641L26.2882 17.8547L26.2253 17.8301L26.1651 17.8055L26.1022 17.7836L26.0394 17.759L25.9765 17.7371L25.9108 17.718L25.8479 17.6961L25.7167 17.6578L25.5854 17.625L25.5198 17.6059L25.4515 17.5922L25.3858 17.5758L25.1808 17.5348L25.1097 17.5238L25.0413 17.5129L24.828 17.4801L24.6147 17.4555L24.4671 17.4391L24.396 17.4336L24.3222 17.4281L24.2456 17.4227L24.1718 17.4172L24.0214 17.409L23.871 17.4035L23.7151 17.4008L23.562 17.398L23.4034 17.3953L23.2476 17.398H23.0862L22.9276 17.4035L22.7636 17.4062L22.5995 17.4145L22.4354 17.4199L22.1019 17.4363L21.9323 17.4473L21.7628 17.4555L21.5905 17.4664L21.2433 17.491L20.5378 17.5402L20.1769 17.5648L19.8132 17.5895L19.6272 17.6004L19.444 17.6113L19.2581 17.6223L19.0722 17.6305L18.8835 17.6414L18.6976 17.6496L18.5062 17.6551L18.3175 17.6605L18.1261 17.666L17.7433 17.6715H17.2565L16.8737 17.666L16.6823 17.6605L16.305 17.6496L16.1163 17.6414L15.9276 17.6305L15.7417 17.6223L15.5558 17.6113L15.1894 17.5895L14.8229 17.5648L14.4647 17.5402L13.7565 17.491L13.4093 17.4664L13.2397 17.4555L13.0702 17.4473L12.9007 17.4363L12.7312 17.4281L12.5644 17.4199L12.4003 17.4145L12.2362 17.4062L12.0749 17.4035L11.9136 17.398H11.755L11.5964 17.3953L11.4405 17.398ZM23.1218 20.1406L23.1792 20.1461L23.2394 20.1488L23.3542 20.1652L23.4089 20.1762L23.4663 20.1898L23.521 20.2035L23.5784 20.2227L23.6331 20.2391L23.6851 20.2609L23.7397 20.2828L23.7917 20.3074L23.8464 20.332L23.8983 20.3594L23.9503 20.3895L23.9995 20.4195L24.0979 20.4852L24.1472 20.5207L24.1964 20.559L24.2894 20.6355L24.3358 20.6793L24.4233 20.7668L24.5108 20.8598L24.5929 20.9582L24.6339 21.0102L24.6722 21.0621L24.7104 21.1168L24.746 21.1715L24.7843 21.2289L24.8171 21.2863L24.8526 21.3465L24.8854 21.4039L24.9183 21.4668L25.0085 21.6555L25.0358 21.7211L25.0632 21.7895L25.0905 21.8551L25.1151 21.9234L25.137 21.9945L25.1589 22.0629L25.1808 22.134L25.1999 22.2078L25.219 22.2789L25.2519 22.4266L25.2792 22.5797L25.2929 22.6535L25.3011 22.7328L25.312 22.8094L25.3202 22.8887L25.3312 23.0473L25.3339 23.1266L25.3366 23.2086V23.3699L25.3339 23.452L25.3312 23.5312L25.3202 23.6898L25.312 23.7691L25.3011 23.8484L25.2929 23.925L25.2655 24.0781L25.2519 24.152L25.219 24.2996L25.1999 24.3734L25.1808 24.4445L25.137 24.5867L25.1151 24.6551L25.0878 24.7234L25.0632 24.7918L25.0085 24.923L24.9784 24.9859L24.9483 25.0516L24.9183 25.1145L24.8526 25.2348L24.8171 25.2922L24.7843 25.3523L24.746 25.407L24.7104 25.4645L24.6722 25.5164L24.6312 25.5684L24.5929 25.6203L24.5519 25.6723L24.5108 25.7187L24.4671 25.768L24.4233 25.8145L24.3358 25.902L24.2429 25.984L24.1964 26.0223L24.1472 26.0605L24.0979 26.0934L24.0487 26.1289L23.9995 26.1617L23.9503 26.1918L23.8983 26.2219L23.8464 26.2492L23.7917 26.2738L23.7397 26.2984L23.6851 26.3203L23.6331 26.3395L23.5784 26.3586L23.521 26.375L23.4663 26.3887L23.4089 26.4023L23.3542 26.4133L23.2394 26.4297L23.1792 26.4352L23.1218 26.4379H23.0042L22.9468 26.4352L22.8894 26.4297L22.7745 26.4133L22.7171 26.4023L22.6597 26.3887L22.605 26.375L22.5503 26.3586L22.4409 26.3203L22.3862 26.2984L22.3343 26.2738L22.2796 26.2492L22.2304 26.2219L22.1265 26.1617L22.0772 26.1289L22.028 26.0934L21.9788 26.0605L21.9296 26.0223L21.8831 25.984L21.8366 25.943L21.7929 25.902L21.7464 25.8582L21.7026 25.8145L21.6589 25.768L21.6151 25.7187L21.5741 25.6723L21.4921 25.5684L21.4155 25.4645L21.38 25.407L21.3417 25.3523L21.3089 25.2922L21.2733 25.2348L21.2077 25.1145L21.1776 25.0516L21.1476 24.9859L21.1175 24.923L21.0628 24.7918L20.989 24.5867L20.9452 24.4445L20.9261 24.3734L20.9069 24.2996L20.8741 24.152L20.8604 24.0781L20.8331 23.925L20.8222 23.8484L20.8058 23.6898L20.7894 23.452V23.3699L20.7866 23.2906L20.7894 23.2086V23.1266L20.8058 22.8887L20.814 22.8094L20.8222 22.7328L20.8331 22.6535L20.8468 22.5797L20.8741 22.4266L20.9069 22.2789L20.9261 22.2078L20.9452 22.134L20.9671 22.0629L20.989 21.9945L21.0136 21.9234L21.0382 21.8551L21.0628 21.7895L21.0901 21.7211L21.1175 21.6555L21.2077 21.4668L21.2405 21.4039L21.2733 21.3465L21.3089 21.2863L21.3417 21.2289L21.38 21.1715L21.4155 21.1168L21.4538 21.0621L21.4921 21.0102L21.5331 20.9582L21.6151 20.8598L21.7026 20.7668L21.7464 20.723L21.7929 20.6793L21.8366 20.6355L21.9296 20.559L21.9788 20.5207L22.028 20.4852L22.1265 20.4195L22.2304 20.3594L22.2796 20.332L22.3343 20.3074L22.3862 20.2828L22.4956 20.2391L22.5503 20.2227L22.605 20.2035L22.6597 20.1898L22.7171 20.1762L22.7745 20.1652L22.8894 20.1488L22.9468 20.1461L23.0042 20.1406H23.1218ZM11.9956 20.1406L12.053 20.1461L12.1104 20.1488L12.2253 20.1652L12.2827 20.1762L12.3401 20.1898L12.3948 20.2035L12.4495 20.2227L12.5042 20.2391L12.6136 20.2828L12.6655 20.3074L12.7202 20.332L12.7694 20.3594L12.8733 20.4195L12.9718 20.4852L13.021 20.5207L13.0702 20.559L13.1632 20.6355L13.2097 20.6793L13.2972 20.7668L13.3847 20.8598L13.4667 20.9582L13.5077 21.0102L13.546 21.0621L13.5843 21.1168L13.6198 21.1715L13.6581 21.2289L13.6909 21.2863L13.7265 21.3465L13.7593 21.4039L13.7921 21.4668L13.8823 21.6555L13.9097 21.7211L13.937 21.7895L13.9616 21.8551L13.9862 21.9234L14.0108 21.9945L14.0327 22.0629L14.0546 22.134L14.0737 22.2078L14.0929 22.2789L14.1257 22.4266L14.153 22.5797L14.1667 22.6535L14.1776 22.7328L14.1858 22.8094L14.194 22.8887L14.2104 23.1266V23.2086L14.2132 23.2906L14.2104 23.3699V23.452L14.194 23.6898L14.1776 23.8484L14.1667 23.925L14.1394 24.0781L14.1257 24.152L14.0929 24.2996L14.0737 24.3734L14.0546 24.4445L14.0108 24.5867L13.989 24.6551L13.9616 24.7234L13.937 24.7918L13.8823 24.923L13.8522 24.9859L13.8222 25.0516L13.7921 25.1145L13.7265 25.2348L13.6937 25.2922L13.6581 25.3523L13.6226 25.407L13.5843 25.4645L13.5077 25.5684L13.4257 25.6723L13.3847 25.7187L13.3409 25.768L13.2972 25.8145L13.2097 25.902L13.1167 25.984L13.0702 26.0223L13.021 26.0605L12.9718 26.0934L12.9226 26.1289L12.8733 26.1617L12.7694 26.2219L12.7202 26.2492L12.6655 26.2738L12.6136 26.2984L12.5589 26.3203L12.4495 26.3586L12.3948 26.375L12.3401 26.3887L12.2827 26.4023L12.2253 26.4133L12.1104 26.4297L12.053 26.4352L11.9956 26.4379H11.878L11.8206 26.4352L11.7604 26.4297L11.6456 26.4133L11.5909 26.4023L11.5335 26.3887L11.4788 26.375L11.4214 26.3586L11.3667 26.3395L11.3147 26.3203L11.2601 26.2984L11.2081 26.2738L11.1534 26.2492L11.1015 26.2219L11.0522 26.1918L11.0003 26.1617L10.9511 26.1289L10.9019 26.0934L10.8526 26.0605L10.8034 26.0223L10.7569 25.984L10.664 25.902L10.5765 25.8145L10.5327 25.768L10.489 25.7187L10.4479 25.6723L10.4069 25.6203L10.3687 25.5684L10.3276 25.5164L10.2894 25.4645L10.2538 25.407L10.2155 25.3523L10.1827 25.2922L10.1472 25.2348L10.0815 25.1145L10.0515 25.0516L10.0214 24.9859L9.99131 24.923L9.93662 24.7918L9.91201 24.7234L9.88467 24.6551L9.86279 24.5867L9.81904 24.4445L9.7999 24.3734L9.78076 24.2996L9.74795 24.152L9.73428 24.0781L9.70693 23.925L9.69873 23.8484L9.68779 23.7691L9.67959 23.6898L9.66865 23.5312L9.66592 23.452L9.66318 23.3699V23.2086L9.66592 23.1266L9.66865 23.0473L9.67959 22.8887L9.68779 22.8094L9.69873 22.7328L9.70693 22.6535L9.72061 22.5797L9.74795 22.4266L9.78076 22.2789L9.7999 22.2078L9.81904 22.134L9.84092 22.0629L9.86279 21.9945L9.88467 21.9234L9.91201 21.8551L9.93662 21.7895L9.96396 21.7211L9.99131 21.6555L10.0815 21.4668L10.1144 21.4039L10.1472 21.3465L10.1827 21.2863L10.2155 21.2289L10.2538 21.1715L10.2894 21.1168L10.3276 21.0621L10.3687 21.0102L10.4069 20.9582L10.489 20.8598L10.5765 20.7668L10.664 20.6793L10.7104 20.6355L10.8034 20.559L10.8526 20.5207L10.9019 20.4852L11.0003 20.4195L11.0522 20.3895L11.1015 20.3594L11.1534 20.332L11.2081 20.3074L11.2601 20.2828L11.3147 20.2609L11.3667 20.2391L11.4214 20.2227L11.4788 20.2035L11.5335 20.1898L11.5909 20.1762L11.6456 20.1652L11.7604 20.1488L11.8206 20.1461L11.878 20.1406H11.9956ZM6.01279 5.9L5.96631 6.04492L5.88428 6.33477L5.846 6.47695L5.80771 6.62188L5.77217 6.76133L5.73662 6.90352L5.70654 7.04297L5.67373 7.18516L5.64365 7.32188L5.58896 7.59531L5.56436 7.73203L5.53975 7.86328L5.51787 7.99727L5.496 8.12852L5.47686 8.25977L5.45771 8.38555L5.43857 8.51406L5.42217 8.63984L5.39482 8.88594L5.38115 9.00625L5.37021 9.12656L5.35928 9.24414L5.34834 9.35898L5.34014 9.47383L5.33193 9.5832L5.32646 9.69531L5.31553 9.90859L5.31279 10.0125L5.31006 10.1137L5.30459 10.2121V10.6715L5.30732 10.7563L5.31006 10.8383L5.31279 10.9176L5.31826 10.9941L5.321 11.0652L5.32646 11.1363L5.3292 11.2047L5.33467 11.2676L5.34014 11.3277L5.34834 11.3852L5.35381 11.4371L5.35928 11.4863L5.36475 11.5328L5.37021 11.5738L5.37842 11.6121L5.38389 11.6422L5.52334 12.3695L4.9792 12.9684L4.91357 13.0422L4.84795 13.1133L4.78506 13.1898L4.71943 13.2637L4.65928 13.3375L4.59639 13.4141L4.53896 13.4879L4.47881 13.5645L4.30654 13.7941L4.25186 13.8707L4.19717 13.95L4.14521 14.0266L4.04131 14.1852L3.94287 14.3437L3.89639 14.4258L3.84717 14.5078L3.80342 14.5871L3.75693 14.6691L3.71318 14.7512L3.66943 14.8359L3.62842 14.918L3.54639 15.0875L3.50811 15.175L3.46982 15.2598L3.43154 15.3473L3.36045 15.5223L3.32764 15.6125L3.29209 15.7027L3.26201 15.793L3.2292 15.8832L3.19912 15.9762L3.17178 16.0691L3.1417 16.1621L3.11709 16.2578L3.08975 16.3508L3.06514 16.4492L3.04053 16.5449L3.01865 16.6434L2.99678 16.7445L2.97764 16.843L2.95576 16.9441L2.93662 17.048L2.90381 17.2559L2.89014 17.3598L2.87646 17.4664L2.84912 17.6852L2.84092 17.7945L2.82998 17.9039L2.82178 18.0187L2.81631 18.1309L2.81084 18.2457L2.80537 18.3633L2.7999 18.5984V18.8555L2.80264 18.9922L2.80537 19.1262L2.80811 19.2629L2.81084 19.3941L2.82178 19.6566L2.82725 19.7852L2.84365 20.0422L2.85186 20.168L2.89561 20.6602L2.90928 20.7805L2.93662 21.0156L2.95303 21.1332L3.00225 21.4777L3.02139 21.5898L3.07881 21.918L3.10068 22.0273L3.14443 22.2406L3.16631 22.3445L3.21553 22.5523L3.26475 22.7547L3.29209 22.8531L3.3167 22.9516L3.34404 23.05L3.37412 23.1457L3.40146 23.2414L3.43154 23.3371L3.4917 23.523L3.55186 23.7035L3.58467 23.7937L3.61748 23.8812L3.65029 23.9715L3.68311 24.0562L3.71865 24.1437L3.75146 24.2285L3.78701 24.3133L3.82256 24.3953L3.86084 24.4773L3.89639 24.5594L3.93193 24.6387L3.97021 24.7207L4.0085 24.8L4.08506 24.9531L4.12607 25.0297L4.16436 25.1062L4.2874 25.3277L4.36943 25.4699L4.45693 25.6121L4.50068 25.6805L4.5417 25.7488L4.58818 25.8145L4.63193 25.8828L4.67568 25.9484L4.72217 26.0141L4.76592 26.077L4.8124 26.1426L4.85889 26.2055L4.90537 26.2656L4.91084 26.2738L4.90811 26.2629L4.88076 26.1973L4.85615 26.1316L4.83154 26.0633L4.80967 25.9977L4.78506 25.9293L4.76318 25.8609L4.74131 25.7953L4.71943 25.727L4.70029 25.6559L4.67842 25.5875L4.65928 25.5164L4.64014 25.448L4.60186 25.3059L4.58545 25.232L4.55264 25.0898L4.51982 24.9449L4.48975 24.7973L4.46514 24.6496L4.41592 24.3488L4.39678 24.1957L4.37764 24.0398L4.36123 23.884L4.34756 23.7254L4.33662 23.5668L4.32021 23.2441L4.31475 23.0801L4.30928 22.7465V22.659L4.31748 22.3965L4.33389 22.134L4.34209 22.0465L4.35029 21.9617L4.36123 21.8742L4.36943 21.7867L4.38311 21.6992L4.39404 21.6145L4.41045 21.527L4.42412 21.4395L4.44053 21.352L4.45693 21.2672L4.47607 21.1797L4.49521 21.0949L4.51436 21.0074L4.53896 20.9227L4.56084 20.8352L4.63467 20.5809L4.66475 20.4961L4.69209 20.4113L4.72217 20.3266L4.75225 20.2445L4.78506 20.1598L4.82061 20.0777L4.85342 19.993L4.88896 19.9109L5.00381 19.6648L5.04482 19.5828L5.08857 19.5035L5.12959 19.4215L5.17607 19.3422L5.21982 19.2629L5.26631 19.1836L5.36475 19.025L5.41396 18.9484L5.46592 18.8719L5.51787 18.7926L5.57256 18.716L5.62725 18.6422L5.68467 18.5656L5.79951 18.418L5.91982 18.2703L5.98271 18.1965L6.04561 18.1254L6.24248 17.9121L6.31084 17.8437L6.3792 17.7727L6.52139 17.6359L6.59521 17.5676L6.66084 17.5074L6.80303 17.3871L6.87412 17.3297L7.01631 17.2203L7.09014 17.1656L7.16396 17.1137L7.24053 17.0645L7.31436 17.0152L7.39092 16.966L7.46475 16.9195L7.54404 16.8758L7.69717 16.7883L7.77646 16.7473L8.01436 16.6324L8.09365 16.5996L8.17295 16.5641L8.25225 16.5312L8.33428 16.4984L8.41631 16.4684L8.49561 16.4383L8.65967 16.3836L8.90576 16.3098L8.98779 16.2879L9.07256 16.266L9.31865 16.2086L9.40342 16.1895L9.48545 16.173L9.57021 16.1594L9.65225 16.143L9.73428 16.1293L9.81904 16.1156L9.90381 16.1047L9.98857 16.091L10.0706 16.0828L10.2401 16.0609L10.3222 16.0527L10.4069 16.0473L10.5765 16.0309L10.746 16.0199L11.0851 16.0035L11.4241 15.998L11.5964 15.9953L11.7659 15.998H11.9382L12.455 16.0145L12.6272 16.0227L12.8022 16.0309L12.9745 16.0391L13.1495 16.05L13.3245 16.0582L13.5022 16.0719L13.8522 16.0937L14.5604 16.143L15.2769 16.1922L15.8183 16.225L16.5401 16.2578L16.7233 16.2633L16.9038 16.266L17.2702 16.2715H17.7323L17.9155 16.2687L18.2765 16.2633L18.4597 16.2578L18.8206 16.2414L19.0038 16.2332L19.1843 16.225L19.5452 16.2031L19.7229 16.1922L20.4394 16.143L21.1476 16.0937L21.5003 16.0719L21.6753 16.0582L21.8503 16.05L22.0253 16.0391L22.2003 16.0309L22.3726 16.0227L22.5476 16.0145L23.0644 15.998H23.2339L23.4062 15.9953L23.5757 15.998L23.7479 16.0008L23.9175 16.0035L24.087 16.0117L24.2538 16.0199L24.3413 16.0254L24.4261 16.0309L24.5081 16.0391L24.5929 16.0473L24.6776 16.0527L24.7624 16.0637L24.8444 16.0719L25.0987 16.1047L25.1808 16.1156L25.2655 16.1293L25.3476 16.143L25.4323 16.1594L25.5144 16.173L25.5991 16.1922L25.6812 16.2086L25.7632 16.2277L25.8479 16.2469L25.93 16.266L26.094 16.3098L26.3401 16.3836L26.5042 16.4383L26.5862 16.4684L26.6655 16.4984L26.7476 16.5312L26.8269 16.5641L26.9089 16.5996L27.0675 16.6707L27.1468 16.709L27.2233 16.7473L27.3026 16.7883L27.3792 16.832L27.4585 16.8758L27.5351 16.9195L27.6116 16.966L27.6882 17.0152L27.8358 17.1137L27.9097 17.1656L27.9835 17.2203L28.0546 17.275L28.1284 17.3297L28.1995 17.3871L28.2706 17.4473L28.339 17.5074L28.4046 17.5676L28.4812 17.6359L28.5522 17.7043L28.6206 17.7727L28.689 17.8437L28.7573 17.9121L28.8257 17.9832L28.8913 18.0543L29.0171 18.1965L29.08 18.2703L29.2604 18.4918L29.3179 18.5656L29.3726 18.6422L29.4272 18.716L29.4819 18.7926L29.5339 18.8719L29.6378 19.025L29.6843 19.1043L29.7335 19.1836L29.8265 19.3422L29.8702 19.4215L29.914 19.5035L29.955 19.5828L29.996 19.6648L30.1108 19.9109L30.1464 19.993L30.1819 20.0777L30.2147 20.1598L30.2476 20.2445L30.2776 20.3266L30.3378 20.4961L30.3651 20.5809L30.439 20.8352L30.4636 20.9227L30.4854 21.0074L30.5046 21.0949L30.5237 21.1797L30.5429 21.2672L30.5593 21.352L30.5921 21.527L30.6058 21.6145L30.6167 21.6992L30.6304 21.7867L30.6413 21.8742L30.6495 21.9617L30.6577 22.0465L30.6659 22.134L30.6823 22.3965L30.6905 22.659V22.9133L30.6878 23.0801L30.6796 23.2414L30.6741 23.4055L30.6632 23.5641L30.6522 23.7254L30.6386 23.8812L30.6058 24.193L30.5866 24.3434L30.562 24.4965L30.5401 24.6469L30.5128 24.7945L30.4854 24.9395L30.4198 25.2293L30.3843 25.3715L30.3487 25.5109L30.3104 25.6477L30.2886 25.7187L30.2011 25.9922L30.1765 26.0578L30.1546 26.1234L30.13 26.1891L30.1081 26.2465L30.1409 26.2055L30.1874 26.1426L30.2339 26.077L30.2776 26.0141L30.3241 25.9484L30.3679 25.8828L30.4116 25.8145L30.4581 25.7488L30.4991 25.6805L30.5429 25.6121L30.6304 25.4699L30.7124 25.3277L30.8354 25.1062L30.8737 25.0297L30.9147 24.9531L30.9913 24.8L31.0296 24.7207L31.0679 24.6387L31.1034 24.5594L31.139 24.4773L31.1772 24.3953L31.2128 24.3133L31.2483 24.2285L31.2812 24.1437L31.3167 24.0562L31.3495 23.9715L31.3823 23.8812L31.4151 23.7937L31.4479 23.7035L31.5081 23.523L31.5683 23.3371L31.5983 23.2414L31.6257 23.1457L31.6558 23.05L31.6831 22.9516L31.7077 22.8531L31.7351 22.7547L31.7843 22.5523L31.8335 22.3445L31.8554 22.2406L31.8991 22.0273L31.921 21.918L31.9784 21.5898L31.9976 21.4777L32.0468 21.1332L32.0632 21.0156L32.0905 20.7805L32.1042 20.6602L32.1479 20.168L32.1562 20.0422L32.1726 19.7852L32.178 19.6566L32.189 19.3941L32.1917 19.2629L32.1944 19.1262L32.1972 18.9922L32.1999 18.8555V18.5984L32.1944 18.3633L32.189 18.2457L32.1835 18.1309L32.178 18.0187L32.1698 17.9039L32.1589 17.7945L32.1507 17.6852L32.1233 17.4664L32.1097 17.3598L32.096 17.2559L32.0632 17.048L32.044 16.9441L32.0222 16.843L32.003 16.7445L31.9812 16.6434L31.9593 16.5449L31.9347 16.4492L31.9101 16.3508L31.8827 16.2578L31.8581 16.1621L31.828 16.0691L31.8007 15.9762L31.7706 15.8832L31.7378 15.793L31.7077 15.7027L31.6722 15.6125L31.6394 15.5223L31.5683 15.3473L31.53 15.2598L31.4917 15.175L31.4534 15.0875L31.3714 14.918L31.3304 14.8359L31.2866 14.7512L31.2429 14.6691L31.1964 14.5871L31.1526 14.5078L31.1034 14.4258L31.0569 14.3437L30.9585 14.1852L30.8546 14.0266L30.8026 13.95L30.7479 13.8707L30.6933 13.7941L30.521 13.5645L30.4608 13.4879L30.4034 13.4141L30.3405 13.3375L30.2804 13.2637L30.2147 13.1898L30.1519 13.1133L30.0862 13.0422L30.0206 12.9684L29.4765 12.3695L29.6159 11.6449L29.6214 11.6203L29.6269 11.5875L29.6323 11.5492L29.6378 11.5055L29.6433 11.459L29.6487 11.4098L29.6597 11.2949L29.6651 11.232L29.6679 11.1664L29.6733 11.098L29.6761 11.027L29.6815 10.9504L29.687 10.7918V10.707L29.6897 10.6195V10.3434L29.687 10.2477L29.6815 10.0453L29.6788 9.94141L29.6733 9.83477L29.6679 9.72539L29.6597 9.61602L29.6542 9.50117L29.646 9.38633L29.6351 9.27148L29.6132 9.03086L29.5995 8.91055L29.5858 8.7875L29.5722 8.66172L29.5558 8.5332L29.5394 8.40742L29.5011 8.14492L29.4792 8.01094L29.4546 7.87969L29.4327 7.74297L29.4081 7.60625L29.3808 7.46953L29.3534 7.33008L29.2933 7.05117L29.2604 6.90898L29.1538 6.48242L29.1128 6.3375L29.0745 6.19258L29.0308 6.04492L28.987 5.9L28.9679 5.83984L28.9159 5.85352L28.8202 5.88359L28.719 5.91367L28.6151 5.94922L28.3964 6.02031L28.2815 6.06133L28.1612 6.10234L28.0409 6.14609L27.9151 6.19258L27.7866 6.2418L27.6554 6.29375L27.5187 6.34844L27.3792 6.40313L27.237 6.46328L27.0921 6.52617L26.9417 6.58906L26.7913 6.65742L26.6354 6.72852L26.4769 6.80234L26.3155 6.87891L26.1515 6.9582L25.8124 7.12773L25.6401 7.21797L25.4624 7.31094L25.2819 7.40664L25.1015 7.50508L24.9155 7.60898L24.7269 7.71563L24.5382 7.825L24.344 7.93984L24.1472 8.05742L23.7479 8.30352L23.5429 8.43477L23.439 8.50039L23.3378 8.56602L23.2312 8.63711L23.1272 8.70547L23.0206 8.77383L22.914 8.84766L22.8101 8.91875L22.1702 9.35625L21.4647 9.16758L21.3882 9.14844L21.3034 9.1293L21.2159 9.11016L21.1229 9.09102L21.0245 9.07461L20.9233 9.05547L20.7046 9.02266L20.5897 9.00352L20.4722 8.98984L20.3519 8.97344L20.2288 8.95977L19.9718 8.93242L19.8378 8.91875L19.7038 8.90781L19.5671 8.89688L19.4276 8.88594L19.2882 8.87773L19.1433 8.86953L18.9983 8.85859L18.8534 8.85313L18.7058 8.84492L18.4104 8.83398L18.2601 8.83125L18.1069 8.82852L17.9565 8.82578L17.8034 8.82305H17.653L17.4999 8.82031L17.3468 8.82305H17.1964L17.0433 8.82578L16.8929 8.82852L16.7397 8.83125L16.5894 8.83398L16.294 8.84492L16.1464 8.85313L16.0015 8.85859L15.8565 8.86953L15.5722 8.88594L15.4327 8.89688L15.296 8.90781L15.162 8.91875L15.028 8.93242L14.771 8.95977L14.6479 8.97344L14.5276 8.98984L14.4101 9.00352L14.2952 9.01992L14.1858 9.03906L14.0765 9.05547L13.9753 9.07461L13.8769 9.09102L13.7839 9.11016L13.6964 9.1293L13.6116 9.14844L13.5351 9.16758L12.8296 9.35625L12.1897 8.91875L12.0831 8.84492L11.9792 8.77383L11.8726 8.70547L11.7687 8.63438L11.662 8.56602L11.5608 8.50039L11.4569 8.43477L11.2519 8.30352L11.0495 8.17773L10.8526 8.05742L10.6558 7.93984L10.4616 7.825L10.2729 7.71563L10.0843 7.60898L9.89834 7.50508L9.71514 7.40664L9.5374 7.31094L9.35967 7.21797L9.1874 7.12773L9.01514 7.04297L8.84834 6.9582L8.68428 6.87891L8.52295 6.80234L8.36436 6.72852L8.2085 6.65742L8.05811 6.58906L7.90771 6.52617L7.76279 6.46328L7.62061 6.40313L7.48115 6.34844L7.34717 6.29375L7.21318 6.2418L7.08467 6.19258L6.95889 6.14609L6.83857 6.10234L6.71826 6.06133L6.60342 6.02031L6.38467 5.94922L6.28076 5.91367L6.08389 5.85352L6.0292 5.83984L6.01279 5.9ZM11.9272 21.5406H11.9163L11.9081 21.5434H11.8972L11.889 21.5461H11.8808L11.8479 21.5543L11.837 21.5598L11.8261 21.5625L11.8151 21.568L11.8015 21.5734L11.7741 21.5898L11.7577 21.598L11.744 21.6062L11.6948 21.6391L11.6757 21.6527L11.6593 21.6691L11.6019 21.7184L11.5827 21.7402L11.5417 21.7812L11.5034 21.8305L11.4815 21.8551L11.4624 21.8824L11.4433 21.9125L11.4241 21.9398L11.4022 21.9727L11.3831 22.0027L11.364 22.0355L11.3257 22.1066L11.3093 22.1422L11.2901 22.1805L11.2737 22.2187L11.2245 22.3418L11.2081 22.3855L11.1808 22.473L11.1671 22.5195L11.1534 22.5633L11.1425 22.6125L11.1315 22.659L11.1097 22.7574L11.1015 22.8094L11.0933 22.8586L11.0851 22.9105L11.0796 22.9625L11.0741 23.0172L11.0714 23.0691L11.0659 23.1238L11.0632 23.1785V23.4L11.0659 23.4547L11.0714 23.5094L11.0741 23.5613L11.0796 23.616L11.0851 23.668L11.1015 23.7719L11.1097 23.8211L11.1425 23.9687L11.1534 24.0152L11.1671 24.0617L11.1808 24.1055L11.1944 24.152L11.2081 24.1957L11.2245 24.2395L11.2573 24.3215L11.2901 24.398L11.3284 24.4746L11.3448 24.5102L11.4022 24.6086L11.4241 24.6387L11.4433 24.6687L11.4624 24.6961L11.4843 24.7234L11.5034 24.7508L11.5226 24.7754L11.5417 24.7973L11.5636 24.8191L11.5827 24.841L11.621 24.8793L11.6593 24.9121L11.6757 24.9258L11.6948 24.9395L11.7112 24.9531L11.744 24.975L11.7577 24.9832L11.7741 24.9914L11.7878 24.9996L11.8151 25.0105L11.837 25.0215L11.8479 25.0242L11.8589 25.0297L11.8698 25.0324H11.8808L11.889 25.0352H11.8972L11.9081 25.0379H11.9655L11.9737 25.0352H11.9847L11.9929 25.0324L12.0366 25.0215L12.0585 25.0105L12.0858 24.9996L12.0995 24.9914L12.1159 24.9832L12.1296 24.975L12.1624 24.9531L12.1788 24.9395L12.1979 24.9258L12.2144 24.9121L12.2526 24.8793L12.2909 24.841L12.3292 24.7973L12.3511 24.7754L12.3702 24.7508L12.3894 24.7234L12.4112 24.6961L12.4304 24.6687L12.4495 24.6387L12.4714 24.6086L12.5288 24.5102L12.5479 24.4746L12.5644 24.4363L12.5835 24.398L12.5999 24.3598L12.6163 24.3187L12.6354 24.2805L12.6491 24.2395L12.6655 24.1957L12.6792 24.152L12.6956 24.1055L12.7065 24.0617L12.7202 24.0152L12.7312 23.966L12.7421 23.9195L12.764 23.8211L12.7722 23.7719L12.7886 23.668L12.794 23.616L12.7995 23.5613L12.8022 23.5094L12.8077 23.4547L12.8104 23.4V23.3453L12.8132 23.2906L12.8104 23.2332V23.1785L12.8077 23.1238L12.8022 23.0719L12.7995 23.0172L12.794 22.9652L12.7886 22.9105L12.7804 22.8586L12.7722 22.8094L12.764 22.7574L12.7421 22.659L12.7202 22.566L12.7065 22.5195L12.6956 22.473L12.6792 22.4293L12.6655 22.3855L12.6491 22.3418L12.6354 22.3008L12.6163 22.2598L12.5999 22.2187L12.5835 22.1805L12.5644 22.1422L12.5479 22.1066L12.5097 22.0355L12.4905 22.0027L12.4714 21.9727L12.4495 21.9426L12.4112 21.8824L12.3894 21.8551L12.3511 21.8059L12.3292 21.7812L12.3101 21.7594L12.2526 21.702L12.2144 21.6691L12.1979 21.6527L12.1788 21.6391L12.1296 21.6062L12.1159 21.598L12.0995 21.5898L12.0722 21.5734L12.0585 21.568L12.0476 21.5625L12.0257 21.557L12.012 21.5516L12.0038 21.5488L11.9929 21.5461H11.9847L11.9737 21.5434H11.9655L11.9546 21.5406H11.9272ZM23.0534 21.5406H23.0452L23.0343 21.5434H23.0261L23.0179 21.5461H23.0069L22.996 21.5488L22.9878 21.5516L22.9769 21.557L22.9632 21.5598L22.9522 21.5625L22.9413 21.568L22.9276 21.5734L22.9003 21.5898L22.8839 21.598L22.8702 21.6062L22.821 21.6391L22.8019 21.6527L22.7854 21.6691L22.7472 21.702L22.6897 21.7594L22.6706 21.7812L22.6487 21.8059L22.6296 21.8305L22.6104 21.8578L22.5886 21.8824L22.5503 21.9426L22.5284 21.9727L22.5093 22.0027L22.4901 22.0383L22.471 22.0711L22.4519 22.1066L22.4354 22.1422L22.4163 22.1805L22.3999 22.2187L22.3835 22.2598L22.3644 22.3008L22.3507 22.3418L22.3343 22.3855L22.3206 22.4293L22.3042 22.473L22.2933 22.5195L22.2796 22.566L22.2577 22.659L22.2358 22.7574L22.2276 22.8094L22.2194 22.8586L22.2112 22.9105L22.2058 22.9625L22.2003 23.0172L22.1976 23.0691L22.1921 23.1238L22.1894 23.1785V23.2332L22.1866 23.2906L22.1894 23.3453V23.4L22.1921 23.4547L22.1976 23.5094L22.2003 23.5613L22.2058 23.616L22.2112 23.668L22.2276 23.7719L22.2358 23.8211L22.2577 23.9195L22.2687 23.966L22.2796 24.0152L22.2933 24.0617L22.3042 24.1055L22.3206 24.152L22.3343 24.1957L22.3507 24.2367L22.3644 24.2805L22.3835 24.3187L22.3999 24.3598L22.4163 24.398L22.4354 24.4363L22.4519 24.4746L22.471 24.5074L22.4901 24.543L22.5284 24.6086L22.5503 24.6387L22.5694 24.6687L22.5886 24.6961L22.6104 24.7234L22.6296 24.7508L22.6487 24.7754L22.6706 24.7973L22.7089 24.841L22.7472 24.8793L22.7854 24.9121L22.8019 24.9258L22.821 24.9395L22.8374 24.9531L22.8702 24.975L22.8839 24.9832L22.9003 24.9914L22.914 24.9996L22.9413 25.0105L22.9522 25.016L22.9659 25.0215L22.9878 25.027L22.996 25.0297L23.0179 25.0352H23.0261L23.0343 25.0379H23.0917L23.1026 25.0352H23.1108L23.119 25.0324H23.13L23.1409 25.0297L23.1519 25.0242L23.1628 25.0215L23.1847 25.0105L23.212 24.9996L23.2257 24.9914L23.2421 24.9832L23.2558 24.975L23.2886 24.9531L23.305 24.9395L23.3241 24.9258L23.3405 24.9121L23.3788 24.8793L23.4171 24.841L23.4362 24.8191L23.4581 24.7973L23.4772 24.7754L23.4964 24.7508L23.5155 24.7234L23.5374 24.6961L23.5565 24.6687L23.5757 24.6387L23.5976 24.6086L23.655 24.5102L23.6714 24.4746L23.7097 24.398L23.7425 24.3215L23.7753 24.2395L23.7917 24.1957L23.8054 24.152L23.819 24.1055L23.8327 24.0617L23.8464 24.0152L23.8573 23.9687L23.8901 23.8211L23.8983 23.7719L23.9147 23.668L23.9202 23.616L23.9257 23.5613L23.9284 23.5094L23.9339 23.4547L23.9366 23.4V23.1785L23.9312 23.0691L23.9257 23.0172L23.9202 22.9625L23.9147 22.9105L23.9065 22.8586L23.8983 22.8094L23.8901 22.7574L23.8792 22.7082L23.871 22.659L23.8601 22.6125L23.8464 22.5633L23.8327 22.5195L23.819 22.473L23.7917 22.3855L23.7753 22.3418L23.7589 22.3008L23.7452 22.2598L23.7261 22.2187L23.7097 22.1805L23.6905 22.1422L23.6741 22.1066L23.6358 22.0355L23.6167 22.0027L23.5976 21.9727L23.5757 21.9398L23.5565 21.9125L23.5374 21.8824L23.5183 21.8551L23.4964 21.8305L23.4581 21.7812L23.4171 21.7402L23.3979 21.7184L23.3597 21.6855L23.3433 21.6691L23.3241 21.6527L23.305 21.6391L23.2558 21.6062L23.2421 21.598L23.2257 21.5898L23.1983 21.5734L23.1847 21.568L23.1737 21.5625L23.1628 21.5598L23.1519 21.5543L23.119 21.5461H23.1108L23.1026 21.5434H23.0917L23.0835 21.5406H23.0534Z" fill="white"/>
</svg>
