<svg width="41" height="41" viewBox="0 0 41 41" fill="none" xmlns="http://www.w3.org/2000/svg">
<path d="M20.3092 13.2351C18.2608 13.2351 16.2962 14.0489 14.8477 15.4974C13.3992 16.9458 12.5854 18.9104 12.5854 20.9589C12.5854 23.0074 13.3992 24.972 14.8477 26.4204C16.2962 27.8689 18.2608 28.6827 20.3092 28.6827C22.3577 28.6827 24.3223 27.8689 25.7708 26.4204C27.2193 24.972 28.033 23.0074 28.033 20.9589C28.033 18.9104 27.2193 16.9458 25.7708 15.4974C24.3223 14.0489 22.3577 13.2351 20.3092 13.2351ZM20.3092 25.975C18.9784 25.975 17.7021 25.4464 16.7611 24.5053C15.8201 23.5643 15.2914 22.288 15.2914 20.9572C15.2914 19.6264 15.8201 18.3501 16.7611 17.4091C17.7021 16.4681 18.9784 15.9394 20.3092 15.9394C21.64 15.9394 22.9163 16.4681 23.8574 17.4091C24.7984 18.3501 25.327 19.6264 25.327 20.9572C25.327 22.288 24.7984 23.5643 23.8574 24.5053C22.9163 25.4464 21.64 25.975 20.3092 25.975Z" fill="white"/>
<path d="M28.3387 14.751C29.3332 14.751 30.1394 13.9448 30.1394 12.9503C30.1394 11.9558 29.3332 11.1497 28.3387 11.1497C27.3443 11.1497 26.5381 11.9558 26.5381 12.9503C26.5381 13.9448 27.3443 14.751 28.3387 14.751Z" fill="white"/>
<path d="M34.5643 11.1203C34.1776 10.1217 33.5867 9.21488 32.8293 8.45783C32.072 7.70078 31.1649 7.11019 30.1662 6.72388C28.9975 6.28517 27.7628 6.04795 26.5148 6.02233C24.9062 5.95217 24.3967 5.93213 20.3177 5.93213C16.2386 5.93213 15.7158 5.93213 14.1206 6.02233C12.8735 6.04664 11.6397 6.28391 10.4725 6.72388C9.47353 7.10974 8.56623 7.70017 7.80883 8.45728C7.05144 9.21438 6.46067 10.1215 6.07443 11.1203C5.63563 12.2889 5.39896 13.5237 5.37455 14.7717C5.30272 16.3786 5.28101 16.8881 5.28101 20.9688C5.28101 25.0478 5.28101 25.5673 5.37455 27.1659C5.3996 28.4153 5.63512 29.648 6.07443 30.819C6.46175 31.8175 7.0531 32.7242 7.81068 33.4812C8.56825 34.2382 9.47541 34.8288 10.4742 35.2154C11.6392 35.6717 12.8735 35.9259 14.1239 35.9671C15.7325 36.0372 16.242 36.0589 20.321 36.0589C24.4001 36.0589 24.9229 36.0589 26.5181 35.9671C27.766 35.9417 29.0007 35.705 30.1695 35.2672C31.168 34.88 32.0748 34.2889 32.832 33.5316C33.5893 32.7744 34.1804 31.8676 34.5676 30.8691C35.0069 29.6998 35.2424 28.4671 35.2675 27.2177C35.3393 25.6108 35.361 25.1013 35.361 21.0206C35.361 16.9399 35.361 16.4221 35.2675 14.8235C35.2481 13.5578 35.0101 12.305 34.5643 11.1203ZM32.5298 27.0423C32.519 28.0049 32.3433 28.9586 32.0103 29.8619C31.7594 30.5114 31.3754 31.1013 30.8829 31.5935C30.3904 32.0857 29.8003 32.4694 29.1506 32.7199C28.2573 33.0513 27.3138 33.2271 26.3611 33.2393C24.7742 33.3128 24.3266 33.3312 20.2575 33.3312C16.1852 33.3312 15.7693 33.3312 14.1523 33.2393C13.2001 33.2277 12.257 33.052 11.3645 32.7199C10.7125 32.4709 10.1201 32.0879 9.62546 31.5956C9.13084 31.1033 8.74508 30.5127 8.49313 29.8619C8.16481 28.9683 7.9892 28.0259 7.97364 27.074C7.90182 25.4872 7.88511 25.0395 7.88511 20.9705C7.88511 16.8998 7.88511 16.4839 7.97364 14.8653C7.98444 13.9032 8.16015 12.9501 8.49313 12.0474C9.00259 10.7294 10.0466 9.69213 11.3645 9.18768C12.2575 8.85718 13.2003 8.6815 14.1523 8.6682C15.7409 8.59637 16.1869 8.57632 20.2575 8.57632C24.3282 8.57632 24.7458 8.57633 26.3611 8.6682C27.3139 8.67966 28.2576 8.8554 29.1506 9.18768C29.8003 9.43869 30.3903 9.82276 30.8827 10.3152C31.3752 10.8077 31.7593 11.3977 32.0103 12.0474C32.3386 12.9409 32.5142 13.8834 32.5298 14.8352C32.6016 16.4237 32.62 16.8697 32.62 20.9404C32.62 25.0094 32.62 25.4471 32.5481 27.0439H32.5298V27.0423Z" fill="white"/>
</svg>
