<svg width="41" height="41" viewBox="0 0 41 41" fill="none" xmlns="http://www.w3.org/2000/svg">
<path d="M7.26172 14.0093V33.7113H14.3544V14.0093H7.26172ZM12.7783 32.1352H8.83788V15.5854H12.7783V32.1352H12.7783Z" fill="white" stroke="white" stroke-width="0.455556"/>
<path d="M10.733 4.55737C8.75827 4.55737 7.32446 5.92341 7.32446 7.80588C7.32446 9.65681 8.76208 11.0521 10.6692 11.0521C11.6674 11.0521 12.5302 10.7258 13.1643 10.1093C13.7746 9.51518 14.1109 8.69712 14.1101 7.78743C14.0655 5.88572 12.6771 4.55737 10.733 4.55737ZM12.0653 8.97956C11.7312 9.30432 11.2487 9.47595 10.6692 9.47595C9.62787 9.47595 8.90063 8.78943 8.90063 7.80588C8.90063 6.80537 9.63715 6.13354 10.733 6.13354C11.8198 6.13354 12.5101 6.78157 12.534 7.80668C12.534 8.26844 12.3677 8.68482 12.0653 8.97956Z" fill="white" stroke="white" stroke-width="0.455556"/>
<path d="M28.6625 14.0128C26.4307 14.0128 24.9776 14.7045 24.0557 15.4348L23.9227 14.0093H17.5068V33.7113H23.8115V23.3604C23.8115 22.9394 23.9933 22.0629 24.0849 21.8658C24.7306 20.4728 25.6259 20.4728 27.0289 20.4728C28.5689 20.4728 29.9191 21.9274 29.9191 23.649V33.7113H36.0268V22.6008C36.0268 16.7002 32.2189 14.0128 28.6625 14.0128ZM34.4506 32.1352H31.4953V23.649C31.4953 21.0731 29.4253 18.8966 27.031 18.8966C25.5048 18.8966 23.7472 18.8966 22.6782 21.2016C22.4543 21.6834 22.2353 22.7916 22.2353 23.3604V32.1352H19.083V15.5854H22.4974L22.6668 17.3112H23.922L24.2213 16.6651C24.8332 15.9445 25.7488 15.5895 28.6625 15.5895C31.46 15.5895 34.4506 17.7831 34.4506 22.6008V32.1352Z" fill="white" stroke="white" stroke-width="0.364444"/>
</svg>
