<svg width="15" height="20" viewBox="0 0 15 20" fill="none" xmlns="http://www.w3.org/2000/svg">
<path d="M7.02077 0C3.14954 0 0 3.26494 0 7.27815C0 11.1636 6.40047 19.1877 6.67292 19.5274C6.75888 19.6345 6.88633 19.6965 7.02077 19.6965C7.15516 19.6965 7.28267 19.6346 7.36863 19.5274C7.64114 19.1877 14.0415 11.1636 14.0415 7.27815C14.0415 3.26494 10.8921 0 7.02077 0ZM7.02077 18.4834C6.45325 17.7487 5.2741 16.1835 4.10726 14.3942C2.01219 11.1815 0.904762 8.72081 0.904762 7.27815C0.904762 3.78211 3.64842 0.93793 7.02077 0.93793C10.3931 0.93793 13.1368 3.78211 13.1368 7.27815C13.1368 8.72075 12.0294 11.1814 9.93429 14.3942C8.76739 16.1835 7.5883 17.7487 7.02077 18.4834Z" fill="white"/>
<path d="M9.32231 13.3785C9.1153 13.2335 8.83404 13.29 8.69422 13.5046C8.08375 14.4414 7.39987 15.4232 6.66159 16.4228C6.50971 16.6284 6.54735 16.9228 6.74573 17.0802C6.82776 17.1454 6.92445 17.1769 7.02042 17.1769C7.15637 17.1769 7.29088 17.1135 7.37991 16.993C8.12905 15.9788 8.82348 14.9818 9.44391 14.0297C9.58378 13.8151 9.52938 13.5235 9.32231 13.3785Z" fill="white"/>
<path d="M7.0208 3.59546C4.97538 3.59546 3.31128 5.32056 3.31128 7.44096C3.31128 9.56137 4.97538 11.2865 7.0208 11.2865C9.06622 11.2865 10.7303 9.56137 10.7303 7.44096C10.7303 5.32056 9.06622 3.59546 7.0208 3.59546ZM7.0208 10.3485C5.47426 10.3485 4.21604 9.0442 4.21604 7.44096C4.21604 5.83773 5.47426 4.53339 7.0208 4.53339C8.5674 4.53339 9.82556 5.83773 9.82556 7.44096C9.82556 9.0442 8.5674 10.3485 7.0208 10.3485Z" fill="white"/>
</svg>
