<svg width="34" height="34" viewBox="0 0 34 34" fill="none" xmlns="http://www.w3.org/2000/svg">
<path d="M4.97554 21.2499H11.5769C11.4177 19.9074 11.3334 18.4796 11.3334 16.9999C11.3334 15.5203 11.4177 14.0924 11.5769 12.7499H4.97554C4.5057 14.0792 4.25004 15.5097 4.25004 16.9999C4.25004 18.4901 4.5057 19.9206 4.97554 21.2499ZM5.57536 22.6666C7.26174 26.06 10.4155 28.5955 14.2064 29.4429C13.1026 27.9405 12.2573 25.5525 11.7779 22.6666H5.57536ZM29.0245 21.2499C29.4944 19.9206 29.75 18.4901 29.75 16.9999C29.75 15.5097 29.4944 14.0792 29.0245 12.7499H22.4232C22.5824 14.0924 22.6667 15.5203 22.6667 16.9999C22.6667 18.4796 22.5824 19.9074 22.4232 21.2499H29.0245ZM28.4247 22.6666H22.2222C21.7428 25.5525 20.8974 27.9405 19.7937 29.4429C23.5846 28.5955 26.7383 26.06 28.4247 22.6666ZM13.0113 21.2499H20.9888C21.1566 19.9216 21.25 18.4914 21.25 16.9999C21.25 15.5084 21.1566 14.0782 20.9888 12.7499H13.0113C12.8435 14.0782 12.75 15.5084 12.75 16.9999C12.75 18.4914 12.8435 19.9216 13.0113 21.2499ZM13.2246 22.6666C13.9644 26.871 15.4673 29.7499 17 29.7499C18.5328 29.7499 20.0357 26.871 20.7755 22.6666H13.2246ZM5.57536 11.3333H11.7779C12.2573 8.44731 13.1026 6.05932 14.2064 4.55692C10.4155 5.40434 7.26174 7.93985 5.57536 11.3333ZM28.4247 11.3333C26.7383 7.93985 23.5846 5.40434 19.7937 4.55692C20.8974 6.05932 21.7428 8.44731 22.2222 11.3333H28.4247ZM13.2246 11.3333H20.7755C20.0357 7.12883 18.5328 4.24992 17 4.24992C15.4673 4.24992 13.9644 7.12883 13.2246 11.3333ZM17 31.1666C9.17601 31.1666 2.83337 24.824 2.83337 16.9999C2.83337 9.17588 9.17601 2.83325 17 2.83325C24.8241 2.83325 31.1667 9.17588 31.1667 16.9999C31.1667 24.824 24.8241 31.1666 17 31.1666Z" fill="white" stroke="white" stroke-width="0.2"/>
</svg>
