<svg width="41" height="41" viewBox="0 0 41 41" fill="none" xmlns="http://www.w3.org/2000/svg">
<path d="M36.0649 11.8147C35.5842 11.9364 35.1003 12.0319 34.6733 12.1163C34.5367 12.1433 34.4066 12.1688 34.2866 12.1934C33.9836 11.8421 33.6947 11.5016 33.4143 11.1709C32.7672 10.4092 32.1562 9.68985 31.5184 9.0009C30.7209 8.13954 29.6308 7.59538 28.2789 7.38358C24.2357 6.75134 19.902 9.38283 18.6173 13.2514C18.5567 13.4348 18.4916 13.6168 18.4295 13.7914C18.4097 13.8466 18.3903 13.901 18.3714 13.9547L18.3564 13.9563C18.3377 13.9582 18.3243 13.9605 18.32 13.9612C18.2062 13.9282 18.0944 13.8882 17.9854 13.8415C15.7333 12.8168 13.9409 11.1901 12.5062 8.86879C12.4393 8.76047 12.376 8.64976 12.3123 8.53902C12.1929 8.32036 12.0603 8.10916 11.9152 7.90663C11.6429 7.54314 11.3301 7.35986 11.0164 7.375C10.8062 7.38555 10.4982 7.49274 10.2255 7.94444C9.93243 8.45297 9.68228 8.98506 9.4777 9.5352C8.50671 12.0028 9.05229 14.4527 9.63595 16.3114C9.70379 16.5272 9.76765 16.7483 9.84847 17.0284C9.87269 17.1148 9.89995 17.207 9.92903 17.3071L7.80563 16.3883C7.78996 16.3815 7.77307 16.378 7.75599 16.378C7.73892 16.3781 7.72203 16.3816 7.70637 16.3884C7.69072 16.3952 7.67664 16.4052 7.66499 16.4177C7.65334 16.4302 7.64438 16.4449 7.63866 16.461C7.24185 17.5884 7.25918 18.4932 7.70725 20.0468C8.34627 22.2611 9.68029 24.0167 11.783 25.4084C11.577 25.5495 11.3749 25.6907 11.1761 25.8297C10.022 26.637 8.93186 27.3996 7.57954 27.6433C7.19182 27.713 6.90926 27.8903 6.76108 28.1555C6.60259 28.4396 6.60477 28.8087 6.76738 29.2227C6.98051 29.7653 7.22138 30.1578 7.50382 30.4232C8.16162 31.0411 8.76394 31.5835 9.47456 31.9588C11.6812 33.124 14.2219 33.712 17.0408 33.712C17.3863 33.712 17.736 33.7033 18.09 33.6858C21.764 33.5019 25.1101 31.9854 28.0352 29.179C31.0438 26.2925 33.073 22.5374 34.0667 18.0176C34.2517 17.1765 34.4592 16.493 35.2905 15.9877C36.2399 15.4104 36.9641 14.4914 37.3848 13.3298C37.5155 12.9683 37.6946 12.4736 37.3339 12.0317C36.9694 11.5855 36.4939 11.7059 36.0649 11.8147ZM9.24484 29.1349C9.51878 29.0269 9.77795 28.9248 10.029 28.819C11.3984 28.2608 12.6097 27.3745 13.5562 26.2382C13.8713 25.8546 13.9896 25.5832 13.9505 25.3306C13.9107 25.0738 13.7089 24.8444 13.2754 24.5635C11.7014 23.5432 10.6494 22.4674 9.96455 21.1789C9.57826 20.4519 9.21163 19.6501 9.12924 18.7084C9.45895 18.6793 9.79126 18.7065 10.1119 18.7888C10.6369 18.8897 11.1798 18.9948 11.7292 18.6812C11.7489 18.67 11.7652 18.6536 11.7763 18.6338C12.055 18.1348 11.849 17.6914 11.6657 17.3004C11.6243 17.2116 11.5826 17.1225 11.5461 17.0324C10.6681 14.8647 10.3895 13.0364 10.6691 11.2783C10.7236 10.9783 10.796 10.6819 10.8859 10.3906C10.9167 10.2825 10.9484 10.1711 10.9801 10.0548C11.2165 10.239 11.4134 10.469 11.559 10.731C11.6147 10.8184 11.6725 10.9086 11.734 10.9937C13.1695 12.9723 14.7646 14.3589 16.6104 15.2326C17.0249 15.4351 17.4528 15.6088 17.8912 15.7524C18.4205 15.9197 18.7336 15.9329 18.9719 15.798C19.2061 15.6647 19.3582 15.3884 19.4807 14.8728C19.7812 13.609 20.2961 12.5848 21.0549 11.742C22.8284 9.77237 24.9829 8.84942 27.4559 8.99942C28.578 9.06739 29.4846 9.46627 30.156 10.1908C30.8484 10.9382 31.5643 11.711 32.0764 12.5778C32.7375 13.6971 33.5287 14.0974 34.6438 13.8775C34.7457 13.8634 34.8489 13.8607 34.9513 13.8695L35.0095 13.8716C34.6702 14.3634 34.2855 14.6687 33.8383 14.8022C32.8762 15.0892 32.5782 15.8208 32.3351 16.6093C32.1988 17.0512 32.0659 17.5025 31.9371 17.9389C31.5701 19.182 31.1907 20.4676 30.6984 21.6798C29.0101 25.8358 26.2949 28.8535 22.6276 30.6485C19.8045 32.0297 16.9463 32.3697 14.1315 31.6579C12.8902 31.3441 11.6943 30.9861 10.5768 30.594C9.79879 30.321 9.28748 29.9056 8.93634 29.2567C9.04334 29.2144 9.14572 29.174 9.24484 29.1349Z" fill="white" stroke="white" stroke-width="0.364444"/>
</svg>
