<svg width="271" height="75" viewBox="0 0 271 75" fill="none" xmlns="http://www.w3.org/2000/svg">
<g filter="url(#filter0_di_6_3)">
<g clip-path="url(#clip0_6_3)">
<rect x="5" y="9" width="261" height="65" rx="26.8312" fill="white" fill-opacity="0.87" shape-rendering="crispEdges"/>
<path d="M143.757 78.1515C140.234 79.4773 136.518 80.7346 132.608 81.9234C128.365 82.949 123.986 83.8811 119.472 84.7197C114.754 85.3498 109.972 85.8664 105.127 86.2696C100.232 86.4308 95.3542 86.4656 90.4935 86.3738C86.6805 86.0909 82.9335 85.7231 79.2526 85.2703C77.4665 85.0505 75.7041 84.7519 74.0004 84.3733C71.693 83.8607 69.4421 83.3091 67.248 82.7186C65.3231 82.2006 63.5175 81.583 61.8897 80.8781C60.2448 80.1659 58.6647 79.4254 57.1492 78.6567C55.5991 77.8704 54.2754 77.0086 53.2139 76.0989C52.0487 75.1004 50.977 74.0753 49.9987 73.0237C49.2172 72.1836 48.6608 71.3219 48.3267 70.4582C47.6551 68.7223 47.2166 66.947 47.0112 65.1323C47.509 62.7742 48.3908 60.3904 49.6566 57.9808C51.691 55.5588 54.1035 53.1508 56.894 50.7567C60.4147 48.4313 64.2811 46.1608 68.4931 43.945C73.3445 41.8787 78.4837 39.9065 83.9106 38.0283C89.8377 36.3743 95.9721 34.8491 102.314 33.4527C108.975 32.3437 115.744 31.3913 122.623 30.5954C129.609 30.1337 136.593 29.847 143.575 29.7352C149.577 29.9528 155.488 30.3099 161.309 30.8068C162.97 30.9486 164.626 31.1532 166.255 31.4216C170.647 32.1455 174.923 32.9584 179.084 33.8603C180.982 34.272 182.808 34.7692 184.519 35.3464C187.848 36.4693 191.036 37.6602 194.082 38.9191C195.802 39.63 197.346 40.4206 198.673 41.2715C201.047 42.7936 203.244 44.3718 205.264 46.0061C206.311 46.8537 207.143 47.7365 207.75 48.635C209.105 50.6399 210.217 52.6926 211.086 54.7931C211.403 55.5575 211.555 56.3207 211.549 57.0728C211.527 59.8298 211.109 62.6239 210.295 65.4551C208.34 68.7196 205.875 71.9804 202.899 75.2376C198.932 78.4341 194.49 81.5734 189.575 84.6555C183.772 87.5706 177.564 90.3767 170.951 93.0738C163.62 95.5044 155.982 97.7794 148.037 99.8986C139.597 101.666 130.973 103.239 122.166 104.618C113.127 105.58 104.044 106.321 94.9165 106.841C85.8476 106.904 76.8824 106.732 68.0206 106.326C60.4785 105.55 53.1328 104.591 45.9836 103.45C44.1612 103.159 42.3761 102.795 40.6567 102.36C35.2465 100.991 30.0491 99.503 25.0646 97.8961C23.2138 97.2995 21.49 96.6209 19.9323 95.8727C15.9242 93.9474 12.1752 91.9271 8.68532 89.8119C7.33096 88.991 6.17686 88.1184 5.24321 87.2128C2.65378 84.7014 0.393335 82.1124 -1.53813 79.4458C-2.13041 78.6281 -2.5417 77.8004 -2.7731 76.9751C-3.73079 73.5596 -4.18279 70.0784 -4.1291 66.5317C-2.77654 62.4513 -0.777859 58.3514 1.86696 54.232C5.78286 50.1396 10.3132 46.094 15.4579 42.0953C21.7685 38.2563 28.6205 34.5296 36.014 30.9152C44.3885 27.5872 53.1936 24.4318 62.4295 21.4487C72.3913 18.8643 82.6415 16.5031 93.1801 14.3652C104.134 12.7155 115.211 11.3268 126.411 10.1994C137.679 9.62046 148.891 9.32471 160.047 9.31212C170.023 9.82877 179.8 10.5878 189.377 11.5893C191.073 11.7667 192.757 12.0051 194.411 12.304C202.239 13.7197 209.802 15.3143 217.097 17.0877C218.986 17.5469 220.795 18.0848 222.49 18.6945C228.561 20.8777 234.299 23.2053 239.702 25.6772C241.332 26.4229 242.793 27.2352 244.054 28.0977C248.298 31.0006 252.135 34.0196 255.562 37.1546C256.488 38.0011 257.221 38.8732 257.756 39.7561C259.947 43.373 261.635 47.076 262.818 50.8653C263.05 51.608 263.139 52.3468 263.089 53.0743C262.778 57.5486 261.799 62.0702 260.153 66.6391C256.819 71.6135 252.724 76.5644 247.867 81.492C241.545 86.2932 234.531 90.9916 226.826 95.5873C217.842 99.9011 208.282 104.037 198.146 107.996" stroke="url(#paint0_linear_6_3)" stroke-width="21.6615" stroke-linecap="round"/>
<g filter="url(#filter1_b_6_3)">
<rect x="4.05084" y="9" width="279.07" height="69.6102" rx="26.8312" fill="white" fill-opacity="0.02"/>
<rect x="4.36029" y="9.30945" width="278.451" height="68.9913" rx="26.5217" stroke="url(#paint1_radial_6_3)" stroke-width="0.618899"/>
</g>
</g>
</g>
<defs>
<filter id="filter0_di_6_3" x="0" y="0" width="271" height="78" filterUnits="userSpaceOnUse" color-interpolation-filters="sRGB">
<feFlood flood-opacity="0" result="BackgroundImageFix"/>
<feColorMatrix in="SourceAlpha" type="matrix" values="0 0 0 0 0 0 0 0 0 0 0 0 0 0 0 0 0 0 127 0" result="hardAlpha"/>
<feOffset dy="-4"/>
<feGaussianBlur stdDeviation="2.5"/>
<feComposite in2="hardAlpha" operator="out"/>
<feColorMatrix type="matrix" values="0 0 0 0 1 0 0 0 0 0.808333 0 0 0 0 0.936111 0 0 0 0.15 0"/>
<feBlend mode="normal" in2="BackgroundImageFix" result="effect1_dropShadow_6_3"/>
<feBlend mode="normal" in="SourceGraphic" in2="effect1_dropShadow_6_3" result="shape"/>
<feColorMatrix in="SourceAlpha" type="matrix" values="0 0 0 0 0 0 0 0 0 0 0 0 0 0 0 0 0 0 127 0" result="hardAlpha"/>
<feOffset dy="4"/>
<feGaussianBlur stdDeviation="7.5"/>
<feComposite in2="hardAlpha" operator="arithmetic" k2="-1" k3="1"/>
<feColorMatrix type="matrix" values="0 0 0 0 0.827667 0 0 0 0 0.608333 0 0 0 0 1 0 0 0 1 0"/>
<feBlend mode="normal" in2="shape" result="effect2_innerShadow_6_3"/>
</filter>
<filter id="filter1_b_6_3" x="-39.2721" y="-34.3229" width="365.716" height="156.256" filterUnits="userSpaceOnUse" color-interpolation-filters="sRGB">
<feFlood flood-opacity="0" result="BackgroundImageFix"/>
<feGaussianBlur in="BackgroundImage" stdDeviation="21.6615"/>
<feComposite in2="SourceAlpha" operator="in" result="effect1_backgroundBlur_6_3"/>
<feBlend mode="normal" in="SourceGraphic" in2="effect1_backgroundBlur_6_3" result="shape"/>
</filter>
<linearGradient id="paint0_linear_6_3" x1="244.213" y1="27.9515" x2="163.565" y2="174.925" gradientUnits="userSpaceOnUse">
<stop stop-color="#FFD28D"/>
<stop offset="0.15625" stop-color="#FF9270"/>
<stop offset="0.348958" stop-color="#FF7CEA"/>
<stop offset="0.5625" stop-color="#E28FFF"/>
<stop offset="0.796875" stop-color="#73CDFF"/>
<stop offset="1" stop-color="#5FFFCF"/>
</linearGradient>
<radialGradient id="paint1_radial_6_3" cx="0" cy="0" r="1" gradientUnits="userSpaceOnUse" gradientTransform="translate(101.367 7.10836) rotate(140.082) scale(126.885 251.348)">
<stop stop-color="#BD6AFF" stop-opacity="0.66"/>
<stop offset="1" stop-color="white"/>
</radialGradient>
<clipPath id="clip0_6_3">
<rect x="5" y="9" width="261" height="65" rx="26.8312" fill="white"/>
</clipPath>
</defs>
</svg>
