<?xml version="1.0" standalone="no"?>
<!DOCTYPE svg PUBLIC "-//W3C//DTD SVG 20010904//EN"
 "http://www.w3.org/TR/2001/REC-SVG-20010904/DTD/svg10.dtd">
<svg version="1.0" xmlns="http://www.w3.org/2000/svg"
 width="1026.000000pt" height="1024.000000pt" viewBox="0 0 1026.000000 1024.000000"
 preserveAspectRatio="xMidYMid meet">
<rect width="100%" height="100%" fill="#fff"/>
<g transform="translate(0.000000,1024.000000) scale(0.100000,-0.100000)"
fill="#eb337b" stroke="none">
<path d="M781 10070 c51 -63 227 -277 390 -476 757 -921 1925 -2352 2222
-2722 186 -233 198 -267 122 -351 -57 -62 -212 -121 -322 -121 -77 0 -158 34
-212 89 -59 59 -193 258 -706 1051 -387 599 -477 734 -413 620 85 -150 670
-1203 745 -1340 133 -243 193 -365 193 -395 0 -40 -24 -82 -90 -160 -104 -122
-158 -256 -195 -486 -9 -57 -23 -144 -31 -194 -49 -307 -172 -538 -515 -970
-177 -223 -228 -297 -277 -401 -56 -120 -73 -205 -74 -383 -1 -167 15 -259 69
-415 44 -127 82 -201 194 -382 101 -163 169 -296 169 -331 0 -34 22 -38 114
-19 203 42 439 122 595 200 177 90 378 261 430 368 29 62 45 165 38 262 -11
156 -87 255 -328 426 -246 174 -351 305 -385 477 -29 148 -4 253 133 551 138
303 165 402 198 717 22 214 41 273 111 335 52 45 81 56 243 85 78 14 176 36
219 50 135 43 269 138 334 237 49 74 67 136 74 248 l6 95 -298 330 c-744 824
-2728 3001 -2817 3090 -16 17 12 -22 64 -85z m1305 -6119 c23 -10 54 -36 70
-57 26 -33 29 -45 29 -110 0 -58 -4 -78 -21 -101 -57 -76 -143 -96 -195 -44
-36 36 -36 57 -3 124 l27 51 -37 32 c-49 43 -48 81 4 106 44 23 75 22 126 -1z"/>
<path d="M3570 8279 c25 -6 93 -22 151 -34 275 -60 511 -193 752 -425 132
-126 234 -246 442 -515 359 -464 542 -643 769 -754 248 -121 507 -174 1001
-206 288 -18 449 -37 554 -66 163 -44 311 -149 406 -289 27 -38 50 -69 51 -67
7 7 -18 134 -42 210 -70 222 -226 493 -387 674 l-44 50 -26 -106 c-44 -179
-134 -333 -220 -378 -55 -28 -130 -1 -167 60 -28 45 -25 84 10 159 48 103 63
192 56 338 -7 144 -26 242 -52 271 -26 29 -230 145 -341 194 -185 81 -381 137
-598 172 -168 27 -612 25 -789 -4 l-129 -21 -56 61 c-244 269 -427 420 -641
531 -196 101 -369 144 -600 151 -118 3 -137 2 -100 -6z"/>
<path d="M6990 8043 c-31 -83 -48 -172 -60 -314 -12 -141 -18 -176 -31 -184
-5 -3 -116 30 -246 74 -131 44 -254 82 -273 86 -20 4 33 -27 125 -73 262 -131
391 -227 444 -331 44 -86 53 -146 58 -381 4 -204 3 -231 -15 -287 -27 -87 -10
-69 27 26 39 101 57 209 66 386 7 150 18 185 58 185 26 0 190 -121 332 -246
55 -48 93 -79 85 -69 -51 69 -168 201 -295 335 -175 185 -218 245 -239 337
-38 167 -44 364 -15 466 17 61 3 54 -21 -10z"/>
<path d="M3496 7997 c-23 -340 117 -763 343 -1033 155 -186 428 -332 556 -296
49 14 44 42 -28 160 -122 201 -131 225 -198 512 -86 365 -140 482 -279 592
-75 59 -225 123 -361 152 l-26 6 -7 -93z"/>
<path d="M5500 6299 c0 -296 68 -467 265 -665 202 -203 437 -336 1005 -569
583 -239 829 -372 992 -538 111 -112 190 -274 204 -416 10 -103 17 -105 62
-15 104 207 137 377 129 654 -7 219 -35 337 -122 510 -163 324 -455 553 -876
684 -155 48 -292 77 -631 130 -365 58 -518 89 -645 131 -151 50 -231 95 -370
207 -10 8 -13 -16 -13 -113z"/>
<path d="M3967 6036 c-97 -36 -193 -141 -223 -244 -20 -68 -15 -192 9 -239 36
-69 130 -100 267 -88 197 17 351 85 409 179 30 47 28 126 -4 194 -31 68 -111
147 -180 178 -70 32 -218 43 -278 20z m251 -63 c104 -60 80 -168 -47 -211 -82
-28 -183 -4 -234 57 -31 37 -32 49 -13 95 37 88 191 120 294 59z"/>
<path d="M6025 5155 c18 -54 54 -238 60 -305 28 -318 -147 -605 -460 -751
-106 -50 -212 -76 -512 -128 -479 -84 -611 -125 -846 -263 -37 -22 -69 -44
-72 -48 -3 -4 37 5 87 21 193 61 389 89 788 114 265 17 420 40 544 80 273 89
470 266 568 507 l33 83 0 180 c0 173 -1 183 -29 255 -15 41 -43 102 -61 135
-35 63 -112 155 -100 120z"/>
<path d="M6406 4958 c-46 -111 -47 -363 -2 -523 53 -195 106 -294 376 -705
376 -572 454 -738 467 -992 9 -166 -16 -283 -101 -470 -14 -32 -22 -58 -18
-58 15 0 188 104 247 148 241 182 433 493 490 794 22 119 31 365 16 467 -48
326 -208 585 -493 798 -135 101 -248 170 -566 347 -156 86 -307 172 -337 191
-30 19 -57 35 -60 35 -3 0 -12 -15 -19 -32z"/>
<path d="M4240 3386 c-360 -64 -764 -260 -1085 -527 l-99 -83 132 -23 c390
-67 501 -124 792 -408 199 -194 236 -225 311 -260 174 -80 362 -68 493 32 97
74 146 178 146 308 0 108 -22 168 -84 230 -162 163 -448 113 -481 -84 -8 -47
17 -113 53 -141 39 -32 43 -23 6 14 -29 29 -34 41 -34 81 0 100 83 175 194
175 94 0 207 -71 238 -149 6 -14 11 -55 11 -91 2 -196 -181 -325 -371 -261
-176 60 -272 178 -272 336 0 160 112 297 276 340 258 67 542 -76 708 -356 28
-46 82 -153 121 -238 162 -352 206 -424 328 -538 129 -120 264 -170 437 -160
109 6 176 24 275 74 68 34 197 114 192 120 -2 1 -50 -13 -108 -32 -319 -103
-564 -48 -683 155 -58 99 -85 191 -126 436 -65 385 -104 507 -211 665 -114
168 -355 319 -594 371 -117 26 -452 34 -565 14z"/>
</g>
</svg>
