<svg width="96" height="117" viewBox="0 0 96 117" fill="none" xmlns="http://www.w3.org/2000/svg">
<g clip-path="url(#clip0_429_297)">
<path d="M79.4127 62.0401C79.5768 79.7122 94.9158 85.593 95.0857 85.668C94.956 86.0828 92.6348 94.0488 87.0044 102.277C82.1372 109.391 77.0856 116.479 69.128 116.625C61.3088 116.77 58.7944 111.989 49.8549 111.989C40.918 111.989 38.1245 116.479 30.7228 116.77C23.0416 117.06 17.1925 109.077 12.2848 101.989C2.25654 87.4909 -5.40711 61.0206 4.88323 43.1527C9.99526 34.2795 19.1308 28.6606 29.0467 28.5165C36.5894 28.3726 43.7088 33.591 48.3198 33.591C52.9278 33.591 61.5794 27.3154 70.6746 28.2371C74.4821 28.3955 85.1699 29.7751 92.0328 39.8206C91.4798 40.1634 79.2801 47.2656 79.4127 62.0401V62.0401ZM64.7174 18.6452C68.7954 13.709 71.5401 6.8373 70.7913 0C64.9132 0.236247 57.8052 3.91701 53.589 8.85053C49.8105 13.2194 46.5013 20.212 47.3942 26.914C53.946 27.4209 60.6392 23.5846 64.7174 18.6452" fill="white"/>
</g>
<defs>
<clipPath id="clip0_429_297">
<rect width="95.0857" height="117" fill="white"/>
</clipPath>
</defs>
</svg>
