<svg width="16" height="25" viewBox="0 0 16 25" fill="none" xmlns="http://www.w3.org/2000/svg">
<path d="M14.8054 3.10574C15.2098 3.5101 15.2098 4.16569 14.8054 4.57004L4.55535 14.8201C4.15099 15.2245 3.4954 15.2245 3.09105 14.8201L1.62675 13.3558C1.22239 12.9515 1.22239 12.2959 1.62675 11.8915L11.8768 1.64144C12.2812 1.23708 12.9368 1.23708 13.3411 1.64144L14.8054 3.10574Z" fill="white"/>
<path d="M3.09085 10.4724C3.4952 10.068 4.15079 10.068 4.55515 10.4724L14.8053 20.7225C15.2096 21.1268 15.2096 21.7824 14.8053 22.1868L13.341 23.6511C12.9366 24.0554 12.281 24.0554 11.8767 23.6511L1.62655 13.401C1.22219 12.9966 1.22219 12.341 1.62655 11.9367L3.09085 10.4724Z" fill="white"/>
</svg>
