<svg width="51" height="51" viewBox="0 0 51 51" fill="none" xmlns="http://www.w3.org/2000/svg">
<path d="M20.7683 16.1057C20.3639 16.5101 20.3639 17.1657 20.7683 17.57L31.0184 27.8201C31.4227 28.2245 32.0783 28.2245 32.4827 27.8201L33.947 26.3558C34.3513 25.9515 34.3513 25.2959 33.947 24.8915L23.6969 14.6414C23.2925 14.2371 22.6369 14.2371 22.2326 14.6414L20.7683 16.1057Z" fill="white"/>
<path d="M32.4829 23.4724C32.0785 23.068 31.4229 23.068 31.0186 23.4724L20.7685 33.7225C20.3641 34.1268 20.3641 34.7824 20.7685 35.1868L22.2328 36.6511C22.6371 37.0554 23.2927 37.0554 23.6971 36.6511L33.9472 26.401C34.3515 25.9966 34.3515 25.341 33.9472 24.9367L32.4829 23.4724Z" fill="white"/>
</svg>
