<svg width="18" height="22" viewBox="0 0 18 22" fill="none" xmlns="http://www.w3.org/2000/svg">
<path d="M1.00017 12.2144V1.97695C1.00017 1.71836 1.10289 1.47037 1.28574 1.28752C1.46859 1.10468 1.71658 1.00195 1.97517 1.00195H15.6251C15.8837 1.00195 16.1317 1.10468 16.3145 1.28752C16.4974 1.47037 16.6001 1.71836 16.6001 1.97695V19.5269C16.6001 19.7855 16.4974 20.0334 16.3145 20.2163C16.1317 20.3991 15.8837 20.5019 15.6251 20.5019H10.2626M12.2126 4.90193H5.38765M12.2126 8.80192H5.38765M12.2126 12.7019H9.28763" stroke="#fff" stroke-width="1.67142" stroke-linecap="round" stroke-linejoin="round"/>
<path d="M1.48765 20.5017L3.17683 18.8125M3.17683 18.8125C2.94579 18.5872 2.76179 18.3183 2.63549 18.0214C2.50919 17.7244 2.44312 17.4053 2.4411 17.0826C2.43908 16.76 2.50115 16.4401 2.62371 16.1416C2.74628 15.8431 2.9269 15.5718 3.15509 15.3437C3.38329 15.1155 3.65452 14.9349 3.95305 14.8124C4.25158 14.6899 4.57147 14.6279 4.89415 14.6299C5.21684 14.632 5.53591 14.6981 5.83284 14.8245C6.12978 14.9508 6.39867 15.1348 6.62392 15.3659C7.07767 15.8238 7.33157 16.4427 7.33007 17.0873C7.32857 17.732 7.07179 18.3497 6.61591 18.8055C6.16004 19.2612 5.54219 19.5178 4.89758 19.5192C4.25297 19.5205 3.63408 19.2664 3.17634 18.8125H3.17683Z" stroke="#fff" stroke-width="1.67142" stroke-linecap="round" stroke-linejoin="round"/>
</svg>
