<svg width="20" height="21" viewBox="0 0 20 21" fill="none" xmlns="http://www.w3.org/2000/svg">
<path d="M12.9995 7.50391V18.5039M17.9995 19.5039H1.99951C1.7343 19.5039 1.47994 19.3986 1.2924 19.211C1.10487 19.0235 0.999512 18.7691 0.999512 18.5039V2.50391C0.999512 2.23869 1.10487 1.98434 1.2924 1.7968C1.47994 1.60926 1.7343 1.50391 1.99951 1.50391H17.9995C18.2647 1.50391 18.5191 1.60926 18.7066 1.7968C18.8942 1.98434 18.9995 2.23869 18.9995 2.50391V18.5039C18.9995 18.7691 18.8942 19.0235 18.7066 19.211C18.5191 19.3986 18.2647 19.5039 17.9995 19.5039ZM0.999512 7.50391H18.9995H0.999512Z" stroke="white" stroke-width="1.5" stroke-linecap="round" stroke-linejoin="round"/>
</svg>
