<svg width="25" height="20" viewBox="0 0 25 20" fill="#fff" xmlns="http://www.w3.org/2000/svg">
<path d="M8.16287 0.959961C7.5931 0.959961 7.02891 1.07219 6.50251 1.29023C5.97611 1.50827 5.49781 1.82786 5.09492 2.23075C4.69203 2.63364 4.37244 3.11194 4.1544 3.63833C3.93636 4.16473 3.82413 4.72893 3.82413 5.2987C3.82413 5.86847 3.93636 6.43266 4.1544 6.95906C4.37244 7.48546 4.69203 7.96376 5.09492 8.36665C5.49781 8.76954 5.97611 9.08913 6.50251 9.30717C7.02891 9.52521 7.5931 9.63743 8.16287 9.63743C9.31357 9.63743 10.4171 9.18032 11.2308 8.36665C12.0445 7.55298 12.5016 6.4494 12.5016 5.2987C12.5016 4.14799 12.0445 3.04442 11.2308 2.23075C10.4171 1.41708 9.31357 0.959961 8.16287 0.959961ZM5.27038 5.2987C5.27038 4.91885 5.34519 4.54272 5.49056 4.19179C5.63592 3.84086 5.84898 3.52199 6.11757 3.2534C6.38616 2.9848 6.70503 2.77175 7.05596 2.62638C7.40689 2.48102 7.78302 2.40621 8.16287 2.40621C8.54272 2.40621 8.91884 2.48102 9.26978 2.62638C9.62071 2.77175 9.93958 2.9848 10.2082 3.2534C10.4768 3.52199 10.6898 3.84086 10.8352 4.19179C10.9805 4.54272 11.0554 4.91885 11.0554 5.2987C11.0554 6.06583 10.7506 6.80155 10.2082 7.344C9.66572 7.88644 8.93 8.19119 8.16287 8.19119C7.39573 8.19119 6.66002 7.88644 6.11757 7.344C5.57512 6.80155 5.27038 6.06583 5.27038 5.2987ZM18.2866 2.88829C17.3916 2.88829 16.5333 3.24382 15.9004 3.87668C15.2675 4.50953 14.912 5.36787 14.912 6.26286C14.912 7.15785 15.2675 8.01619 15.9004 8.64904C16.5333 9.2819 17.3916 9.63743 18.2866 9.63743C19.1816 9.63743 20.0399 9.2819 20.6728 8.64904C21.3056 8.01619 21.6612 7.15785 21.6612 6.26286C21.6612 5.36787 21.3056 4.50953 20.6728 3.87668C20.0399 3.24382 19.1816 2.88829 18.2866 2.88829ZM16.3583 6.26286C16.3583 5.75144 16.5614 5.26096 16.9231 4.89933C17.2847 4.5377 17.7752 4.33453 18.2866 4.33453C18.798 4.33453 19.2885 4.5377 19.6501 4.89933C20.0118 5.26096 20.2149 5.75144 20.2149 6.26286C20.2149 6.77428 20.0118 7.26476 19.6501 7.62639C19.2885 7.98803 18.798 8.19119 18.2866 8.19119C17.7752 8.19119 17.2847 7.98803 16.9231 7.62639C16.5614 7.26476 16.3583 6.77428 16.3583 6.26286ZM0.931641 13.7351C0.931641 13.1598 1.1602 12.608 1.56703 12.2012C1.97387 11.7943 2.52566 11.5658 3.10101 11.5658H13.2247C13.8001 11.5658 14.3519 11.7943 14.7587 12.2012C15.1655 12.608 15.3941 13.1598 15.3941 13.7351V14.2471C15.3929 14.3251 15.3874 14.403 15.3777 14.4804C15.356 14.6793 15.3205 14.8765 15.2716 15.0705C15.1122 15.7036 14.828 16.2986 14.4357 16.8205C13.4581 18.125 11.5934 19.2791 8.16287 19.2791C4.73237 19.2791 2.86768 18.125 1.89002 16.8205C1.49804 16.2985 1.21418 15.7036 1.05505 15.0705C0.992101 14.8184 0.951768 14.5613 0.934533 14.3021C0.933332 14.2838 0.932367 14.2654 0.931641 14.2471V13.7351ZM2.37789 14.2124V14.2297L2.38656 14.3262C2.39621 14.4168 2.41549 14.5527 2.45791 14.7195C2.57032 15.1655 2.77024 15.5847 3.04605 15.9527C3.6959 16.8176 5.08526 17.8328 8.16287 17.8328C11.2405 17.8328 12.6298 16.8176 13.2787 15.9527C13.6162 15.5034 13.7839 15.0541 13.8669 14.7195C13.9074 14.5588 13.9341 14.395 13.9469 14.2297L13.9479 14.2124V13.7351C13.9479 13.5433 13.8717 13.3594 13.7361 13.2238C13.6004 13.0882 13.4165 13.012 13.2247 13.012H3.10101C2.90922 13.012 2.7253 13.0882 2.58968 13.2238C2.45407 13.3594 2.37789 13.5433 2.37789 13.7351V14.2124ZM15.4905 16.9844C16.2358 17.2129 17.1556 17.3507 18.2847 17.3507C20.9554 17.3507 22.4479 16.5833 23.2588 15.6577C23.583 15.2914 23.8232 14.8587 23.9626 14.3898C24.0177 14.2005 24.0529 14.006 24.0677 13.8094L24.0696 13.7641V13.7351C24.0696 13.1598 23.8411 12.608 23.4342 12.2012C23.0274 11.7943 22.4756 11.5658 21.9003 11.5658H15.4847C15.8646 11.962 16.1423 12.4586 16.2734 13.012H21.9012C22.0914 13.012 22.2738 13.0869 22.4092 13.2204C22.5445 13.3539 22.6218 13.5354 22.6244 13.7255C22.6158 13.813 22.599 13.8995 22.5742 13.9839C22.4936 14.251 22.3553 14.4972 22.1693 14.7051C21.7152 15.2257 20.6777 15.9045 18.2847 15.9045C17.3774 15.9045 16.6649 15.8071 16.1047 15.6567C15.9561 16.1231 15.7498 16.5691 15.4905 16.9844Z" fill="#fff"/>
</svg>
