<svg width="20" height="20" viewBox="0 0 20 20" fill="none" xmlns="http://www.w3.org/2000/svg">
<path d="M8.00342 18.8164H2.00342C1.7382 18.8164 1.48385 18.7111 1.29631 18.5235C1.10877 18.336 1.00342 18.0816 1.00342 17.8164V4.81641L5.00342 0.816406H14.0034C14.2686 0.816406 14.523 0.921763 14.7105 1.1093C14.8981 1.29684 15.0034 1.55119 15.0034 1.81641V7.81641" stroke="#fff" stroke-width="1.5" stroke-linecap="round" stroke-linejoin="round"/>
<path d="M5.00342 6.81641H11.0034M15.0034 11.8164L13.7634 14.1164L11.0034 14.4864L13.0034 16.2864L12.5334 18.8164L15.0034 17.6164L17.4734 18.8164L17.0034 16.2864L19.0034 14.4864L16.2434 14.1164L15.0034 11.8164ZM5.00342 10.8164H11.0034H5.00342Z" stroke="#fff" stroke-width="1.5" stroke-linecap="round" stroke-linejoin="round"/>
</svg>
